<svg xmlns="http://www.w3.org/2000/svg" viewBox="0 0 800 982"><g stroke-width="2" fill="none"><path stroke="#017a0d" vector-effect="non-scaling-stroke" d="M733.26 609.07q30.03-74.71 41.26-156.86 1.37-10.03 2.6-19.88 2.76-21.97 3.88-42.81 2.02-37.5-.12-77.51-1.07-20.06-2.58-40.01-.99-13.13-2.58-25.62-7.38-58.04-22.66-116.38-4.98-19.01-21.86-28.63-56.6-32.27-118.77-52.93-9.35-3.11-19.04-5.75-39.09-10.65-79.21-16.59-9.09-1.35-19.88-2.35-36.57-3.4-73.81-5.31-10.95-.56-19.99-.61c-24.21-.14-47.59 1.92-71.67 4.14q-67.74 6.24-131.25 25.83-65.6 20.23-126.1 52.08c-10.69 5.63-19.59 14.39-22.89 25.89-13.79 48.2-22.05 98.05-26.93 148.02q-6.58 67.34-1.85 125.95 2.21 27.46 3.49 37.33 5.9 45.47 17.92 92.91 8.95 35.31 24.94 76.47 24.44 62.91 58.72 114.79c17.3 26.17 35.58 51.46 54.08 72.5q19.86 22.59 26.68 29.71 23.14 24.17 53.38 49.66 47.45 40.01 101.53 73.55 15.26 9.47 22.01 12.78 19.94 9.78 39.55-2.09 21.73-13.15 40.22-26.27l16.53-11.69q68.17-48.17 124.8-108.94c54.79-58.8 99.8-127.25 129.6-201.38"/><path stroke="#017a0d" vector-effect="non-scaling-stroke" d="M382.92 30.1q-46.12 1.34-91.25 8.6-16.5 2.65-42.39 8.27-4.55.99-8.87 2.18c-7.31 2.01-14.9 3.49-21.87 5.58-8.24 2.46-16.74 4.42-24.95 7.27-10.19 3.54-20.75 6.76-30.49 10.42q-14.06 5.29-28.1 10.64c-2.03.77-4.24 2.45-6.6 3.37q-10.24 4.02-20.28 9.1c-3.15 1.59-6.4 2.63-9.55 4.19q-11.09 5.48-22.45 11.37c-7.39 3.83-12.06 9.13-15.08 16.79q-1.97 5.01-2.95 8.83-26.07 101.86-28 202.04-.74 38.56 3.57 82.33c.21 2.12-.04 4.01 2.78 4.01q364.57.04 728.34-.03a1.45 1.44 2.8 0 0 1.44-1.3c2.29-24.38 4.45-50.35 4.37-74.63q-.15-44.63-5.15-88.24c-2.11-18.43-5.13-37.23-8.19-55.27q-5.46-32.22-14.94-68.11c-2.49-9.42-5.61-16.54-12.94-22.3q-6.18-4.85-12.41-8.22-10.7-5.8-22.32-11.75c-7.21-3.69-15.02-6.61-22.14-10.21-5.09-2.57-10.45-4.48-15.71-6.83q-5.98-2.68-11.89-4.94-41.02-15.63-83.62-26.2-9.19-2.28-19.61-4.16-28.55-5.17-51.29-7.33c-16.77-1.59-34.68-3.77-52.08-4.67q-29.69-1.55-55.38-.8M385.89 592.44q-.21.48-.76.95-45.3 38.7-90.58 77.42-.17.15-.11.38.02.06.06.1.23.24.54.12 2.79-1.03 4.78-2.04 53.79-27.41 90.42-45.1 9.31-4.5 17.91-8.85 22.13-11.19 44.3-22.49 1.32-.67.09-2.07a2.52 2.4 85 0 0-.42-.37l-37.63-24.5a1.68 1.68 0 0 1-.32-2.54c31.17-34.12 61.41-70.18 91.79-103.36a.77.77 0 0 0-.53-1.29q-.47-.02-.86.25-87.45 59.34-156.87 104.39-.59.38-.91 1-.53 1.01.44 1.62c8.01 4.98 16.41 9.99 24.07 15.63 3.23 2.37 6.85 4.31 10.11 6.71q2.12 1.55 4.23 3.12a.77.77 0 0 1 .25.92"/><path stroke="#007701" vector-effect="non-scaling-stroke" d="M381.99 223.4a.19.19 0 0 1 .22.27q-15.32 33.02-30.55 66.02-1.91 4.12 1.63 6.73 1.64 1.21 2.96.97 19.71-3.58 38.57-6.94c1.81-.32 3.24-.98 4.22-2.45q28.75-42.98 56.32-83.92.39-.58 1.06-.77 41.32-11.49 79.38-21.74 4.78-1.28 7.59-3.4c8.73-6.58 10.98-18.39 5.54-27.9q-4.83-8.43-15.94-10.41-14.23-2.53-26.23-4.76-4.84-.9-9.83-2.26-8.36-2.29-20.02-.74-2.51.33-3.93 1.9c-2.4 2.66-1.49 5.93 1.36 7.66q1.4.86 2.96.54 8.65-1.75 17.07.26a.46.45 35.8 0 1 .14.83 12 12 0 0 0-5.27 13.19c1.77 6.95 8.77 10.78 15.7 8.96q11.78-3.09 26.03-7.41 4.48-1.36 8.62-2.19a1.3 1.28 73.9 0 1 1.45.81c2.18 5.78.2 13.17-6.31 14.95q-36.04 9.81-70.65 19.29-.58.16-.56-.45.17-4.07-3.53-5.13-1.44-.42-4.68.53-32.52 9.46-61.53 17.66c-3.49.99-4.45 4.56-5.72 7.51a1.37 1.33 2.2 0 1-.83.75q-30.02 9.4-60.15.31-.4-.12-.19-.49 3.72-6.66 6.99-12.88c1.85-3.53-1.93-7.85-5.67-6.83q-16.69 4.56-32.8 8.81-.47.13-.94-.03l-11.12-3.9a1.1 1.1 0 0 1-.48-1.75c.84-1.01 2-1.11 3.2-1.43l162.21-43.6a4.95 4.95 0 0 0-2.28-9.62q-3.85.79-7.27 2.01-.73.26-1.45.01l-72.82-25.79a1.75 1.75 0 0 0-1.05-.03q-15.49 4.26-31.76 8.59c-4.38 1.17-5.81 6.37-1.84 9.04q20.04 13.47 39.08 26.2.73.49-.12.72l-33.92 9.1q-.55.15-1.01-.2l-45.8-34.34a4.48 4.46 55.4 0 0-3.89-.72q-9.53 2.73-20.01 5.36c-3.87.97-6.44 4.12-4.11 7.98q11.3 18.72 21.8 35.69.25.41-.21.54c-4.57 1.35-8.31 5.18-8.66 10.03-.47 6.59 3.71 10.7 9.64 12.46q2.89.85 5.89 1.98.7.27.6 1.01-2.17 15.91-4.51 33.5a5.15 5.15 0 0 0 5.94 5.84q6.84-1.08 14.4-2.03a5.78 5.78 0 0 0 4.48-3.09q6.19-11.4 12.33-22.93.26-.49.79-.32 29.4 9.67 59.47 2.44"/><path stroke="#007701" vector-effect="non-scaling-stroke" d="M467.41 139.86a5.52 5.02-13.4 0 0-6.53-3.6 5.52 5.02-13.4 0 0-4.21 6.16 5.52 5.02-13.4 0 0 6.53 3.6 5.52 5.02-13.4 0 0 4.21-6.16M467.81 162.43a4.68 4.68 0 0 0-5.75-3.28l-.52.15a4.68 4.68 0 0 0-3.28 5.75l1.93 7.04a4.68 4.68 0 0 0 5.75 3.28l.52-.15a4.68 4.68 0 0 0 3.28-5.75l-1.93-7.04M449.6 167.27a4.69 4.69 0 0 0-5.8-3.21l-.52.15a4.69 4.69 0 0 0-3.21 5.8l2 7a4.69 4.69 0 0 0 5.8 3.21l.53-.15a4.69 4.69 0 0 0 3.21-5.8l-2-7M431.48 172.14a4.69 4.69 0 0 0-5.78-3.24l-.52.14a4.69 4.69 0 0 0-3.25 5.79l1.99 7.05a4.69 4.69 0 0 0 5.78 3.24l.52-.14a4.69 4.69 0 0 0 3.25-5.79l-1.99-7.05M413.32 177a4.71 4.71 0 0 0-5.84-3.22l-.52.15a4.71 4.71 0 0 0-3.21 5.83l2.01 7a4.71 4.71 0 0 0 5.84 3.22l.51-.15a4.71 4.71 0 0 0 3.22-5.83l-2.01-7M395.18 181.9a4.69 4.69 0 0 0-5.79-3.24l-.54.15a4.69 4.69 0 0 0-3.23 5.8l1.98 7a4.69 4.69 0 0 0 5.79 3.23l.54-.15a4.69 4.69 0 0 0 3.23-5.8l-1.98-7M377 186.78a4.7 4.7 0 0 0-5.82-3.2l-.52.14a4.7 4.7 0 0 0-3.2 5.82l2 6.96a4.7 4.7 0 0 0 5.82 3.2l.52-.14a4.7 4.7 0 0 0 3.2-5.82l-2-6.96M358.92 191.7a4.69 4.69 0 0 0-5.77-3.27l-.54.15a4.69 4.69 0 0 0-3.27 5.77l1.94 7a4.69 4.69 0 0 0 5.77 3.26l.54-.15a4.69 4.69 0 0 0 3.27-5.77l-1.94-7M162.54 346.82q-.58 2.05-1.44.1-3.47-7.83-5.21-15.85-.86-3.94-4.9-3.95h-1.23q-3.98 0-2.58 3.73 5.05 13.48 9.72 27.03.49 1.4 1.92 1.8 5.65 1.55 7.61-3.87 5-13.78 8.81-25.03 1.2-3.57-2.56-3.55l-.72.01q-3.93.02-4.99 3.8l-4.43 15.78M226.4 338.03a10.85 10.85 0 0 0-10.81-10.9h-4.12a10.85 10.85 0 0 0-10.9 10.8l-.03 11.12a10.85 10.85 0 0 0 10.81 10.9h4.12a10.85 10.85 0 0 0 10.9-10.8l.03-11.12M317.49 338.1a10.87 10.87 0 0 0-10.8-10.95l-4.08-.02a10.87 10.87 0 0 0-10.94 10.79l-.08 11.04a10.87 10.87 0 0 0 10.8 10.95l4.08.02a10.87 10.87 0 0 0 10.94-10.79l.08-11.04M541.45 344.41q.16.18.16.42 0 5.74-.34 10.83-.22 3.19 2.9 3.85 1.07.23 2.15.19 2.54-.11 2.54-2.65l-.03-27.72a1.99 1.99 0 0 0-1.6-1.95c-4.64-.91-7.51 1.68-8.96 5.69q-1.21 3.34-3.54 6.11a.9.9 0 0 1-1.42-.06q-1.97-2.81-3.43-6.08c-2.1-4.71-5.23-7.41-10.52-5.17a1.42 1.42 0 0 0-.87 1.37q.62 13.84.06 27.32-.13 3.11 2.98 3.16l3.01.04q2.91.04 2.49-2.84-.85-5.77-.23-10.96.55-4.63 2.51-.4c.96 2.06 1.6 4.56 3.96 5.54 1.56.66 3.06-.58 3.78-1.85q1.34-2.35 2.87-4.73.69-1.06 1.53-.11M583.47 339.17c.23-4.57 3.87-7.02 8.16-4.74q3.11 1.65 6.12 3.03 1.81.84 3.13-.6c1.08-1.18.66-3.23-.05-4.47-4.65-8.12-23.76-7.56-24.52 3.67q-.38 5.77-.04 13.77c.4 9.25 10.95 11.46 18.07 9.42q5.58-1.6 6.99-7 .76-2.89-1.46-4.37a2.49 2.48 39.1 0 0-3.15.32c-1.78 1.78-3.6 3.62-5.88 4.76-3.15 1.57-6.59-.65-7.02-3.96q-.6-4.69-.35-9.83M134.79 343.22q-.11 2.1-1.22.32-4.06-6.52-7.11-12.24c-2.07-3.87-4.71-4.72-8.8-3.92q-1.15.23-1.15 1.4l-.01 27.32q0 3.87 3.85 4.11l.28.02q3.86.25 3.79-3.61l-.24-12.39q-.06-3.27 1.63-.46 3.31 5.5 7.78 12.83 2.27 3.71 7.19 3.17 1.41-.15 1.43-1.56l.37-27.78q.04-3.21-3.16-3.01l-2.48.15q-2.83.17-2.54 3 .69 6.49.39 12.65M183.29 351.47c-1.78 1.59-6.31 3.29-4.26 6.57q.9 1.44 2.58 1.43 6.1 0 12.4.04a1.66 1.66 0 0 0 1.64-1.33q.88-4.39-3.09-5.87a1.97 1.96-80.2 0 1-1.27-1.81q-.07-6-.03-12.02c.02-2.38 1.85-4.22 3.41-5.79 1.7-1.73 1.49-4.97-1.44-5.08q-5.4-.2-11.26-.29-2.29-.03-2.8 1.97c-.62 2.39 2.49 5.15 4.1 6.57q.45.39.45 1l.07 13.5q0 .67-.5 1.11M247.99 349.69a2.03 2.03 0 0 1-.52 2.58c-5.55 4.38-9.61-4.8-15.1-4.25a2.05 2.04 84.8 0 0-1.83 2.2c.69 8.68 8.94 10.52 16.22 9.82q9.6-.92 9.41-10.75-.1-5.27-4.89-7.17-4.71-1.86-9.69-3.52-1.4-.46-2.22-1.6a1.83 1.83 0 0 1 .41-2.55 4.37 4.37 0 0 1 5.05-.24q3.54 1.98 7.21 3.09 3.57 1.09 3.46-2.64-.02-.46-.12-.91-.85-3.64-4.36-4.95c-6.87-2.55-18.98-3.4-20.05 6.57-.82 7.74 6.12 10.48 12.42 11.37a6.06 6.06 0 0 1 4.6 2.95M342.38 345.37q2.23 5.36 3.44 10.92c1.02 4.72 6.95 4.57 8.37.16q4.24-13.15 7.82-26.32.78-2.9-2.22-2.89l-2.29.01q-3.09.01-3.68 3.05-1.27 6.53-3.48 12.65a.48.47-66.1 0 1-.66.26q-.29-.15-.42-.45-2.18-4.96-2.85-10.26c-.41-3.24-2.42-5.91-6.1-5.15q-1.66.34-2.1 1.99-1.78 6.69-3.58 13.14-.82 2.9-1.73.03-1.99-6.23-3.61-12.84a2.48 2.47-7.5 0 0-2.47-1.89l-3.85.09q-2.56.07-1.79 2.51 4.05 12.75 7.84 25.71c1 3.42 7.48 5.17 8.41 1.33q1.53-6.37 3.83-12.04.55-1.36 1.12-.01M407.63 346.42a30.03 30.03 0 0 0 5.55 11.02 6.31 6.29 68.2 0 0 5.52 2.38q1.06-.1 2.02-.4 2.53-.78 1.07-2.99-2.03-3.07-4.74-5.94a2.13 2.12 45.3 0 1 .01-2.92c4.4-4.6 7.44-9.05 3.68-15.48-1.68-2.86-5.36-3.96-8.49-4.26q-6.29-.6-13.64-.51a2.23 2.23 0 0 0-2.21 2.22l-.05 27.61q-.01 2.32 2.31 2.32l3.58.02q1.49 0 1.49-1.49l-.01-21.5a2.24 2.23-1.1 0 1 2.16-2.23c2.68-.09 7.3-.62 8.66 2.37 1.72 3.75-1.62 5.27-4.7 6.14q-2.93.82-2.21 3.64M451.18 345.32q.19 6-.14 11.61-.16 2.68 2.52 2.56l2.79-.12q2.24-.1 2.22-2.34l-.15-28.4a1.29 1.29 0 0 0-1.07-1.26c-4.32-.76-7.31.46-8.87 4.54q-1.53 3.99-3.78 7.11-.63.87-1.74.08a1.57 1.5-88.8 0 1-.44-.48q-1.85-3-3.4-6.39c-1.73-3.77-4.73-5.97-8.99-4.57q-1.31.43-1.33 1.81l-.33 27.88q-.03 2.42 2.38 2.19l3.64-.34q2.63-.25 2.15-2.84-1.14-6.21-.36-11.96.06-.42.4-.67a.61.6-35.4 0 1 .85.14q1.64 2.28 2.69 4.62c1.34 3 4.57 3.64 6.49.68q1.36-2.1 2.75-4.31 1.62-2.57 1.72.46M476.46 349.55q.06-5.5.03-11.25c-.01-3.24 2.44-3.85 4.26-5.77 1.88-1.99.06-4.95-2.46-4.96q-5.17-.01-11.02-.36c-2.32-.14-3.87 1.99-2.85 4.14q.93 1.95 2.91 3 1.85.98 1.78 2.92l-.39 12.61a3.41 3.41 0 0 1-2.14 3.1c-2.25 1.05-2.89 3.67-1.78 5.79a1.28 1.27-13.3 0 0 1.09.67q5.67.09 12.31.02c2.24-.02 3.74-2.3 3.14-4.38q-.16-.54-.61-.88c-1.55-1.17-4.29-2.31-4.27-4.65M500.29 339.16l5.52 17.94q.93 3 4.05 2.69l2.46-.24q2.88-.29 1.92-3.02-3.97-11.32-8.31-22.77-.93-2.44-2.34-4.33c-3.35-4.48-8.06-1.37-9.6 2.7q-4.06 10.78-8.71 24.23-1.21 3.51 2.51 3.49l.66-.01q4.1-.02 5.08-4 2.1-8.48 4.53-14.47.5-1.24 1.25-2.36.64-.94.98.15M558.83 351.35c-1.59 1.59-4.51 3.45-4.41 5.93q.09 2.29 2.3 2.29 5.78.01 11.66.08 1.15.01 2.14-.42.48-.21.57-.72c.44-2.44-1.82-5.15-3.51-6.66a2.82 2.81 21.2 0 1-.94-2.12l.1-13.14q.01-.74.53-1.27l3.44-3.45a2.15 2.14 48.6 0 0 .17-2.82q-.79-1.01-2.14-1.09-4.43-.27-9.42-.68c-2.76-.24-4.98.79-4.54 4.11a2.77 2.76 13.2 0 0 1.21 1.95l2.56 1.71a2.16 2.15 16.9 0 1 .96 1.79l-.04 12.96a2.2 2.18 67.7 0 1-.64 1.55M624.69 340.13q-3.16.3-6.6-.13c-4.32-.54-3.07-6.61-2.64-9.29q.47-2.91-2.47-3.13l-2.41-.19q-3-.23-3 2.79v26.11q0 3.22 3.22 3.21h1.52q3.31-.01 3.26-3.31l-.12-7.01a2.5 2.5 0 0 1 2.63-2.53l6.18.31a2.19 2.19 0 0 1 2.07 2.3l-.36 7.08q-.17 3.29 3.12 3.38l1.57.04q2.99.08 2.99-2.92l-.03-26.09q-.01-3.23-3.23-3.24-.9-.01-1.74.18-3.41.73-2.72 4.15c.46 2.32.64 5.43-.38 7.68a1.04 1.03-80.3 0 1-.86.61M111.22 330.3a2.76 2.76 0 0 0-2.75-2.77l-19.88-.06a2.76 2.76 0 0 0-2.77 2.75v1.4a2.76 2.76 0 0 0 2.75 2.77l19.88.06a2.76 2.76 0 0 0 2.77-2.75v-1.4M271.38 349.81c3.97.58 9.37.18 12.27-2.9 4.79-5.1 4.31-16.7-3.65-18.32q-7.16-1.46-16.12-.93a2.04 2.04 0 0 0-1.92 2.05l.03 26.92q0 2.93 2.9 3.33.89.12 1.8-.02 2.8-.43 2.92-3.27l.23-5.59a1.34 1.34 0 0 1 1.54-1.27M390.65 329.7a2.18 2.18 0 0 0-2.17-2.2l-20.3-.03a2.18 2.18 0 0 0-2.19 2.18v2.6a2.18 2.18 0 0 0 2.17 2.18l20.3.04a2.18 2.18 0 0 0 2.19-2.18v-2.6M670.27 350.87l-.5-20.53q-.08-3.11-3.18-2.8l-.66.06q-3.22.32-3.21 3.56l.07 26.4a1.93 1.93 0 0 0 1.98 1.93q8.37-.21 17.36-.39 3.02-.06 4.01-3.09.13-.39.04-.78-.53-2.35-2.94-2.39l-11.13-.15q-1.79-.03-1.84-1.82M651.44 350.13q.16-5.83.21-12.08c.03-2.87 2.46-5.03 4.29-6.97a1.25 1.24 66.2 0 0 .34-.88q-.05-2.1-2.29-2.13l-10.53-.16c-3.08-.05-4.71 2.79-2.17 5.05q2.65 2.35 2.54 5.23-.19 4.66-.32 10.31c-.06 2.82-1.5 5.01-2.8 7.41q-.68 1.25-.28 2.46a1.62 1.62 0 0 0 1.64 1.1q5.35-.31 11.07-.36c3.08-.02 3.14-2.77 1.44-4.56q-1.41-1.48-2.75-3.21a1.91 1.86-63.5 0 1-.39-1.21M713.78 330.26a2.24 2.24 0 0 0-2.26-2.23l-20.26.1a2.24 2.24 0 0 0-2.22 2.25v1.48a2.24 2.24 0 0 0 2.26 2.23l20.26-.1a2.24 2.24 0 0 0 2.22-2.25v-1.48M90.66 340.17a2.2 2.2 0 0 0-2.2 2.05l-.15 2.35a2.2 2.2 0 0 0 2.25 2.34l16.15-.39a2.2 2.2 0 0 0 2.12-2.53l-.3-1.96a2.2 2.2 0 0 0-2.18-1.86H90.66M388.22 342.03a2.01 2.01 0 0 0-2.03-1.99l-16.12.2a2.01 2.01 0 0 0-1.99 2.03l.04 2.66a2.01 2.01 0 0 0 2.03 1.99l16.12-.2a2.01 2.01 0 0 0 1.99-2.03l-.04-2.66M711.6 342.59a2.24 2.24 0 0 0-2.23-2.25l-15.6-.06a2.24 2.24 0 0 0-2.25 2.24v1.7a2.24 2.24 0 0 0 2.23 2.24l15.6.06a2.24 2.24 0 0 0 2.25-2.23v-1.7M390.61 354.73a2.34 2.34 0 0 0-2.33-2.34l-20.18-.04a2.34 2.34 0 0 0-2.35 2.34v2.44a2.34 2.34 0 0 0 2.33 2.34l20.18.04a2.34 2.34 0 0 0 2.35-2.34v-2.44M111.07 354.22a1.69 1.69 0 0 0-1.69-1.69H87.62a1.69 1.69 0 0 0-1.69 1.69v3.68a1.69 1.69 0 0 0 1.69 1.69h21.76a1.69 1.69 0 0 0 1.69-1.69v-3.68M714.01 356.1a3.04 3.04 0 0 0-3-3.07l-18.69-.2a3.04 3.04 0 0 0-3.07 3.01v.2a3.04 3.04 0 0 0 3 3.07l18.69.2a3.04 3.04 0 0 0 3.07-3.01v-.2M349.71 373.92a.78.78 0 0 0-1.49-.33l-1.47 3.14a.78.78 0 0 0-.07.28l-.92 15.21a.78.78 0 0 0 .75.83l2.32.07a.78.78 0 0 0 .8-.77l.08-18.43M420.42 388.41c4.05.03 9.69.74 10.29-4.86.78-7.24-7.33-7.9-12.72-7.01-1.55.26-2.68 1.41-2.68 3.01q-.02 6.06-.01 12.17a1.16 1.15 11.6 0 0 .7 1.06q.7.29 1.26.05a3.22 3.09 84.1 0 0 1.81-2.33q.13-.74.38-1.42a1.02 1.02 0 0 1 .97-.67M453.61 384.69a9.23 8.43-2.2 0 0-9.54-8.07 9.23 8.43-2.2 0 0-8.9 8.77 9.23 8.43-2.2 0 0 9.54 8.07 9.23 8.43-2.2 0 0 8.9-8.77M486.47 381.28l.22-.42q.99-1.93 3.15-1.77l6.23.49q1.52.12 1.6-1.4l.01-.27q.05-1.08-1.02-1.11l-12.13-.33a1.72 1.72 0 0 0-1.77 1.66q-.2 6.42-.28 12.54-.03 2.07 1.96 2.48 6.61 1.38 13.22-.29a.96.95-14.8 0 0 .69-1.18l-.09-.35q-.3-1.08-1.42-1l-7.97.63q-2.29.18-2.63-2.09l-.1-.69q-.39-2.59 2.22-2.47l5.23.22q1.13.05 1.57-.99.08-.21.09-.43.05-1.15-1.1-1.06-3.95.32-6.55-.02-2.09-.27-1.13-2.15M507.49 389.17a2 2 0 0 1 2.14-1.41c3.98.46 3.79 2.68 5.94 5.11a1.65 1.58 76.5 0 0 .78.5q.98.28 1.63-.13a1.21 1.21 0 0 0 .36-1.69c-1.48-2.28-.79-4.22.29-6.38 1.28-2.55.94-5.71-1.6-7.33-2.84-1.81-7.97-1.4-11.12-1.09a2.47 2.47 0 0 0-2.22 2.52q.13 5.24-.36 10.46c-.11 1.21.45 2.32 1.64 2.75a1.4 1.4 0 0 0 1.81-.92l.71-2.39M285.01 379.82q1.28-1.4 8.5-.1a1.48 1.47-79.3 0 0 1.71-1.17l.06-.31q.21-1.09-.9-1.23-3.65-.45-8.54-.27c-1.89.07-4.86.22-4.98 2.73q-.26 5.44-.02 10.05c.17 3.37 3.54 3.96 6.26 3.96q3.79.01 7.17-.1a1.39 1.38-72.5 0 0 1.07-.56q.64-.9.29-1.59-.51-1.02-1.65-.95c-2.84.19-6.05 1.22-8.5-.32-1.98-1.23-1.62-3.28-.54-4.99a1.15 1.15 0 0 0-.01-1.25q-1.46-2.22.08-3.9M392.73 389.25c-2.86 4.07-9.08 1.3-12.63-.73a.44.44 0 0 0-.61.19l-.18.37a.86.86 0 0 0 .24 1.06q7.73 6.14 15.22 1.79 1.8-1.04 2.77-2.81.31-.55.08-1.15c-1.26-3.32-8.21-4.06-11.11-4.24q-1.9-.12-2.58-1.95-.22-.6.16-1.12c2.55-3.49 8.76-.85 11.88.72a.48.48 0 0 0 .67-.27l.11-.35a1.27 1.27 0 0 0-.52-1.49q-7.16-4.58-14.05-.91c-4.81 2.57-1.55 6.8 2.39 7.11 2.52.2 7.13.3 8.25 2.98q.17.43-.09.8M466.55 386.46c3.32-.3 3.84 1.89 5.18 4.06q1.08 1.75 2.67.9a1.52 1.51-7.3 0 0 .76-.98l2.86-11.82q.34-1.38-1.02-1.79l-.45-.14q-1.83-.56-2.29 1.29l-1.08 4.34a1.35 1.35 0 0 1-2 .84l-2.45-1.43a.95.94 43.5 0 0-1 .02l-1.96 1.29a1.82 1.81 65.2 0 1-2.73-1.01q-.45-1.52-1.02-3-.67-1.73-2.41-1.91-.24-.02-.47.08-1.19.51-.8 1.75 1.7 5.43 3.42 11.58c.29 1.02 1.29 1.61 2.28 1.07a1.21 1.19-7.5 0 0 .58-.74l1.01-3.64q.2-.7.92-.76M332.88 385.11a1.22 1.22 0 0 1-2.12.06l-4.62-7.57q-.65-1.07-1.71-.41l-.23.14q-1.27.78-.57 2.11 3.19 6.01 6.3 11.6 1.14 2.06 3.15.36a2.22 2.16-7.3 0 0 .5-.63l6.55-12.39q.56-1.07-.64-1.25-.55-.08-1.1.09-1.56.49-2.33 1.94l-3.18 5.95M375.18 384.27a7.4 7.4 0 0 0-7.55-7.24l-3.02.06a7.4 7.4 0 0 0-7.24 7.56l.03 1.34a7.4 7.4 0 0 0 7.55 7.24l3.02-.06a7.4 7.4 0 0 0 7.24-7.56l-.03-1.34M305.86 386.38q.07-1.82 1.73-1.08 4.19 1.88 6.77 5.82 1.08 1.65 2.96 1.28a.84.83 84 0 0 .68-.85l-.41-12.97a1.34 1.34 0 0 0-1.06-1.27l-.26-.06q-1.42-.3-1.46 1.16-.06 2.56-.16 5.52-.03.9-.72 1.4a1.18 1.17-42.6 0 1-1.45-.06l-8.22-7.02q-2.63-2.25-2.17 1.18.79 5.81-.08 11.78-.21 1.41 1.21 1.56l.56.06q1.8.19 1.88-1.61l.2-4.84"/><path stroke="#007701" vector-effect="non-scaling-stroke" d="M293.06 385.4v-1.28a.28.28 0 0 0-.28-.28l-1.46-.01a3.94.78.2 0 0-3.94.77v.28a3.94.78.2 0 0 3.94.79l1.46.01a.28.28 0 0 0 .28-.28M382.19 157.34a.33.33 0 0 0 .26.04l37.52-10a.33.33 0 0 0 .02-.63l-56.39-19.88a.33.33 0 0 0-.2 0l-18.56 4.88a.33.33 0 0 0-.1.6l37.45 24.99M291.91 181.48a.36.36 0 0 0 .4.16l29.25-7.84a.36.36 0 0 0 .13-.63l-37.24-27.91a.36.36 0 0 0-.31-.06l-11.91 3.22a.36.36 0 0 0-.21.54l19.89 32.52M526.94 148.75c-3.12-.61-6.31-.79-9.46-1.48q-2.41-.53-5.23.26l-10.97 3.07q-1.99.56-2.62 2.88-.11.45.17.81 1.74 2.23 4.18 1.59 12.21-3.23 23.95-6.4 1.54-.42-.02-.73M446.62 199.23a.31.31 0 0 0-.35-.47l-47.87 13.85a.31.31 0 0 0-.2.17l-33.54 72.51a.31.31 0 0 0 .34.43l26.74-4.81a.31.31 0 0 0 .2-.13l54.68-81.55M319.22 205.06a.32.32 0 0 0-.36-.46l-19.59 5.38a.32.32 0 0 0-.23.27l-3.77 27.99a.32.32 0 0 0 .36.36l5.83-.87a.32.32 0 0 0 .24-.16l17.52-32.51M218.85 338.58a4.95 4.95 0 0 0-4.93-4.98h-1.02a4.95 4.95 0 0 0-4.97 4.92l-.06 9.84a4.95 4.95 0 0 0 4.93 4.98h1.02a4.95 4.95 0 0 0 4.97-4.92l.06-9.84M310.05 338.45a4.82 4.82 0 0 0-4.8-4.84h-1.6a4.82 4.82 0 0 0-4.84 4.8l-.04 10.02a4.82 4.82 0 0 0 4.8 4.84h1.6a4.82 4.82 0 0 0 4.84-4.8l.04-10.02M269.44 336.21l-.08 5.16a2.06 2.06 0 0 0 2.03 2.09l2.61.04a5.71 4.4.9 0 0 5.78-4.31v-.48a5.71 4.4.9 0 0-5.64-4.49l-2.61-.04a2.06 2.06 0 0 0-2.09 2.03M425.41 385.06a2.14 2.14 0 0 0 1.8-2.09l.02-1.28a2.14 2.14 0 0 0-1.61-2.1l-3.85-.99a2.14 2.14 0 0 0-2.66 1.79l-.39 2.95a2.14 2.14 0 0 0 2.46 2.39l4.23-.67M450.15 385.32a5.77 5.32 4.6 0 0-5.32-5.76 5.77 5.32 4.6 0 0-6.18 4.84 5.77 5.32 4.6 0 0 5.32 5.76 5.77 5.32 4.6 0 0 6.18-4.84M515.75 382.35a2.94 2.94 0 0 0-2.83-3.05l-3.26-.12a2.94 2.94 0 0 0-3.05 2.83l-.02.5a2.94 2.94 0 0 0 2.83 3.05l3.26.12a2.94 2.94 0 0 0 3.05-2.83l.02-.5M372.05 385.13a5.84 5.12 1.5 0 0-5.7-5.27 5.84 5.12 1.5 0 0-5.98 4.97 5.84 5.12 1.5 0 0 5.7 5.27 5.84 5.12 1.5 0 0 5.98-4.97"/></g><path fill="#00ee02" d="M739.33 639.62q-18.12 40.63-44.81 82.26-18.21 28.41-35.9 51.19-19.14 24.64-45.45 52.91c-7.83 8.42-16.17 16.23-24.3 24.5q-4.99 5.08-10.56 10.2-21.41 19.71-32.98 29.49-47.51 40.19-107.85 78.54-9.81 6.23-16.39 8.82-26.08 10.29-52.15-5.07-81.91-48.26-150.9-112.02-7.74-7.16-14.81-14.41-29.67-30.41-52.21-58.26-38.26-47.28-69.74-105.55-4.66-8.61-9.28-18.19C13.77 543.34-9.15 407.86 3.74 274.17q7.03-72.97 25.51-144.11 3.09-11.91 5.97-17.71 8.58-17.32 26.55-26.67c21.2-11.04 43.42-22.31 65.99-31.42 26.73-10.79 53.94-20.56 81.55-28.1C256.4 13.3 304.4 5.79 353.04 1.92q43.06-3.43 92.38-.02 37.7 2.61 72.52 7.04 33.79 4.3 68.02 13.5 82.94 22.3 157.28 66.01c14.53 8.54 23.27 23.31 27.49 39.86q7.93 31.15 14.29 65.03 15.26 81.42 14.62 162.42-.06 8.82-.62 18.68c-.44 7.95-.43 16.29-1.01 23.99q-2.18 28.87-6.25 58.93-1.23 9.06-3.19 19.74-2.08 11.3-4.33 22.38-14.71 72.47-44.91 140.14Zm-6.07-30.55q30.03-74.71 41.26-156.86 1.37-10.03 2.6-19.88 2.76-21.97 3.88-42.81 2.02-37.5-.12-77.51-1.07-20.06-2.58-40.01-.99-13.13-2.58-25.62-7.38-58.04-22.66-116.38-4.98-19.01-21.86-28.63-56.6-32.27-118.77-52.93-9.35-3.11-19.04-5.75-39.09-10.65-79.21-16.59-9.09-1.35-19.88-2.35-36.57-3.4-73.81-5.31-10.95-.56-19.99-.61c-24.21-.14-47.59 1.92-71.67 4.14q-67.74 6.24-131.25 25.83-65.6 20.23-126.1 52.08c-10.69 5.63-19.59 14.39-22.89 25.89-13.79 48.2-22.05 98.05-26.93 148.02q-6.58 67.34-1.85 125.95 2.21 27.46 3.49 37.33 5.9 45.47 17.92 92.91 8.95 35.31 24.94 76.47 24.44 62.91 58.72 114.79c17.3 26.17 35.58 51.46 54.08 72.5q19.86 22.59 26.68 29.71 23.14 24.17 53.38 49.66 47.45 40.01 101.53 73.55 15.26 9.47 22.01 12.78 19.94 9.78 39.55-2.09 21.73-13.15 40.22-26.27l16.53-11.69q68.17-48.17 124.8-108.94c54.79-58.8 99.8-127.25 129.6-201.38Z"/><path fill="#020518" d="M733.26 609.07c-29.8 74.13-74.81 142.58-129.6 201.38q-56.63 60.77-124.8 108.94l-16.53 11.69q-18.49 13.12-40.22 26.27-19.61 11.87-39.55 2.09-6.75-3.31-22.01-12.78-54.08-33.54-101.53-73.55-30.24-25.49-53.38-49.66-6.82-7.12-26.68-29.71c-18.5-21.04-36.78-46.33-54.08-72.5Q90.6 669.36 66.16 606.45q-15.99-41.16-24.94-76.47-12.02-47.44-17.92-92.91-1.28-9.87-3.49-37.33-4.73-58.61 1.85-125.95c4.88-49.97 13.14-99.82 26.93-148.02 3.3-11.5 12.2-20.26 22.89-25.89q60.5-31.85 126.1-52.08 63.51-19.59 131.25-25.83c24.08-2.22 47.46-4.28 71.67-4.14q9.04.05 19.99.61 37.24 1.91 73.81 5.31 10.79 1 19.88 2.35 40.12 5.94 79.21 16.59 9.69 2.64 19.04 5.75Q674.6 69.1 731.2 101.37q16.88 9.62 21.86 28.63 15.28 58.34 22.66 116.38 1.59 12.49 2.58 25.62 1.51 19.95 2.58 40.01 2.14 40.01.12 77.51-1.12 20.84-3.88 42.81-1.23 9.85-2.6 19.88-11.23 82.15-41.26 156.86ZM382.92 30.1q-46.12 1.34-91.25 8.6-16.5 2.65-42.39 8.27-4.55.99-8.87 2.18c-7.31 2.01-14.9 3.49-21.87 5.58-8.24 2.46-16.74 4.42-24.95 7.27-10.19 3.54-20.75 6.76-30.49 10.42q-14.06 5.29-28.1 10.64c-2.03.77-4.24 2.45-6.6 3.37q-10.24 4.02-20.28 9.1c-3.15 1.59-6.4 2.63-9.55 4.19q-11.09 5.48-22.45 11.37c-7.39 3.83-12.06 9.13-15.08 16.79q-1.97 5.01-2.95 8.83-26.07 101.86-28 202.04-.74 38.56 3.57 82.33c.21 2.12-.04 4.01 2.78 4.01q364.57.04 728.34-.03a1.45 1.44 2.8 0 0 1.44-1.3c2.29-24.38 4.45-50.35 4.37-74.63q-.15-44.63-5.15-88.24c-2.11-18.43-5.13-37.23-8.19-55.27q-5.46-32.22-14.94-68.11c-2.49-9.42-5.61-16.54-12.94-22.3q-6.18-4.85-12.41-8.22-10.7-5.8-22.32-11.75c-7.21-3.69-15.02-6.61-22.14-10.21-5.09-2.57-10.45-4.48-15.71-6.83q-5.98-2.68-11.89-4.94-41.02-15.63-83.62-26.2-9.19-2.28-19.61-4.16-28.55-5.17-51.29-7.33c-16.77-1.59-34.68-3.77-52.08-4.67q-29.69-1.55-55.38-.8Zm2.97 562.34q-.21.48-.76.95-45.3 38.7-90.58 77.42-.17.15-.11.38.02.06.06.1.23.24.54.12 2.79-1.03 4.78-2.04 53.79-27.41 90.42-45.1 9.31-4.5 17.91-8.85 22.13-11.19 44.3-22.49 1.32-.67.09-2.07a2.52 2.4 85 0 0-.42-.37l-37.63-24.5a1.68 1.68 0 0 1-.32-2.54c31.17-34.12 61.41-70.18 91.79-103.36a.77.77 0 0 0-.53-1.29q-.47-.02-.86.25-87.45 59.34-156.87 104.39-.59.38-.91 1-.53 1.01.44 1.62c8.01 4.98 16.41 9.99 24.07 15.63 3.23 2.37 6.85 4.31 10.11 6.71q2.12 1.55 4.23 3.12a.77.77 0 0 1 .25.92Z"/><path fill="#00ee02" d="M382.92 30.1q25.69-.75 55.38.8c17.4.9 35.31 3.08 52.08 4.67q22.74 2.16 51.29 7.33 10.42 1.88 19.61 4.16 42.6 10.57 83.62 26.2 5.91 2.26 11.89 4.94c5.26 2.35 10.62 4.26 15.71 6.83 7.12 3.6 14.93 6.52 22.14 10.21q11.62 5.95 22.32 11.75 6.23 3.37 12.41 8.22c7.33 5.76 10.45 12.88 12.94 22.3q9.48 35.89 14.94 68.11c3.06 18.04 6.08 36.84 8.19 55.27q5 43.61 5.15 88.24c.08 24.28-2.08 50.25-4.37 74.63a1.45 1.44 2.8 0 1-1.44 1.3q-363.77.07-728.34.03c-2.82 0-2.57-1.89-2.78-4.01q-4.31-43.77-3.57-82.33 1.93-100.18 28-202.04.98-3.82 2.95-8.83c3.02-7.66 7.69-12.96 15.08-16.79q11.36-5.89 22.45-11.37c3.15-1.56 6.4-2.6 9.55-4.19q10.04-5.08 20.28-9.1c2.36-.92 4.57-2.6 6.6-3.37q14.04-5.35 28.1-10.64c9.74-3.66 20.3-6.88 30.49-10.42 8.21-2.85 16.71-4.81 24.95-7.27 6.97-2.09 14.56-3.57 21.87-5.58q4.32-1.19 8.87-2.18 25.89-5.62 42.39-8.27 45.13-7.26 91.25-8.6Zm-.93 193.3a.19.19 0 0 1 .22.27q-15.32 33.02-30.55 66.02-1.91 4.12 1.63 6.73 1.64 1.21 2.96.97 19.71-3.58 38.57-6.94c1.81-.32 3.24-.98 4.22-2.45q28.75-42.98 56.32-83.92.39-.58 1.06-.77 41.32-11.49 79.38-21.74 4.78-1.28 7.59-3.4c8.73-6.58 10.98-18.39 5.54-27.9q-4.83-8.43-15.94-10.41-14.23-2.53-26.23-4.76-4.84-.9-9.83-2.26-8.36-2.29-20.02-.74-2.51.33-3.93 1.9c-2.4 2.66-1.49 5.93 1.36 7.66q1.4.86 2.96.54 8.65-1.75 17.07.26a.46.45 35.8 0 1 .14.83 12 12 0 0 0-5.27 13.19c1.77 6.95 8.77 10.78 15.7 8.96q11.78-3.09 26.03-7.41 4.48-1.36 8.62-2.19a1.3 1.28 73.9 0 1 1.45.81c2.18 5.78.2 13.17-6.31 14.95q-36.04 9.81-70.65 19.29-.58.16-.56-.45.17-4.07-3.53-5.13-1.44-.42-4.68.53-32.52 9.46-61.53 17.66c-3.49.99-4.45 4.56-5.72 7.51a1.37 1.33 2.2 0 1-.83.75q-30.02 9.4-60.15.31-.4-.12-.19-.49 3.72-6.66 6.99-12.88c1.85-3.53-1.93-7.85-5.67-6.83q-16.69 4.56-32.8 8.81-.47.13-.94-.03l-11.12-3.9a1.1 1.1 0 0 1-.48-1.75c.84-1.01 2-1.11 3.2-1.43l162.21-43.6a4.95 4.95 0 0 0-2.28-9.62q-3.85.79-7.27 2.01-.73.26-1.45.01l-72.82-25.79a1.75 1.75 0 0 0-1.05-.03q-15.49 4.26-31.76 8.59c-4.38 1.17-5.81 6.37-1.84 9.04q20.04 13.47 39.08 26.2.73.49-.12.72l-33.92 9.1q-.55.15-1.01-.2l-45.8-34.34a4.48 4.46 55.4 0 0-3.89-.72q-9.53 2.73-20.01 5.36c-3.87.97-6.44 4.12-4.11 7.98q11.3 18.72 21.8 35.69.25.41-.21.54c-4.57 1.35-8.31 5.18-8.66 10.03-.47 6.59 3.71 10.7 9.64 12.46q2.89.85 5.89 1.98.7.27.6 1.01-2.17 15.91-4.51 33.5a5.15 5.15 0 0 0 5.94 5.84q6.84-1.08 14.4-2.03a5.78 5.78 0 0 0 4.48-3.09q6.19-11.4 12.33-22.93.26-.49.79-.32 29.4 9.67 59.47 2.44Zm85.42-83.54a5.52 5.02-13.4 0 0-6.53-3.6 5.52 5.02-13.4 0 0-4.21 6.16 5.52 5.02-13.4 0 0 6.53 3.6 5.52 5.02-13.4 0 0 4.21-6.16Zm.4 22.57a4.68 4.68 0 0 0-5.75-3.28l-.52.15a4.68 4.68 0 0 0-3.28 5.75l1.93 7.04a4.68 4.68 0 0 0 5.75 3.28l.52-.15a4.68 4.68 0 0 0 3.28-5.75l-1.93-7.04Zm-18.2 4.84a4.69 4.69 0 0 0-5.8-3.21l-.53.15a4.69 4.69 0 0 0-3.21 5.8l2 7a4.69 4.69 0 0 0 5.8 3.21l.53-.15a4.69 4.69 0 0 0 3.21-5.8l-2-7Zm-18.13 4.87a4.69 4.69 0 0 0-5.78-3.24l-.52.14a4.69 4.69 0 0 0-3.25 5.79l1.99 7.05a4.69 4.69 0 0 0 5.78 3.24l.52-.14a4.69 4.69 0 0 0 3.25-5.79l-1.99-7.05ZM413.32 177a4.71 4.71 0 0 0-5.84-3.22l-.52.15a4.71 4.71 0 0 0-3.21 5.83l2.01 7a4.71 4.71 0 0 0 5.84 3.22l.51-.15a4.71 4.71 0 0 0 3.22-5.83l-2.01-7Zm-18.14 4.9a4.69 4.69 0 0 0-5.79-3.24l-.54.15a4.69 4.69 0 0 0-3.23 5.8l1.98 7a4.69 4.69 0 0 0 5.79 3.23l.54-.15a4.69 4.69 0 0 0 3.23-5.8l-1.98-7ZM377 186.77a4.7 4.7 0 0 0-5.82-3.2l-.52.14a4.7 4.7 0 0 0-3.2 5.82l2 6.96a4.7 4.7 0 0 0 5.82 3.2l.52-.14a4.7 4.7 0 0 0 3.2-5.82l-2-6.96Zm-18.08 4.91a4.69 4.69 0 0 0-5.77-3.26l-.54.15a4.69 4.69 0 0 0-3.27 5.77l1.94 7a4.69 4.69 0 0 0 5.77 3.26l.54-.15a4.69 4.69 0 0 0 3.27-5.77l-1.94-7ZM162.54 346.82q-.58 2.05-1.44.1-3.47-7.83-5.21-15.85-.86-3.94-4.9-3.95h-1.23q-3.98 0-2.58 3.73 5.05 13.48 9.72 27.03.49 1.4 1.92 1.8 5.65 1.55 7.61-3.87 5-13.78 8.81-25.03 1.2-3.57-2.56-3.55l-.72.01q-3.93.02-4.99 3.8l-4.43 15.78Zm63.86-8.8a10.85 10.85 0 0 0-10.81-10.88l-4.12-.02a10.85 10.85 0 0 0-10.9 10.81l-.03 11.12a10.85 10.85 0 0 0 10.81 10.9h4.12a10.85 10.85 0 0 0 10.9-10.8l.03-11.12Zm91.09.08a10.87 10.87 0 0 0-10.8-10.95l-4.08-.02a10.87 10.87 0 0 0-10.94 10.79l-.08 11.04a10.87 10.87 0 0 0 10.8 10.95l4.08.02a10.87 10.87 0 0 0 10.94-10.79l.08-11.04Zm223.96 6.31q.16.18.16.42 0 5.74-.34 10.83-.22 3.19 2.9 3.85 1.07.23 2.15.19 2.54-.11 2.54-2.65l-.03-27.72a1.99 1.99 0 0 0-1.6-1.95c-4.64-.91-7.51 1.68-8.96 5.69q-1.21 3.34-3.54 6.11a.9.9 0 0 1-1.42-.06q-1.97-2.81-3.43-6.08c-2.1-4.71-5.23-7.41-10.52-5.17a1.42 1.42 0 0 0-.87 1.37q.62 13.84.06 27.32-.13 3.11 2.98 3.16l3.01.04q2.91.04 2.49-2.84-.85-5.77-.23-10.96.55-4.63 2.51-.4c.96 2.06 1.6 4.56 3.96 5.54 1.56.66 3.06-.58 3.78-1.85q1.34-2.35 2.87-4.73.69-1.06 1.53-.11Zm42.02-5.24c.23-4.57 3.87-7.02 8.16-4.74q3.11 1.65 6.12 3.03 1.81.84 3.13-.6c1.08-1.18.66-3.23-.05-4.47-4.65-8.12-23.76-7.56-24.52 3.67q-.38 5.77-.04 13.77c.4 9.25 10.95 11.46 18.07 9.42q5.58-1.6 6.99-7 .76-2.89-1.46-4.37a2.49 2.48 39.1 0 0-3.15.32c-1.78 1.78-3.6 3.62-5.88 4.76-3.15 1.57-6.59-.65-7.02-3.96q-.6-4.69-.35-9.83Zm-448.68 4.05q-.11 2.1-1.22.32-4.06-6.52-7.11-12.24c-2.07-3.87-4.71-4.72-8.8-3.92q-1.15.23-1.15 1.4l-.01 27.32q0 3.87 3.85 4.11l.28.02q3.86.25 3.79-3.61l-.24-12.39q-.06-3.27 1.63-.46 3.31 5.5 7.78 12.83 2.27 3.71 7.19 3.17 1.41-.15 1.43-1.56l.37-27.78q.04-3.21-3.16-3.01l-2.48.15q-2.83.17-2.54 3 .69 6.49.39 12.65Zm48.5 8.25c-1.78 1.59-6.31 3.29-4.26 6.57q.9 1.44 2.58 1.43 6.1 0 12.4.04a1.66 1.66 0 0 0 1.64-1.33q.88-4.39-3.09-5.87a1.97 1.96-80.2 0 1-1.27-1.81q-.07-6-.03-12.02c.02-2.38 1.85-4.22 3.41-5.79 1.7-1.73 1.49-4.97-1.44-5.08q-5.4-.2-11.26-.29-2.29-.03-2.8 1.97c-.62 2.39 2.49 5.15 4.1 6.57q.45.39.45 1l.07 13.5q0 .67-.5 1.11Zm64.7-1.78a2.03 2.03 0 0 1-.52 2.58c-5.55 4.38-9.61-4.8-15.1-4.25a2.05 2.04 84.8 0 0-1.83 2.2c.69 8.68 8.94 10.52 16.22 9.82q9.6-.92 9.41-10.75-.1-5.27-4.89-7.17-4.71-1.86-9.69-3.52-1.4-.46-2.22-1.6a1.83 1.83 0 0 1 .41-2.55 4.37 4.37 0 0 1 5.05-.24q3.54 1.98 7.21 3.09 3.57 1.09 3.46-2.64-.02-.46-.12-.91-.85-3.64-4.36-4.95c-6.87-2.55-18.98-3.4-20.05 6.57-.82 7.74 6.12 10.48 12.42 11.37a6.06 6.06 0 0 1 4.6 2.95Zm94.39-4.32q2.23 5.36 3.44 10.92c1.02 4.72 6.95 4.57 8.37.16q4.24-13.15 7.82-26.32.78-2.9-2.22-2.89l-2.29.01q-3.09.01-3.68 3.05-1.27 6.53-3.48 12.65a.48.47-66.1 0 1-.66.26q-.29-.15-.42-.45-2.18-4.96-2.85-10.26c-.41-3.24-2.42-5.91-6.1-5.15q-1.66.34-2.1 1.99-1.78 6.69-3.58 13.14-.82 2.9-1.73.03-1.99-6.23-3.61-12.84a2.48 2.47-7.5 0 0-2.47-1.89l-3.85.09q-2.56.07-1.79 2.51 4.05 12.75 7.84 25.71c1 3.42 7.48 5.17 8.41 1.33q1.53-6.37 3.83-12.04.55-1.36 1.12-.01Zm65.25 1.05a30.03 30.03 0 0 0 5.55 11.02 6.31 6.29 68.2 0 0 5.52 2.38q1.06-.1 2.02-.4 2.53-.78 1.07-2.99-2.03-3.07-4.74-5.94a2.13 2.12 45.3 0 1 .01-2.92c4.4-4.6 7.44-9.05 3.68-15.48-1.68-2.86-5.36-3.96-8.49-4.26q-6.29-.6-13.64-.51a2.23 2.23 0 0 0-2.21 2.22l-.05 27.61q-.01 2.32 2.31 2.32l3.58.02q1.49 0 1.49-1.49l-.01-21.5a2.24 2.23-1.1 0 1 2.16-2.23c2.68-.09 7.3-.62 8.66 2.37 1.72 3.75-1.62 5.27-4.7 6.14q-2.93.82-2.21 3.64Zm43.55-1.1q.19 6-.14 11.61-.16 2.68 2.52 2.56l2.79-.12q2.24-.1 2.22-2.34l-.15-28.4a1.29 1.29 0 0 0-1.07-1.26c-4.32-.76-7.31.46-8.87 4.54q-1.53 3.99-3.78 7.11-.63.87-1.74.08a1.57 1.5-88.8 0 1-.44-.48q-1.85-3-3.4-6.39c-1.73-3.77-4.73-5.97-8.99-4.57q-1.31.43-1.33 1.81l-.33 27.88q-.03 2.42 2.38 2.19l3.64-.34q2.63-.25 2.15-2.84-1.14-6.21-.36-11.96.06-.42.4-.67a.61.6-35.4 0 1 .85.14q1.64 2.28 2.69 4.62c1.34 3 4.57 3.64 6.49.68q1.36-2.1 2.75-4.31 1.62-2.57 1.72.46Zm25.28 4.23q.06-5.5.03-11.25c-.01-3.24 2.44-3.85 4.26-5.77 1.88-1.99.06-4.95-2.46-4.96q-5.17-.01-11.02-.36c-2.32-.14-3.87 1.99-2.85 4.14q.93 1.95 2.91 3 1.85.98 1.78 2.92l-.39 12.61a3.41 3.41 0 0 1-2.14 3.1c-2.25 1.05-2.89 3.67-1.78 5.79a1.28 1.27-13.3 0 0 1.09.67q5.67.09 12.31.02c2.24-.02 3.74-2.3 3.14-4.38q-.16-.54-.61-.88c-1.55-1.17-4.29-2.31-4.27-4.65Zm23.83-10.39 5.52 17.94q.93 3 4.05 2.69l2.46-.24q2.88-.29 1.92-3.02-3.97-11.32-8.31-22.77-.93-2.44-2.34-4.33c-3.35-4.48-8.06-1.37-9.6 2.7q-4.06 10.78-8.71 24.23-1.21 3.51 2.51 3.49l.66-.01q4.1-.02 5.08-4 2.1-8.48 4.53-14.47.5-1.24 1.25-2.36.64-.94.98.15Zm58.54 12.19c-1.59 1.59-4.51 3.45-4.41 5.93q.09 2.29 2.3 2.29 5.78.01 11.66.08 1.15.01 2.14-.42.48-.21.57-.72c.44-2.44-1.82-5.15-3.51-6.66a2.82 2.81 21.2 0 1-.94-2.12l.1-13.14q.01-.74.53-1.27l3.44-3.45a2.15 2.14 48.6 0 0 .17-2.82q-.79-1.01-2.14-1.09-4.43-.27-9.42-.68c-2.76-.24-4.98.79-4.54 4.11a2.77 2.76 13.2 0 0 1.21 1.95l2.56 1.71a2.16 2.15 16.9 0 1 .96 1.79l-.04 12.96a2.2 2.18 67.7 0 1-.64 1.55Zm65.86-11.22q-3.16.3-6.6-.13c-4.32-.54-3.07-6.61-2.64-9.29q.47-2.91-2.47-3.13l-2.41-.19q-3-.23-3 2.79v26.11q0 3.22 3.22 3.21h1.52q3.31-.01 3.26-3.31l-.12-7.01a2.5 2.5 0 0 1 2.63-2.53l6.18.31a2.19 2.19 0 0 1 2.07 2.3l-.36 7.08q-.17 3.29 3.12 3.38l1.57.04q2.99.08 2.99-2.92l-.03-26.09q-.01-3.23-3.23-3.24-.9-.01-1.74.18-3.41.73-2.72 4.15c.46 2.32.64 5.43-.38 7.68a1.04 1.03-80.3 0 1-.86.61Zm-513.47-9.83a2.76 2.76 0 0 0-2.75-2.77l-19.88-.06a2.76 2.76 0 0 0-2.77 2.75v1.4a2.76 2.76 0 0 0 2.75 2.77l19.88.06a2.76 2.76 0 0 0 2.77-2.75v-1.4Zm160.16 19.51c3.97.58 9.37.18 12.27-2.9 4.79-5.1 4.31-16.7-3.65-18.32q-7.16-1.46-16.12-.93a2.04 2.04 0 0 0-1.92 2.05l.03 26.92q0 2.93 2.9 3.33.89.12 1.8-.02 2.8-.43 2.92-3.27l.23-5.59a1.34 1.34 0 0 1 1.54-1.27Zm119.27-20.12a2.18 2.18 0 0 0-2.17-2.18l-20.3-.04a2.18 2.18 0 0 0-2.19 2.18v2.6a2.18 2.18 0 0 0 2.17 2.18l20.3.04a2.18 2.18 0 0 0 2.19-2.18v-2.6Zm279.62 21.18-.5-20.53q-.08-3.11-3.18-2.8l-.66.06q-3.22.32-3.21 3.56l.07 26.4a1.93 1.93 0 0 0 1.98 1.93q8.37-.21 17.36-.39 3.02-.06 4.01-3.09.13-.39.04-.78-.53-2.35-2.94-2.39l-11.13-.15q-1.79-.03-1.84-1.82Zm-18.83-.74q.16-5.83.21-12.08c.03-2.87 2.46-5.03 4.29-6.97a1.25 1.24 66.2 0 0 .34-.88q-.05-2.1-2.29-2.13l-10.53-.16c-3.08-.05-4.71 2.79-2.17 5.05q2.65 2.35 2.54 5.23-.19 4.66-.32 10.31c-.06 2.82-1.5 5.01-2.8 7.41q-.68 1.25-.28 2.46a1.62 1.62 0 0 0 1.64 1.1q5.35-.31 11.07-.36c3.08-.02 3.14-2.77 1.44-4.56q-1.41-1.48-2.75-3.21a1.91 1.86-63.5 0 1-.39-1.21Zm62.34-19.87a2.24 2.24 0 0 0-2.26-2.23l-20.26.1a2.24 2.24 0 0 0-2.22 2.25v1.48a2.24 2.24 0 0 0 2.26 2.23l20.26-.1a2.24 2.24 0 0 0 2.22-2.25v-1.48Zm-623.12 9.91a2.2 2.2 0 0 0-2.2 2.05l-.15 2.35a2.2 2.2 0 0 0 2.25 2.34l16.15-.39a2.2 2.2 0 0 0 2.12-2.53l-.3-1.96a2.2 2.2 0 0 0-2.18-1.86H90.66Zm297.56 1.86a2.01 2.01 0 0 0-2.03-1.99l-16.12.2a2.01 2.01 0 0 0-1.99 2.03l.04 2.66a2.01 2.01 0 0 0 2.03 1.99l16.12-.2a2.01 2.01 0 0 0 1.99-2.03l-.04-2.66Zm323.38.56a2.24 2.24 0 0 0-2.23-2.25l-15.6-.06a2.24 2.24 0 0 0-2.25 2.24v1.7a2.24 2.24 0 0 0 2.23 2.24l15.6.06a2.24 2.24 0 0 0 2.25-2.23v-1.7Zm-320.99 12.14a2.34 2.34 0 0 0-2.33-2.34l-20.18-.04a2.34 2.34 0 0 0-2.35 2.34v2.44a2.34 2.34 0 0 0 2.33 2.34l20.18.04a2.34 2.34 0 0 0 2.35-2.34v-2.44Zm-279.54-.51a1.69 1.69 0 0 0-1.69-1.69H87.62a1.69 1.69 0 0 0-1.69 1.69v3.68a1.69 1.69 0 0 0 1.69 1.69h21.76a1.69 1.69 0 0 0 1.69-1.69v-3.68Zm602.94 1.88a3.04 3.04 0 0 0-3-3.07l-18.69-.2a3.04 3.04 0 0 0-3.07 3.01v.2a3.04 3.04 0 0 0 3 3.07l18.69.2a3.04 3.04 0 0 0 3.07-3.01v-.2Zm-364.3 17.82a.78.78 0 0 0-1.49-.33l-1.47 3.14a.78.78 0 0 0-.07.28l-.92 15.21a.78.78 0 0 0 .75.83l2.32.07a.78.78 0 0 0 .8-.77l.08-18.43Zm70.71 14.49c4.05.03 9.69.74 10.29-4.86.78-7.24-7.33-7.9-12.72-7.01-1.55.26-2.68 1.41-2.68 3.01q-.02 6.06-.01 12.17a1.16 1.15 11.6 0 0 .7 1.06q.7.29 1.26.05a3.22 3.09 84.1 0 0 1.81-2.33q.13-.74.38-1.42a1.02 1.02 0 0 1 .97-.67Zm33.2-3.72a9.23 8.43-2.2 0 0-9.55-8.07 9.23 8.43-2.2 0 0-8.9 8.77 9.23 8.43-2.2 0 0 9.54 8.07 9.23 8.43-2.2 0 0 8.9-8.77Zm32.85-3.41.22-.42q.99-1.93 3.15-1.77l6.23.49q1.52.12 1.6-1.4l.01-.27q.05-1.08-1.02-1.11l-12.13-.33a1.72 1.72 0 0 0-1.77 1.66q-.2 6.42-.28 12.54-.03 2.07 1.96 2.48 6.61 1.38 13.22-.29a.96.95-14.8 0 0 .69-1.18l-.09-.35q-.3-1.08-1.42-1l-7.97.63q-2.29.18-2.63-2.09l-.1-.69q-.39-2.59 2.22-2.47l5.23.22q1.13.05 1.57-.99.08-.21.09-.43.05-1.15-1.1-1.06-3.95.32-6.55-.02-2.09-.27-1.13-2.15Zm21.02 7.89a2 2 0 0 1 2.14-1.41c3.98.46 3.79 2.68 5.94 5.11a1.65 1.58 76.5 0 0 .78.5q.98.28 1.63-.13a1.21 1.21 0 0 0 .36-1.69c-1.48-2.28-.79-4.22.29-6.38 1.28-2.55.94-5.71-1.6-7.33-2.84-1.81-7.97-1.4-11.12-1.09a2.47 2.47 0 0 0-2.22 2.52q.13 5.24-.36 10.46c-.11 1.21.45 2.32 1.64 2.75a1.4 1.4 0 0 0 1.81-.92l.71-2.39Zm-222.48-9.35q1.28-1.4 8.5-.1a1.48 1.47-79.3 0 0 1.71-1.17l.06-.31q.21-1.09-.9-1.23-3.65-.45-8.54-.27c-1.89.07-4.86.22-4.98 2.73q-.26 5.44-.02 10.05c.17 3.37 3.54 3.96 6.26 3.96q3.79.01 7.17-.1a1.39 1.38-72.5 0 0 1.07-.56q.64-.9.29-1.59-.51-1.02-1.65-.95c-2.84.19-6.05 1.22-8.5-.32-1.98-1.23-1.62-3.28-.54-4.99a1.15 1.15 0 0 0-.01-1.25q-1.46-2.22.08-3.9Zm107.72 9.43c-2.86 4.07-9.08 1.3-12.63-.73a.44.44 0 0 0-.61.19l-.18.37a.86.86 0 0 0 .24 1.06q7.73 6.14 15.22 1.79 1.8-1.04 2.77-2.81.31-.55.08-1.15c-1.26-3.32-8.21-4.06-11.11-4.24q-1.9-.12-2.58-1.95-.22-.6.16-1.12c2.55-3.49 8.76-.85 11.88.72a.48.48 0 0 0 .67-.27l.11-.35a1.27 1.27 0 0 0-.52-1.49q-7.16-4.58-14.05-.91c-4.81 2.57-1.55 6.8 2.39 7.11 2.52.2 7.13.3 8.25 2.98q.17.43-.09.8Zm73.82-2.79c3.32-.3 3.84 1.89 5.18 4.06q1.08 1.75 2.67.9a1.52 1.51-7.3 0 0 .76-.98l2.86-11.82q.34-1.38-1.02-1.79l-.45-.14q-1.83-.56-2.29 1.29l-1.08 4.34a1.35 1.35 0 0 1-2 .84l-2.45-1.43a.95.94 43.5 0 0-1 .02l-1.96 1.29a1.82 1.81 65.2 0 1-2.73-1.01q-.45-1.52-1.02-3-.67-1.73-2.41-1.91-.24-.02-.47.08-1.19.51-.8 1.75 1.7 5.43 3.42 11.58c.29 1.02 1.29 1.61 2.28 1.07a1.21 1.19-7.5 0 0 .58-.74l1.01-3.64q.2-.7.92-.76Zm-133.67-1.35a1.22 1.22 0 0 1-2.12.06l-4.62-7.57q-.65-1.07-1.71-.41l-.23.14q-1.27.78-.57 2.11 3.19 6.01 6.3 11.6 1.14 2.06 3.15.36a2.22 2.16-7.3 0 0 .5-.63l6.55-12.39q.56-1.07-.64-1.25-.55-.08-1.1.09-1.56.49-2.33 1.94l-3.18 5.95Zm42.3-.84a7.4 7.4 0 0 0-7.55-7.24l-3.02.06a7.4 7.4 0 0 0-7.24 7.56l.03 1.34a7.4 7.4 0 0 0 7.55 7.24l3.02-.06a7.4 7.4 0 0 0 7.24-7.56l-.03-1.34Zm-69.32 2.11q.07-1.82 1.73-1.08 4.19 1.88 6.77 5.82 1.08 1.65 2.96 1.28a.84.83 84 0 0 .68-.85l-.41-12.97a1.34 1.34 0 0 0-1.06-1.27l-.26-.06q-1.42-.3-1.46 1.16-.06 2.56-.16 5.52-.03.9-.72 1.4a1.18 1.17-42.6 0 1-1.45-.06l-8.22-7.02q-2.63-2.25-2.17 1.18.79 5.81-.08 11.78-.21 1.41 1.21 1.56l.56.06q1.8.19 1.88-1.61l.2-4.84Zm-12.8-.98v-1.28a.28.28 0 0 0-.28-.28l-1.46-.01a3.94.78.2 0 0-3.94.77v.28a3.94.78.2 0 0 3.94.79l1.46.01a.28.28 0 0 0 .28-.28Z"/><path d="M381.99 223.4q-30.07 7.23-59.47-2.44-.53-.17-.79.32-6.14 11.53-12.33 22.93a5.78 5.78 0 0 1-4.48 3.09q-7.56.95-14.4 2.03a5.15 5.15 0 0 1-5.94-5.84q2.34-17.59 4.51-33.5.1-.74-.6-1.01-3-1.13-5.89-1.98c-5.93-1.76-10.11-5.87-9.64-12.46.35-4.85 4.09-8.68 8.66-10.03q.46-.13.21-.54-10.5-16.97-21.8-35.69c-2.33-3.86.24-7.01 4.11-7.98q10.48-2.63 20.01-5.36a4.48 4.46 55.4 0 1 3.89.72l45.8 34.34q.46.35 1.01.2l33.92-9.1q.85-.23.12-.72-19.04-12.73-39.08-26.2c-3.97-2.67-2.54-7.87 1.84-9.04q16.27-4.33 31.76-8.59a1.75 1.75 0 0 1 1.05.03l72.82 25.79q.72.25 1.45-.01 3.42-1.22 7.27-2.01a4.95 4.95 0 0 1 2.28 9.62l-162.21 43.6c-1.2.32-2.36.42-3.2 1.43a1.1 1.1 0 0 0 .48 1.75l11.12 3.9q.47.16.94.03 16.11-4.25 32.8-8.81c3.74-1.02 7.52 3.3 5.67 6.83q-3.27 6.22-6.99 12.88-.21.37.19.49 30.13 9.09 60.15-.31a1.37 1.33 2.2 0 0 .83-.75c1.27-2.95 2.23-6.52 5.72-7.51q29.01-8.2 61.53-17.66 3.24-.95 4.68-.53 3.7 1.06 3.53 5.13-.02.61.56.45 34.61-9.48 70.65-19.29c6.51-1.78 8.49-9.17 6.31-14.95a1.3 1.28 73.9 0 0-1.45-.81q-4.14.83-8.62 2.19-14.25 4.32-26.03 7.41c-6.93 1.82-13.93-2.01-15.7-8.96a12 12 0 0 1 5.27-13.19.46.45 35.8 0 0-.14-.83q-8.42-2.01-17.07-.26-1.56.32-2.96-.54c-2.85-1.73-3.76-5-1.36-7.66q1.42-1.57 3.93-1.9 11.66-1.55 20.02.74 4.99 1.36 9.83 2.26 12 2.23 26.23 4.76 11.11 1.98 15.94 10.41c5.44 9.51 3.19 21.32-5.54 27.9q-2.81 2.12-7.59 3.4-38.06 10.25-79.38 21.74-.67.19-1.06.77-27.57 40.94-56.32 83.92c-.98 1.47-2.41 2.13-4.22 2.45q-18.86 3.36-38.57 6.94-1.32.24-2.96-.97-3.54-2.61-1.63-6.73 15.23-33 30.55-66.02a.19.19 0 0 0-.22-.27Zm.2-66.06a.33.33 0 0 0 .26.04l37.52-10a.33.33 0 0 0 .02-.63l-56.39-19.88a.33.33 0 0 0-.2 0l-18.56 4.88a.33.33 0 0 0-.1.6l37.45 24.99Zm-90.28 24.14a.36.36 0 0 0 .4.16l29.25-7.84a.36.36 0 0 0 .13-.63l-37.24-27.91a.36.36 0 0 0-.31-.06l-11.91 3.22a.36.36 0 0 0-.21.54l19.89 32.52Zm235.03-32.73c-3.12-.61-6.31-.79-9.46-1.48q-2.41-.53-5.23.26l-10.97 3.07q-1.99.56-2.62 2.88-.11.45.17.81 1.74 2.23 4.18 1.59 12.21-3.23 23.95-6.4 1.54-.42-.02-.73Zm-80.32 50.48a.31.31 0 0 0-.35-.47l-47.87 13.85a.31.31 0 0 0-.2.17l-33.54 72.51a.31.31 0 0 0 .34.43l26.74-4.81a.31.31 0 0 0 .2-.13l54.68-81.55Zm-127.4 5.83a.32.32 0 0 0-.36-.46l-19.59 5.38a.32.32 0 0 0-.23.27l-3.77 27.99a.32.32 0 0 0 .36.36l5.83-.87a.32.32 0 0 0 .24-.16l17.52-32.51Z"/><path fill="#00ee02" d="m382.19 157.34-37.45-24.99a.33.33 0 0 1 .1-.6l18.56-4.88a.33.33 0 0 1 .2 0l56.39 19.88a.33.33 0 0 1-.02.63l-37.52 10a.33.33 0 0 1-.26-.04Z"/><ellipse transform="rotate(-13.4 831.75 -1896.01)" rx="5.52" ry="5.02"/><path fill="#00ee02" d="m291.91 181.48-19.89-32.52a.36.36 0 0 1 .21-.54l11.91-3.22a.36.36 0 0 1 .31.06l37.24 27.91a.36.36 0 0 1-.13.63l-29.25 7.84a.36.36 0 0 1-.4-.16ZM517.48 147.27c3.15.69 6.34.87 9.46 1.48q1.56.31.02.73-11.74 3.17-23.95 6.4-2.44.64-4.18-1.59-.28-.36-.17-.81.63-2.32 2.62-2.88l10.97-3.07q2.82-.79 5.23-.26Z"/><rect x="-4.95" y="-8.33" transform="rotate(-15.3 854.63 -1643.63)" width="9.9" height="16.66" rx="4.68"/><rect x="-4.96" y="-8.33" transform="rotate(-16 835.34 -1500.09)" width="9.92" height="16.66" rx="4.69"/><rect x="-4.96" y="-8.35" transform="rotate(-15.7 855.79 -1462.57)" width="9.92" height="16.7" rx="4.69"/><rect x="-4.98" y="-8.35" transform="rotate(-16.1 847.77 -1356.9)" width="9.96" height="16.7" rx="4.71"/><rect x="-4.97" y="-8.33" transform="rotate(-15.8 868.61 -1316.92)" width="9.94" height="16.66" rx="4.69"/><rect x="-4.97" y="-8.32" transform="rotate(-16.1 864.12 -1223.66)" width="9.94" height="16.64" rx="4.7"/><rect x="-4.97" y="-8.32" transform="rotate(-15.5 899.55 -1206.35)" width="9.94" height="16.64" rx="4.69"/><path fill="#00ee02" d="m446.62 199.23-54.68 81.55a.31.31 0 0 1-.2.13L365 285.72a.31.31 0 0 1-.34-.43l33.54-72.51a.31.31 0 0 1 .2-.17l47.87-13.85a.31.31 0 0 1 .35.47ZM319.22 205.06l-17.52 32.51a.32.32 0 0 1-.24.16l-5.83.87a.32.32 0 0 1-.36-.36l3.77-27.99a.32.32 0 0 1 .23-.27l19.59-5.38a.32.32 0 0 1 .36.46Z"/><path d="m162.54 346.82 4.43-15.78q1.06-3.78 4.99-3.8l.72-.01q3.76-.02 2.56 3.55-3.81 11.25-8.81 25.03-1.96 5.42-7.61 3.87-1.43-.4-1.92-1.8-4.67-13.55-9.72-27.03-1.4-3.73 2.58-3.73h1.23q4.04.01 4.9 3.95 1.74 8.02 5.21 15.85.86 1.95 1.44-.1ZM226.36 349.14a10.85 10.85 0 0 1-10.89 10.82l-4.12-.02a10.85 10.85 0 0 1-10.8-10.89l.03-11.12a10.85 10.85 0 0 1 10.89-10.8h4.12a10.85 10.85 0 0 1 10.8 10.9l-.03 11.12Zm-7.51-10.56a4.95 4.95 0 0 0-4.93-4.98h-1.02a4.95 4.95 0 0 0-4.97 4.92l-.06 9.84a4.95 4.95 0 0 0 4.93 4.98h1.02a4.95 4.95 0 0 0 4.97-4.92l.06-9.84ZM317.41 349.14a10.87 10.87 0 0 1-10.94 10.8l-4.08-.03a10.87 10.87 0 0 1-10.8-10.95l.08-11.04a10.87 10.87 0 0 1 10.94-10.8l4.08.03a10.87 10.87 0 0 1 10.8 10.95l-.08 11.04Zm-7.36-10.69a4.82 4.82 0 0 0-4.8-4.84h-1.6a4.82 4.82 0 0 0-4.84 4.8l-.04 10.02a4.82 4.82 0 0 0 4.8 4.84h1.6a4.82 4.82 0 0 0 4.84-4.8l.04-10.02ZM541.45 344.41q-.84-.95-1.53.11-1.53 2.38-2.87 4.73c-.72 1.27-2.22 2.51-3.78 1.85-2.36-.98-3-3.48-3.96-5.54q-1.96-4.23-2.51.4-.62 5.19.23 10.96.42 2.88-2.49 2.84l-3.01-.04q-3.11-.05-2.98-3.16.56-13.48-.06-27.32a1.42 1.42 0 0 1 .87-1.37c5.29-2.24 8.42.46 10.52 5.17q1.46 3.27 3.43 6.08a.9.9 0 0 0 1.42.06q2.33-2.77 3.54-6.11c1.45-4.01 4.32-6.6 8.96-5.69a1.99 1.99 0 0 1 1.6 1.95l.03 27.72q0 2.54-2.54 2.65-1.08.04-2.15-.19-3.12-.66-2.9-3.85.34-5.09.34-10.83 0-.24-.16-.42ZM583.47 339.17q-.25 5.14.35 9.83c.43 3.31 3.87 5.53 7.02 3.96 2.28-1.14 4.1-2.98 5.88-4.76a2.49 2.48 39.1 0 1 3.15-.32q2.22 1.48 1.46 4.37-1.41 5.4-6.99 7c-7.12 2.04-17.67-.17-18.07-9.42q-.34-8 .04-13.77c.76-11.23 19.87-11.79 24.52-3.67.71 1.24 1.13 3.29.05 4.47q-1.32 1.44-3.13.6-3.01-1.38-6.12-3.03c-4.29-2.28-7.93.17-8.16 4.74ZM134.79 343.22q.3-6.16-.39-12.65-.29-2.83 2.54-3l2.48-.15q3.2-.2 3.16 3.01l-.37 27.78q-.02 1.41-1.43 1.56-4.92.54-7.19-3.17-4.47-7.33-7.78-12.83-1.69-2.81-1.63.46l.24 12.39q.07 3.86-3.79 3.61l-.28-.02q-3.85-.24-3.85-4.11l.01-27.32q0-1.17 1.15-1.4c4.09-.8 6.73.05 8.8 3.92q3.05 5.72 7.11 12.24 1.11 1.78 1.22-.32ZM183.79 350.36l-.07-13.5q0-.61-.45-1c-1.61-1.42-4.72-4.18-4.1-6.57q.51-2 2.8-1.97 5.86.09 11.26.29c2.93.11 3.14 3.35 1.44 5.08-1.56 1.57-3.39 3.41-3.41 5.79q-.04 6.02.03 12.02a1.97 1.96-80.2 0 0 1.27 1.81q3.97 1.48 3.09 5.87a1.66 1.66 0 0 1-1.64 1.33q-6.3-.04-12.4-.04-1.68.01-2.58-1.43c-2.05-3.28 2.48-4.98 4.26-6.57q.5-.44.5-1.11ZM247.99 349.69a6.06 6.06 0 0 0-4.6-2.95c-6.3-.89-13.24-3.63-12.42-11.37 1.07-9.97 13.18-9.12 20.05-6.57q3.51 1.31 4.36 4.95.1.45.12.91.11 3.73-3.46 2.64-3.67-1.11-7.21-3.09a4.37 4.37 0 0 0-5.05.24 1.83 1.83 0 0 0-.41 2.55q.82 1.14 2.22 1.6 4.98 1.66 9.69 3.52 4.79 1.9 4.89 7.17.19 9.83-9.41 10.75c-7.28.7-15.53-1.14-16.22-9.82a2.05 2.04 84.8 0 1 1.83-2.2c5.49-.55 9.55 8.63 15.1 4.25a2.03 2.03 0 0 0 .52-2.58ZM342.38 345.37q-.57-1.35-1.12.01-2.3 5.67-3.83 12.04c-.93 3.84-7.41 2.09-8.41-1.33q-3.79-12.96-7.84-25.71-.77-2.44 1.79-2.51l3.85-.09a2.48 2.47-7.5 0 1 2.47 1.89q1.62 6.61 3.61 12.84.91 2.87 1.73-.03 1.8-6.45 3.58-13.14.44-1.65 2.1-1.99c3.68-.76 5.69 1.91 6.1 5.15q.67 5.3 2.85 10.26.13.3.42.45a.48.47-66.1 0 0 .66-.26q2.21-6.12 3.48-12.65.59-3.04 3.68-3.05l2.29-.01q3-.01 2.22 2.89-3.58 13.17-7.82 26.32c-1.42 4.41-7.35 4.56-8.37-.16q-1.21-5.56-3.44-10.92ZM413.18 357.44a30.03 30.03 0 0 1-5.55-11.02q-.72-2.82 2.21-3.64c3.08-.87 6.42-2.39 4.7-6.14-1.36-2.99-5.98-2.46-8.66-2.37a2.24 2.23-1.1 0 0-2.16 2.23l.01 21.5q0 1.49-1.49 1.49l-3.58-.02q-2.32 0-2.31-2.32l.05-27.61a2.23 2.23 0 0 1 2.21-2.22q7.35-.09 13.64.51c3.13.3 6.81 1.4 8.49 4.26 3.76 6.43.72 10.88-3.68 15.48a2.13 2.12 45.3 0 0-.01 2.92q2.71 2.87 4.74 5.94 1.46 2.21-1.07 2.99-.96.3-2.02.4a6.31 6.29 68.2 0 1-5.52-2.38ZM451.18 345.32q-.1-3.03-1.72-.46-1.39 2.21-2.75 4.31c-1.92 2.96-5.15 2.32-6.49-.68q-1.05-2.34-2.69-4.62a.61.6-35.4 0 0-.85-.14q-.34.25-.4.67-.78 5.75.36 11.96.48 2.59-2.15 2.84l-3.64.34q-2.41.23-2.38-2.19l.33-27.88q.02-1.38 1.33-1.81c4.26-1.4 7.26.8 8.99 4.57q1.55 3.39 3.4 6.39a1.57 1.5-88.8 0 0 .44.48q1.11.79 1.74-.08 2.25-3.12 3.78-7.11c1.56-4.08 4.55-5.3 8.87-4.54a1.29 1.29 0 0 1 1.07 1.26l.15 28.4q.02 2.24-2.22 2.34l-2.79.12q-2.68.12-2.52-2.56.33-5.61.14-11.61ZM476.46 349.55c-.02 2.34 2.72 3.48 4.27 4.65q.45.34.61.88c.6 2.08-.9 4.36-3.14 4.38q-6.64.07-12.31-.02a1.28 1.27-13.3 0 1-1.09-.67c-1.11-2.12-.47-4.74 1.78-5.79a3.41 3.41 0 0 0 2.14-3.1l.39-12.61q.07-1.94-1.78-2.92-1.98-1.05-2.91-3c-1.02-2.15.53-4.28 2.85-4.14q5.85.35 11.02.36c2.52.01 4.34 2.97 2.46 4.96-1.82 1.92-4.27 2.53-4.26 5.77q.03 5.75-.03 11.25ZM500.29 339.16q-.34-1.09-.98-.15-.75 1.12-1.25 2.36-2.43 5.99-4.53 14.47-.98 3.98-5.08 4l-.66.01q-3.72.02-2.51-3.49 4.65-13.45 8.71-24.23c1.54-4.07 6.25-7.18 9.6-2.7q1.41 1.89 2.34 4.33 4.34 11.45 8.31 22.77.96 2.73-1.92 3.02l-2.46.24q-3.12.31-4.05-2.69l-5.52-17.94ZM558.83 351.35a2.2 2.18 67.7 0 0 .64-1.55l.04-12.96a2.16 2.15 16.9 0 0-.96-1.79l-2.56-1.71a2.77 2.76 13.2 0 1-1.21-1.95c-.44-3.32 1.78-4.35 4.54-4.11q4.99.41 9.42.68 1.35.08 2.14 1.09a2.15 2.14 48.6 0 1-.17 2.82l-3.44 3.45q-.52.53-.53 1.27l-.1 13.14a2.82 2.81 21.2 0 0 .94 2.12c1.69 1.51 3.95 4.22 3.51 6.66q-.09.51-.57.72-.99.43-2.14.42-5.88-.07-11.66-.08-2.21 0-2.3-2.29c-.1-2.48 2.82-4.34 4.41-5.93ZM625.55 339.52c1.02-2.25.84-5.36.38-7.68q-.69-3.42 2.72-4.15.84-.19 1.74-.18 3.22.01 3.23 3.24l.03 26.09q0 3-2.99 2.92l-1.57-.04q-3.29-.09-3.12-3.38l.36-7.08a2.19 2.19 0 0 0-2.07-2.3l-6.18-.31a2.5 2.5 0 0 0-2.63 2.53l.12 7.01q.05 3.3-3.26 3.31h-1.52q-3.22.01-3.22-3.21v-26.11q0-3.02 3-2.79l2.41.19q2.94.22 2.47 3.13c-.43 2.68-1.68 8.75 2.64 9.29q3.44.43 6.6.13a1.04 1.03-80.3 0 0 .86-.61Z"/><rect x="-12.7" y="-3.46" transform="rotate(.2 -94763.7 28389.35)" width="25.4" height="6.92" rx="2.76"/><path d="M271.38 349.81a1.34 1.34 0 0 0-1.54 1.27l-.23 5.59q-.12 2.84-2.92 3.27-.91.14-1.8.02-2.9-.4-2.9-3.33l-.03-26.92a2.04 2.04 0 0 1 1.92-2.05q8.96-.53 16.12.93c7.96 1.62 8.44 13.22 3.65 18.32-2.9 3.08-8.3 3.48-12.27 2.9Zm-1.94-13.6-.08 5.16a2.06 2.06 0 0 0 2.03 2.09l2.61.04a5.71 4.4.9 0 0 5.78-4.31v-.48a5.71 4.4.9 0 0-5.64-4.49l-2.61-.04a2.06 2.06 0 0 0-2.09 2.03Z"/><rect x="-12.33" y="-3.48" transform="rotate(.1 -189442.63 216926.82)" width="24.66" height="6.96" rx="2.18"/><path d="M670.27 350.87q.05 1.79 1.84 1.82l11.13.15q2.41.04 2.94 2.39.09.39-.04.78-.99 3.03-4.01 3.09-8.99.18-17.36.39a1.93 1.93 0 0 1-1.98-1.93l-.07-26.4q-.01-3.24 3.21-3.56l.66-.06q3.1-.31 3.18 2.8l.5 20.53ZM651.83 351.34q1.34 1.73 2.75 3.21c1.7 1.79 1.64 4.54-1.44 4.56q-5.72.05-11.07.36a1.62 1.62 0 0 1-1.64-1.1q-.4-1.21.28-2.46c1.3-2.4 2.74-4.59 2.8-7.41q.13-5.65.32-10.31.11-2.88-2.54-5.23c-2.54-2.26-.91-5.1 2.17-5.05l10.53.16q2.24.03 2.29 2.13a1.25 1.24 66.2 0 1-.34.88c-1.83 1.94-4.26 4.1-4.29 6.97q-.05 6.25-.21 12.08a1.91 1.86-63.5 0 0 .39 1.21Z"/><rect x="-12.37" y="-2.98" transform="rotate(-.3 63578.36 -133793.6)" width="24.74" height="5.96" rx="2.24"/><rect fill="#00ee02" x="-5.46" y="-9.87" transform="rotate(.3 -65491.1 40920.4)" width="10.92" height="19.74" rx="4.95"/><rect fill="#00ee02" x="-5.62" y="-9.83" transform="rotate(.2 -98236 87378.67)" width="11.24" height="19.66" rx="4.82"/><path fill="#00ee02" d="M269.44 336.21a2.06 2.06 0 0 1 2.09-2.03l2.61.04a5.71 4.4.9 0 1 5.64 4.49v.48a5.71 4.4.9 0 1-5.78 4.31l-2.61-.04a2.06 2.06 0 0 1-2.03-2.09l.08-5.16Z"/><path d="M90.66 340.17h15.69a2.2 2.2 0 0 1 2.18 1.86l.3 1.96a2.2 2.2 0 0 1-2.12 2.53l-16.15.39a2.2 2.2 0 0 1-2.25-2.34l.15-2.35a2.2 2.2 0 0 1 2.2-2.05Z"/><rect x="-10.07" y="-3.34" transform="rotate(-.7 28302.96 -30781.51)" width="20.14" height="6.68" rx="2.01"/><rect x="-10.04" y="-3.09" transform="rotate(.2 -98025.97 201153.63)" width="20.08" height="6.18" rx="2.24"/><rect x="-12.43" y="-3.56" transform="rotate(.1 -203743.73 216859.09)" width="24.86" height="7.12" rx="2.34"/><rect x="85.93" y="352.53" width="25.14" height="7.06" rx="1.69"/><rect x="-12.38" y="-3.14" transform="rotate(.6 -33651.05 67178.15)" width="24.76" height="6.28" rx="3.04"/><path d="m349.71 373.92-.08 18.43a.78.78 0 0 1-.8.77l-2.32-.07a.78.78 0 0 1-.75-.83l.92-15.21a.78.78 0 0 1 .07-.28l1.47-3.14a.78.78 0 0 1 1.49.33ZM419.45 389.08q-.25.68-.38 1.42a3.22 3.09 84.1 0 1-1.81 2.33q-.56.24-1.26-.05a1.16 1.15 11.6 0 1-.7-1.06q-.01-6.11.01-12.17c0-1.6 1.13-2.75 2.68-3.01 5.39-.89 13.5-.23 12.72 7.01-.6 5.6-6.24 4.89-10.29 4.86a1.02 1.02 0 0 0-.97.67Zm5.96-4.02a2.14 2.14 0 0 0 1.8-2.09l.02-1.28a2.14 2.14 0 0 0-1.61-2.1l-3.85-.99a2.14 2.14 0 0 0-2.66 1.79l-.39 2.95a2.14 2.14 0 0 0 2.46 2.39l4.23-.67ZM453.61 384.69a9.23 8.43-2.2 0 1-8.9 8.77 9.23 8.43-2.2 0 1-9.54-8.07 9.23 8.43-2.2 0 1 8.9-8.77 9.23 8.43-2.2 0 1 9.54 8.07Zm-3.46.63a5.77 5.32 4.6 0 0-5.32-5.76 5.77 5.32 4.6 0 0-6.18 4.84 5.77 5.32 4.6 0 0 5.32 5.76 5.77 5.32 4.6 0 0 6.18-4.84ZM487.6 383.43q2.6.34 6.55.02 1.15-.09 1.1 1.06-.01.22-.09.43-.44 1.04-1.57.99l-5.23-.22q-2.61-.12-2.22 2.47l.1.69q.34 2.27 2.63 2.09l7.97-.63q1.12-.08 1.42 1l.09.35a.96.95-14.8 0 1-.69 1.18q-6.61 1.67-13.22.29-1.99-.41-1.96-2.48.08-6.12.28-12.54a1.72 1.72 0 0 1 1.77-1.66l12.13.33q1.07.03 1.02 1.11l-.01.27q-.08 1.52-1.6 1.4l-6.23-.49q-2.16-.16-3.15 1.77l-.22.42q-.96 1.88 1.13 2.15ZM507.49 389.17l-.71 2.39a1.4 1.4 0 0 1-1.81.92c-1.19-.43-1.75-1.54-1.64-2.75q.49-5.22.36-10.46a2.47 2.47 0 0 1 2.22-2.52c3.15-.31 8.28-.72 11.12 1.09 2.54 1.62 2.88 4.78 1.6 7.33-1.08 2.16-1.77 4.1-.29 6.38a1.21 1.21 0 0 1-.36 1.69q-.65.41-1.63.13a1.65 1.58 76.5 0 1-.78-.5c-2.15-2.43-1.96-4.65-5.94-5.11a2 2 0 0 0-2.14 1.41Zm8.26-6.82a2.94 2.94 0 0 0-2.83-3.05l-3.26-.12a2.94 2.94 0 0 0-3.05 2.83l-.02.5a2.94 2.94 0 0 0 2.83 3.05l3.26.12a2.94 2.94 0 0 0 3.05-2.83l.02-.5ZM285.01 379.82q-1.54 1.68-.08 3.9a1.15 1.15 0 0 1 .01 1.25c-1.08 1.71-1.44 3.76.54 4.99 2.45 1.54 5.66.51 8.5.32q1.14-.07 1.65.95.35.69-.29 1.59a1.39 1.38-72.5 0 1-1.07.56q-3.38.11-7.17.1c-2.72 0-6.09-.59-6.26-3.96q-.24-4.61.02-10.05c.12-2.51 3.09-2.66 4.98-2.73q4.89-.18 8.54.27 1.11.14.9 1.23l-.06.31a1.48 1.47-79.3 0 1-1.71 1.17q-7.22-1.3-8.5.1ZM392.82 388.45c-1.12-2.68-5.73-2.78-8.25-2.98-3.94-.31-7.2-4.54-2.39-7.11q6.89-3.67 14.05.91a1.27 1.27 0 0 1 .52 1.49l-.11.35a.48.48 0 0 1-.67.27c-3.12-1.57-9.33-4.21-11.88-.72q-.38.52-.16 1.12.68 1.83 2.58 1.95c2.9.18 9.85.92 11.11 4.24q.23.6-.08 1.15-.97 1.77-2.77 2.81-7.49 4.35-15.22-1.79a.86.86 0 0 1-.24-1.06l.18-.37a.44.44 0 0 1 .61-.19c3.55 2.03 9.77 4.8 12.63.73q.26-.37.09-.8ZM465.63 387.22l-1.01 3.64a1.21 1.19-7.5 0 1-.58.74c-.99.54-1.99-.05-2.28-1.07q-1.72-6.15-3.42-11.58-.39-1.24.8-1.75.23-.1.47-.08 1.74.18 2.41 1.91.57 1.48 1.02 3a1.82 1.81 65.2 0 0 2.73 1.01l1.96-1.29a.95.94 43.5 0 1 1-.02l2.45 1.43a1.35 1.35 0 0 0 2-.84l1.08-4.34q.46-1.85 2.29-1.29l.45.14q1.36.41 1.02 1.79l-2.86 11.82a1.52 1.51-7.3 0 1-.76.98q-1.59.85-2.67-.9c-1.34-2.17-1.86-4.36-5.18-4.06q-.72.06-.92.76ZM332.88 385.11l3.18-5.95q.77-1.45 2.33-1.94.55-.17 1.1-.09 1.2.18.64 1.25l-6.55 12.39a2.22 2.16-7.3 0 1-.5.63q-2.01 1.7-3.15-.36-3.11-5.59-6.3-11.6-.7-1.33.57-2.11l.23-.14q1.06-.66 1.71.41l4.62 7.57a1.22 1.22 0 0 0 2.12-.06ZM375.21 385.61a7.4 7.4 0 0 1-7.24 7.56l-3.02.06a7.4 7.4 0 0 1-7.55-7.24l-.03-1.34a7.4 7.4 0 0 1 7.24-7.56l3.02-.06a7.4 7.4 0 0 1 7.55 7.24l.03 1.34Zm-3.16-.48a5.84 5.12 1.5 0 0-5.7-5.27 5.84 5.12 1.5 0 0-5.98 4.97 5.84 5.12 1.5 0 0 5.7 5.27 5.84 5.12 1.5 0 0 5.98-4.97ZM305.86 386.38l-.2 4.84q-.08 1.8-1.88 1.61l-.56-.06q-1.42-.15-1.21-1.56.87-5.97.08-11.78-.46-3.43 2.17-1.18l8.22 7.02a1.18 1.17-42.6 0 0 1.45.06q.69-.5.72-1.4.1-2.96.16-5.52.04-1.46 1.46-1.16l.26.06a1.34 1.34 0 0 1 1.06 1.27l.41 12.97a.84.83 84 0 1-.68.85q-1.88.37-2.96-1.28-2.58-3.94-6.77-5.82-1.66-.74-1.73 1.08Z"/><path fill="#00ee02" d="m425.41 385.06-4.23.67a2.14 2.14 0 0 1-2.46-2.39l.39-2.95a2.14 2.14 0 0 1 2.66-1.79l3.85.99a2.14 2.14 0 0 1 1.61 2.1l-.02 1.28a2.14 2.14 0 0 1-1.8 2.09Z"/><rect fill="#00ee02" x="-4.57" y="-3.19" transform="rotate(2.1 -10177.35 14136.26)" width="9.14" height="6.38" rx="2.94"/><ellipse fill="#00ee02" transform="rotate(4.6 -4568.89 5724.73)" rx="5.77" ry="5.32"/><ellipse fill="#00ee02" transform="rotate(1.5 -14521.2 14179.88)" rx="5.84" ry="5.12"/><path d="M293.06 385.4a.28.28 0 0 1-.28.28l-1.46-.01a3.94.78.2 0 1-3.94-.79v-.28a3.94.78.2 0 1 3.94-.77l1.46.01a.28.28 0 0 1 .28.28v1.28Z"/><path fill="#00ee02" d="M385.89 592.44a.77.77 0 0 0-.25-.92q-2.11-1.57-4.23-3.12c-3.26-2.4-6.88-4.34-10.11-6.71-7.66-5.64-16.06-10.65-24.07-15.63q-.97-.61-.44-1.62.32-.62.91-1 69.42-45.05 156.87-104.39.39-.27.86-.25a.77.77 0 0 1 .53 1.29c-30.38 33.18-60.62 69.24-91.79 103.36a1.68 1.68 0 0 0 .32 2.54l37.63 24.5a2.52 2.4 85 0 1 .42.37q1.23 1.4-.09 2.07-22.17 11.3-44.3 22.49-8.6 4.35-17.91 8.85-36.63 17.69-90.42 45.1-1.99 1.01-4.78 2.04-.31.12-.54-.12-.04-.04-.06-.1-.06-.23.11-.38 45.28-38.72 90.58-77.42.55-.47.76-.95Z"/></svg>