<?xml version="1.0" encoding="UTF-8" standalone="no"?>
<!DOCTYPE svg PUBLIC "-//W3C//DTD SVG 1.1//EN" "http://www.w3.org/Graphics/SVG/1.1/DTD/svg11.dtd">
<svg xmlns="http://www.w3.org/2000/svg" version="1.1" viewBox="0.00 0.00 800.00 982.00">
<g stroke-width="2.00" fill="none" stroke-linecap="butt">
<path stroke="#017a0d" vector-effect="non-scaling-stroke" d="
  M 733.26 609.07
  Q 763.29 534.36 774.52 452.21
  Q 775.89 442.18 777.12 432.33
  Q 779.88 410.36 781.00 389.52
  Q 783.02 352.02 780.88 312.01
  Q 779.81 291.95 778.30 272.00
  Q 777.31 258.87 775.72 246.38
  Q 768.34 188.34 753.06 130.00
  Q 748.08 110.99 731.20 101.37
  Q 674.60 69.10 612.43 48.44
  Q 603.08 45.33 593.39 42.69
  Q 554.30 32.04 514.18 26.10
  Q 505.09 24.75 494.30 23.75
  Q 457.73 20.35 420.49 18.44
  Q 409.54 17.88 400.50 17.83
  C 376.29 17.69 352.91 19.75 328.83 21.97
  Q 261.09 28.21 197.58 47.80
  Q 131.98 68.03 71.48 99.88
  C 60.79 105.51 51.89 114.27 48.59 125.77
  C 34.80 173.97 26.54 223.82 21.66 273.79
  Q 15.08 341.13 19.81 399.74
  Q 22.02 427.20 23.30 437.07
  Q 29.20 482.54 41.22 529.98
  Q 50.17 565.29 66.16 606.45
  Q 90.60 669.36 124.88 721.24
  C 142.18 747.41 160.46 772.70 178.96 793.74
  Q 198.82 816.33 205.64 823.45
  Q 228.78 847.62 259.02 873.11
  Q 306.47 913.12 360.55 946.66
  Q 375.81 956.13 382.56 959.44
  Q 402.50 969.22 422.11 957.35
  Q 443.84 944.20 462.33 931.08
  Q 470.50 925.29 478.86 919.39
  Q 547.03 871.22 603.66 810.45
  C 658.45 751.65 703.46 683.20 733.26 609.07"
/>
<path stroke="#017a0d" vector-effect="non-scaling-stroke" d="
  M 382.92 30.10
  Q 336.80 31.44 291.67 38.70
  Q 275.17 41.35 249.28 46.97
  Q 244.73 47.96 240.41 49.15
  C 233.10 51.16 225.51 52.64 218.54 54.73
  C 210.30 57.19 201.80 59.15 193.59 62.00
  C 183.40 65.54 172.84 68.76 163.10 72.42
  Q 149.04 77.71 135.00 83.06
  C 132.97 83.83 130.76 85.51 128.40 86.43
  Q 118.16 90.45 108.12 95.53
  C 104.97 97.12 101.72 98.16 98.57 99.72
  Q 87.48 105.20 76.12 111.09
  C 68.73 114.92 64.06 120.22 61.04 127.88
  Q 59.07 132.89 58.09 136.71
  Q 32.02 238.57 30.09 338.75
  Q 29.35 377.31 33.66 421.08
  C 33.87 423.20 33.62 425.09 36.44 425.09
  Q 401.01 425.13 764.78 425.06
  A 1.45 1.44 2.8 0 0 766.22 423.76
  C 768.51 399.38 770.67 373.41 770.59 349.13
  Q 770.44 304.50 765.44 260.89
  C 763.33 242.46 760.31 223.66 757.25 205.62
  Q 751.79 173.40 742.31 137.51
  C 739.82 128.09 736.70 120.97 729.37 115.21
  Q 723.19 110.36 716.96 106.99
  Q 706.26 101.19 694.64 95.24
  C 687.43 91.55 679.62 88.63 672.50 85.03
  C 667.41 82.46 662.05 80.55 656.79 78.20
  Q 650.81 75.52 644.90 73.26
  Q 603.88 57.63 561.28 47.06
  Q 552.09 44.78 541.67 42.90
  Q 513.12 37.73 490.38 35.57
  C 473.61 33.98 455.70 31.80 438.30 30.90
  Q 408.61 29.35 382.92 30.10"
/>
<path stroke="#017a0d" vector-effect="non-scaling-stroke" d="
  M 385.89 592.44
  Q 385.68 592.92 385.13 593.39
  Q 339.83 632.09 294.55 670.81
  Q 294.38 670.96 294.44 671.19
  Q 294.46 671.25 294.50 671.29
  Q 294.73 671.53 295.04 671.41
  Q 297.83 670.38 299.82 669.37
  Q 353.61 641.96 390.24 624.27
  Q 399.55 619.77 408.15 615.42
  Q 430.28 604.23 452.45 592.93
  Q 453.77 592.26 452.54 590.86
  A 2.52 2.40 85.0 0 0 452.12 590.49
  L 414.49 565.99
  A 1.68 1.68 0.0 0 1 414.17 563.45
  C 445.34 529.33 475.58 493.27 505.96 460.09
  A 0.77 0.77 0.0 0 0 505.43 458.80
  Q 504.96 458.78 504.57 459.05
  Q 417.12 518.39 347.70 563.44
  Q 347.11 563.82 346.79 564.44
  Q 346.26 565.45 347.23 566.06
  C 355.24 571.04 363.64 576.05 371.30 581.69
  C 374.53 584.06 378.15 586.00 381.41 588.40
  Q 383.53 589.95 385.64 591.52
  A 0.77 0.77 0.0 0 1 385.89 592.44"
/>
<path stroke="#007701" vector-effect="non-scaling-stroke" d="
  M 381.99 223.40
  A 0.19 0.19 0.0 0 1 382.21 223.67
  Q 366.89 256.69 351.66 289.69
  Q 349.75 293.81 353.29 296.42
  Q 354.93 297.63 356.25 297.39
  Q 375.96 293.81 394.82 290.45
  C 396.63 290.13 398.06 289.47 399.04 288.00
  Q 427.79 245.02 455.36 204.08
  Q 455.75 203.50 456.42 203.31
  Q 497.74 191.82 535.80 181.57
  Q 540.58 180.29 543.39 178.17
  C 552.12 171.59 554.37 159.78 548.93 150.27
  Q 544.10 141.84 532.99 139.86
  Q 518.76 137.33 506.76 135.10
  Q 501.92 134.20 496.93 132.84
  Q 488.57 130.55 476.91 132.10
  Q 474.40 132.43 472.98 134.00
  C 470.58 136.66 471.49 139.93 474.34 141.66
  Q 475.74 142.52 477.30 142.20
  Q 485.95 140.45 494.37 142.46
  A 0.46 0.45 35.8 0 1 494.51 143.29
  C 490.05 146.04 487.95 151.41 489.24 156.48
  C 491.01 163.43 498.01 167.26 504.94 165.44
  Q 516.72 162.35 530.97 158.03
  Q 535.45 156.67 539.59 155.84
  A 1.30 1.28 73.9 0 1 541.04 156.65
  C 543.22 162.43 541.24 169.82 534.73 171.60
  Q 498.69 181.41 464.08 190.89
  Q 463.50 191.05 463.52 190.44
  Q 463.69 186.37 459.99 185.31
  Q 458.55 184.89 455.31 185.84
  Q 422.79 195.30 393.78 203.50
  C 390.29 204.49 389.33 208.06 388.06 211.01
  A 1.37 1.33 2.2 0 1 387.23 211.76
  Q 357.21 221.16 327.08 212.07
  Q 326.68 211.95 326.89 211.58
  Q 330.61 204.92 333.88 198.70
  C 335.73 195.17 331.95 190.85 328.21 191.87
  Q 311.52 196.43 295.41 200.68
  Q 294.94 200.81 294.47 200.65
  L 283.35 196.75
  A 1.10 1.10 0.0 0 1 282.87 195.00
  C 283.71 193.99 284.87 193.89 286.07 193.57
  Q 366.76 171.89 448.28 149.97
  C 454.95 148.17 452.90 138.94 446.00 140.35
  Q 442.15 141.14 438.73 142.36
  Q 438.00 142.62 437.28 142.37
  L 364.46 116.58
  A 1.75 1.75 0.0 0 0 363.41 116.55
  Q 347.92 120.81 331.65 125.14
  C 327.27 126.31 325.84 131.51 329.81 134.18
  Q 349.85 147.65 368.89 160.38
  Q 369.62 160.87 368.77 161.10
  L 334.85 170.20
  Q 334.30 170.35 333.84 170.00
  L 288.04 135.66
  A 4.48 4.46 55.4 0 0 284.15 134.94
  Q 274.62 137.67 264.14 140.30
  C 260.27 141.27 257.70 144.42 260.03 148.28
  Q 271.33 167.00 281.83 183.97
  Q 282.08 184.38 281.62 184.51
  C 277.05 185.86 273.31 189.69 272.96 194.54
  C 272.49 201.13 276.67 205.24 282.60 207.00
  Q 285.49 207.85 288.49 208.98
  Q 289.19 209.25 289.09 209.99
  Q 286.92 225.90 284.58 243.49
  C 284.11 247.02 287.06 249.88 290.52 249.33
  Q 297.36 248.25 304.92 247.30
  C 306.91 247.05 308.46 245.94 309.40 244.21
  Q 315.59 232.81 321.73 221.28
  Q 321.99 220.79 322.52 220.96
  Q 351.92 230.63 381.99 223.40"
/>
<path stroke="#007701" vector-effect="non-scaling-stroke" d="
  M 467.4097 139.8608
  A 5.52 5.02 -13.4 0 0 460.8766 136.2567
  A 5.52 5.02 -13.4 0 0 456.6703 142.4192
  A 5.52 5.02 -13.4 0 0 463.2034 146.0233
  A 5.52 5.02 -13.4 0 0 467.4097 139.8608"
/>
<path stroke="#007701" vector-effect="non-scaling-stroke" d="
  M 467.8114 162.4332
  A 4.68 4.68 0.0 0 0 462.0624 159.1540
  L 461.5415 159.2965
  A 4.68 4.68 0.0 0 0 458.2623 165.0455
  L 460.1886 172.0868
  A 4.68 4.68 0.0 0 0 465.9376 175.3660
  L 466.4585 175.2235
  A 4.68 4.68 0.0 0 0 469.7377 169.4745
  L 467.8114 162.4332"
/>
<path stroke="#007701" vector-effect="non-scaling-stroke" d="
  M 449.6045 167.2738
  A 4.69 4.69 0.0 0 0 443.8035 164.0583
  L 443.2844 164.2071
  A 4.69 4.69 0.0 0 0 440.0688 170.0082
  L 442.0755 177.0062
  A 4.69 4.69 0.0 0 0 447.8765 180.2217
  L 448.3956 180.0729
  A 4.69 4.69 0.0 0 0 451.6112 174.2718
  L 449.6045 167.2738"
/>
<path stroke="#007701" vector-effect="non-scaling-stroke" d="
  M 431.4846 172.1444
  A 4.69 4.69 0.0 0 0 425.7004 168.8985
  L 425.1806 169.0446
  A 4.69 4.69 0.0 0 0 421.9347 174.8287
  L 423.9154 181.8756
  A 4.69 4.69 0.0 0 0 429.6996 185.1215
  L 430.2194 184.9754
  A 4.69 4.69 0.0 0 0 433.4653 179.1913
  L 431.4846 172.1444"
/>
<path stroke="#007701" vector-effect="non-scaling-stroke" d="
  M 413.3153 177.0017
  A 4.71 4.71 0.0 0 0 407.4838 173.7826
  L 406.9650 173.9324
  A 4.71 4.71 0.0 0 0 403.7459 179.7638
  L 405.7647 186.7583
  A 4.71 4.71 0.0 0 0 411.5962 189.9774
  L 412.1150 189.8276
  A 4.71 4.71 0.0 0 0 415.3341 183.9962
  L 413.3153 177.0017"
/>
<path stroke="#007701" vector-effect="non-scaling-stroke" d="
  M 395.1811 181.8943
  A 4.69 4.69 0.0 0 0 389.3913 178.6585
  L 388.8525 178.8110
  A 4.69 4.69 0.0 0 0 385.6167 184.6008
  L 387.5989 191.6057
  A 4.69 4.69 0.0 0 0 393.3887 194.8415
  L 393.9275 194.6890
  A 4.69 4.69 0.0 0 0 397.1633 188.8992
  L 395.1811 181.8943"
/>
<path stroke="#007701" vector-effect="non-scaling-stroke" d="
  M 377.0012 186.7837
  A 4.70 4.70 0.0 0 0 371.1822 183.5714
  L 370.6633 183.7212
  A 4.70 4.70 0.0 0 0 367.4510 189.5402
  L 369.4588 196.4963
  A 4.70 4.70 0.0 0 0 375.2778 199.7086
  L 375.7967 199.5588
  A 4.70 4.70 0.0 0 0 379.0090 193.7398
  L 377.0012 186.7837"
/>
<path stroke="#007701" vector-effect="non-scaling-stroke" d="
  M 358.9192 191.6938
  A 4.69 4.69 0.0 0 0 353.1464 188.4278
  L 352.6068 188.5774
  A 4.69 4.69 0.0 0 0 349.3407 194.3502
  L 351.2808 201.3462
  A 4.69 4.69 0.0 0 0 357.0536 204.6122
  L 357.5932 204.4626
  A 4.69 4.69 0.0 0 0 360.8593 198.6898
  L 358.9192 191.6938"
/>
<path stroke="#007701" vector-effect="non-scaling-stroke" d="
  M 162.54 346.82
  Q 161.96 348.87 161.10 346.92
  Q 157.63 339.09 155.89 331.07
  Q 155.03 327.13 150.99 327.12
  L 149.76 327.12
  Q 145.78 327.12 147.18 330.85
  Q 152.23 344.33 156.90 357.88
  Q 157.39 359.28 158.82 359.68
  Q 164.47 361.23 166.43 355.81
  Q 171.43 342.03 175.24 330.78
  Q 176.44 327.21 172.68 327.23
  L 171.96 327.24
  Q 168.03 327.26 166.97 331.04
  L 162.54 346.82"
/>
<path stroke="#007701" vector-effect="non-scaling-stroke" d="
  M 226.3993 338.0251
  A 10.85 10.85 0.0 0 0 215.5873 327.1373
  L 211.4673 327.1229
  A 10.85 10.85 0.0 0 0 200.5795 337.9350
  L 200.5407 349.0549
  A 10.85 10.85 0.0 0 0 211.3527 359.9427
  L 215.4727 359.9571
  A 10.85 10.85 0.0 0 0 226.3605 349.1450
  L 226.3993 338.0251"
/>
<path stroke="#007701" vector-effect="non-scaling-stroke" d="
  M 317.4882 338.1003
  A 10.87 10.87 0.0 0 0 306.6944 327.1546
  L 302.6145 327.1262
  A 10.87 10.87 0.0 0 0 291.6689 337.9200
  L 291.5918 348.9597
  A 10.87 10.87 0.0 0 0 302.3856 359.9054
  L 306.4655 359.9338
  A 10.87 10.87 0.0 0 0 317.4111 349.1400
  L 317.4882 338.1003"
/>
<path stroke="#007701" vector-effect="non-scaling-stroke" d="
  M 541.45 344.41
  Q 541.61 344.59 541.61 344.83
  Q 541.61 350.57 541.27 355.66
  Q 541.05 358.85 544.17 359.51
  Q 545.24 359.74 546.32 359.70
  Q 548.86 359.59 548.86 357.05
  L 548.83 329.33
  A 1.99 1.99 0.0 0 0 547.23 327.38
  C 542.59 326.47 539.72 329.06 538.27 333.07
  Q 537.06 336.41 534.73 339.18
  A 0.90 0.90 0.0 0 1 533.31 339.12
  Q 531.34 336.31 529.88 333.04
  C 527.78 328.33 524.65 325.63 519.36 327.87
  A 1.42 1.42 0.0 0 0 518.49 329.24
  Q 519.11 343.08 518.55 356.56
  Q 518.42 359.67 521.53 359.72
  L 524.54 359.76
  Q 527.45 359.80 527.03 356.92
  Q 526.18 351.15 526.80 345.96
  Q 527.35 341.33 529.31 345.56
  C 530.27 347.62 530.91 350.12 533.27 351.10
  C 534.83 351.76 536.33 350.52 537.05 349.25
  Q 538.39 346.90 539.92 344.52
  Q 540.61 343.46 541.45 344.41"
/>
<path stroke="#007701" vector-effect="non-scaling-stroke" d="
  M 583.47 339.17
  C 583.70 334.60 587.34 332.15 591.63 334.43
  Q 594.74 336.08 597.75 337.46
  Q 599.56 338.30 600.88 336.86
  C 601.96 335.68 601.54 333.63 600.83 332.39
  C 596.18 324.27 577.07 324.83 576.31 336.06
  Q 575.93 341.83 576.27 349.83
  C 576.67 359.08 587.22 361.29 594.34 359.25
  Q 599.92 357.65 601.33 352.25
  Q 602.09 349.36 599.87 347.88
  A 2.49 2.48 39.1 0 0 596.72 348.20
  C 594.94 349.98 593.12 351.82 590.84 352.96
  C 587.69 354.53 584.25 352.31 583.82 349.00
  Q 583.22 344.31 583.47 339.17"
/>
<path stroke="#007701" vector-effect="non-scaling-stroke" d="
  M 134.79 343.22
  Q 134.68 345.32 133.57 343.54
  Q 129.51 337.02 126.46 331.30
  C 124.39 327.43 121.75 326.58 117.66 327.38
  Q 116.51 327.61 116.51 328.78
  L 116.50 356.10
  Q 116.50 359.97 120.35 360.21
  L 120.63 360.23
  Q 124.49 360.48 124.42 356.62
  L 124.18 344.23
  Q 124.12 340.96 125.81 343.77
  Q 129.12 349.27 133.59 356.60
  Q 135.86 360.31 140.78 359.77
  Q 142.19 359.62 142.21 358.21
  L 142.58 330.43
  Q 142.62 327.22 139.42 327.42
  L 136.94 327.57
  Q 134.11 327.74 134.40 330.57
  Q 135.09 337.06 134.79 343.22"
/>
<path stroke="#007701" vector-effect="non-scaling-stroke" d="
  M 183.29 351.47
  C 181.51 353.06 176.98 354.76 179.03 358.04
  Q 179.93 359.48 181.61 359.47
  Q 187.71 359.47 194.01 359.51
  A 1.66 1.66 0.0 0 0 195.65 358.18
  Q 196.53 353.79 192.56 352.31
  A 1.97 1.96 -80.2 0 1 191.29 350.50
  Q 191.22 344.50 191.26 338.48
  C 191.28 336.10 193.11 334.26 194.67 332.69
  C 196.37 330.96 196.16 327.72 193.23 327.61
  Q 187.83 327.41 181.97 327.32
  Q 179.68 327.29 179.17 329.29
  C 178.55 331.68 181.66 334.44 183.27 335.86
  Q 183.72 336.25 183.72 336.86
  L 183.79 350.36
  Q 183.79 351.03 183.29 351.47"
/>
<path stroke="#007701" vector-effect="non-scaling-stroke" d="
  M 247.99 349.69
  A 2.03 2.03 0.0 0 1 247.47 352.27
  C 241.92 356.65 237.86 347.47 232.37 348.02
  A 2.05 2.04 84.8 0 0 230.54 350.22
  C 231.23 358.90 239.48 360.74 246.76 360.04
  Q 256.36 359.12 256.17 349.29
  Q 256.07 344.02 251.28 342.12
  Q 246.57 340.26 241.59 338.60
  Q 240.19 338.14 239.37 337.00
  A 1.83 1.83 0.0 0 1 239.78 334.45
  C 241.44 333.26 243.12 333.25 244.83 334.21
  Q 248.37 336.19 252.04 337.30
  Q 255.61 338.39 255.50 334.66
  Q 255.48 334.20 255.38 333.75
  Q 254.53 330.11 251.02 328.80
  C 244.15 326.25 232.04 325.40 230.97 335.37
  C 230.15 343.11 237.09 345.85 243.39 346.74
  C 245.29 347.01 247.03 347.96 247.99 349.69"
/>
<path stroke="#007701" vector-effect="non-scaling-stroke" d="
  M 342.38 345.37
  Q 344.61 350.73 345.82 356.29
  C 346.84 361.01 352.77 360.86 354.19 356.45
  Q 358.43 343.30 362.01 330.13
  Q 362.79 327.23 359.79 327.24
  L 357.50 327.25
  Q 354.41 327.26 353.82 330.30
  Q 352.55 336.83 350.34 342.95
  A 0.48 0.47 -66.1 0 1 349.68 343.21
  Q 349.39 343.06 349.26 342.76
  Q 347.08 337.80 346.41 332.50
  C 346.00 329.26 343.99 326.59 340.31 327.35
  Q 338.65 327.69 338.21 329.34
  Q 336.43 336.03 334.63 342.48
  Q 333.81 345.38 332.90 342.51
  Q 330.91 336.28 329.29 329.67
  A 2.48 2.47 -7.5 0 0 326.82 327.78
  L 322.97 327.87
  Q 320.41 327.94 321.18 330.38
  Q 325.23 343.13 329.02 356.09
  C 330.02 359.51 336.50 361.26 337.43 357.42
  Q 338.96 351.05 341.26 345.38
  Q 341.81 344.02 342.38 345.37"
/>
<path stroke="#007701" vector-effect="non-scaling-stroke" d="
  M 407.63 346.42
  C 408.66 350.41 410.61 354.19 413.18 357.44
  A 6.31 6.29 68.2 0 0 418.70 359.82
  Q 419.76 359.72 420.72 359.42
  Q 423.25 358.64 421.79 356.43
  Q 419.76 353.36 417.05 350.49
  A 2.13 2.12 45.3 0 1 417.06 347.57
  C 421.46 342.97 424.50 338.52 420.74 332.09
  C 419.06 329.23 415.38 328.13 412.25 327.83
  Q 405.96 327.23 398.61 327.32
  A 2.23 2.23 0.0 0 0 396.40 329.54
  L 396.35 357.15
  Q 396.34 359.47 398.66 359.47
  L 402.24 359.49
  Q 403.73 359.49 403.73 358.00
  L 403.72 336.50
  A 2.24 2.23 -1.1 0 1 405.88 334.27
  C 408.56 334.18 413.18 333.65 414.54 336.64
  C 416.26 340.39 412.92 341.91 409.84 342.78
  Q 406.91 343.60 407.63 346.42"
/>
<path stroke="#007701" vector-effect="non-scaling-stroke" d="
  M 451.18 345.32
  Q 451.37 351.32 451.04 356.93
  Q 450.88 359.61 453.56 359.49
  L 456.35 359.37
  Q 458.59 359.27 458.57 357.03
  L 458.42 328.63
  A 1.29 1.29 0.0 0 0 457.35 327.37
  C 453.03 326.61 450.04 327.83 448.48 331.91
  Q 446.95 335.90 444.70 339.02
  Q 444.07 339.89 442.96 339.10
  A 1.57 1.50 -88.8 0 1 442.52 338.62
  Q 440.67 335.62 439.12 332.23
  C 437.39 328.46 434.39 326.26 430.13 327.66
  Q 428.82 328.09 428.80 329.47
  L 428.47 357.35
  Q 428.44 359.77 430.85 359.54
  L 434.49 359.20
  Q 437.12 358.95 436.64 356.36
  Q 435.50 350.15 436.28 344.40
  Q 436.34 343.98 436.68 343.73
  A 0.61 0.60 -35.4 0 1 437.53 343.87
  Q 439.17 346.15 440.22 348.49
  C 441.56 351.49 444.79 352.13 446.71 349.17
  Q 448.07 347.07 449.46 344.86
  Q 451.08 342.29 451.18 345.32"
/>
<path stroke="#007701" vector-effect="non-scaling-stroke" d="
  M 476.46 349.55
  Q 476.52 344.05 476.49 338.30
  C 476.48 335.06 478.93 334.45 480.75 332.53
  C 482.63 330.54 480.81 327.58 478.29 327.57
  Q 473.12 327.56 467.27 327.21
  C 464.95 327.07 463.40 329.20 464.42 331.35
  Q 465.35 333.30 467.33 334.35
  Q 469.18 335.33 469.11 337.27
  Q 468.92 343.46 468.72 349.88
  C 468.68 351.32 467.87 352.39 466.58 352.98
  C 464.33 354.03 463.69 356.65 464.80 358.77
  A 1.28 1.27 -13.3 0 0 465.89 359.44
  Q 471.56 359.53 478.20 359.46
  C 480.44 359.44 481.94 357.16 481.34 355.08
  Q 481.18 354.54 480.73 354.20
  C 479.18 353.03 476.44 351.89 476.46 349.55"
/>
<path stroke="#007701" vector-effect="non-scaling-stroke" d="
  M 500.29 339.16
  L 505.81 357.10
  Q 506.74 360.10 509.86 359.79
  L 512.32 359.55
  Q 515.20 359.26 514.24 356.53
  Q 510.27 345.21 505.93 333.76
  Q 505.00 331.32 503.59 329.43
  C 500.24 324.95 495.53 328.06 493.99 332.13
  Q 489.93 342.91 485.28 356.36
  Q 484.07 359.87 487.79 359.85
  L 488.45 359.84
  Q 492.55 359.82 493.53 355.84
  Q 495.63 347.36 498.06 341.37
  Q 498.56 340.13 499.31 339.01
  Q 499.95 338.07 500.29 339.16"
/>
<path stroke="#007701" vector-effect="non-scaling-stroke" d="
  M 558.83 351.35
  C 557.24 352.94 554.32 354.80 554.42 357.28
  Q 554.51 359.57 556.72 359.57
  Q 562.50 359.58 568.38 359.65
  Q 569.53 359.66 570.52 359.23
  Q 571.00 359.02 571.09 358.51
  C 571.53 356.07 569.27 353.36 567.58 351.85
  A 2.82 2.81 21.2 0 1 566.64 349.73
  L 566.74 336.59
  Q 566.75 335.85 567.27 335.32
  L 570.71 331.87
  A 2.15 2.14 48.6 0 0 570.88 329.05
  Q 570.09 328.04 568.74 327.96
  Q 564.31 327.69 559.32 327.28
  C 556.56 327.04 554.34 328.07 554.78 331.39
  A 2.77 2.76 13.2 0 0 555.99 333.34
  L 558.55 335.05
  A 2.16 2.15 16.9 0 1 559.51 336.84
  L 559.47 349.80
  A 2.20 2.18 67.7 0 1 558.83 351.35"
/>
<path stroke="#007701" vector-effect="non-scaling-stroke" d="
  M 624.69 340.13
  Q 621.53 340.43 618.09 340.00
  C 613.77 339.46 615.02 333.39 615.45 330.71
  Q 615.92 327.80 612.98 327.58
  L 610.57 327.39
  Q 607.57 327.16 607.57 330.18
  L 607.57 356.29
  Q 607.57 359.51 610.79 359.50
  L 612.31 359.50
  Q 615.62 359.49 615.57 356.19
  L 615.45 349.18
  A 2.50 2.50 0.0 0 1 618.08 346.65
  L 624.26 346.96
  A 2.19 2.19 0.0 0 1 626.33 349.26
  L 625.97 356.34
  Q 625.80 359.63 629.09 359.72
  L 630.66 359.76
  Q 633.65 359.84 633.65 356.84
  L 633.62 330.75
  Q 633.61 327.52 630.39 327.51
  Q 629.49 327.50 628.65 327.69
  Q 625.24 328.42 625.93 331.84
  C 626.39 334.16 626.57 337.27 625.55 339.52
  A 1.04 1.03 -80.3 0 1 624.69 340.13"
/>
<path stroke="#007701" vector-effect="non-scaling-stroke" d="
  M 111.2224 330.3043
  A 2.76 2.76 0.0 0 0 108.4720 327.5347
  L 88.5921 327.4653
  A 2.76 2.76 0.0 0 0 85.8225 330.2157
  L 85.8176 331.6157
  A 2.76 2.76 0.0 0 0 88.5680 334.3853
  L 108.4479 334.4547
  A 2.76 2.76 0.0 0 0 111.2175 331.7043
  L 111.2224 330.3043"
/>
<path stroke="#007701" vector-effect="non-scaling-stroke" d="
  M 271.38 349.81
  C 275.35 350.39 280.75 349.99 283.65 346.91
  C 288.44 341.81 287.96 330.21 280.00 328.59
  Q 272.84 327.13 263.88 327.66
  A 2.04 2.04 0.0 0 0 261.96 329.71
  L 261.99 356.63
  Q 261.99 359.56 264.89 359.96
  Q 265.78 360.08 266.69 359.94
  Q 269.49 359.51 269.61 356.67
  L 269.84 351.08
  A 1.34 1.34 0.0 0 1 271.38 349.81"
/>
<path stroke="#007701" vector-effect="non-scaling-stroke" d="
  M 390.6523 329.6915
  A 2.18 2.18 0.0 0 0 388.4761 327.5077
  L 368.1761 327.4723
  A 2.18 2.18 0.0 0 0 365.9923 329.6485
  L 365.9877 332.2485
  A 2.18 2.18 0.0 0 0 368.1639 334.4323
  L 388.4639 334.4677
  A 2.18 2.18 0.0 0 0 390.6477 332.2915
  L 390.6523 329.6915"
/>
<path stroke="#007701" vector-effect="non-scaling-stroke" d="
  M 670.27 350.87
  L 669.77 330.34
  Q 669.69 327.23 666.59 327.54
  L 665.93 327.60
  Q 662.71 327.92 662.72 331.16
  L 662.79 357.56
  A 1.93 1.93 0.0 0 0 664.77 359.49
  Q 673.14 359.28 682.13 359.10
  Q 685.15 359.04 686.14 356.01
  Q 686.27 355.62 686.18 355.23
  Q 685.65 352.88 683.24 352.84
  L 672.11 352.69
  Q 670.32 352.66 670.27 350.87"
/>
<path stroke="#007701" vector-effect="non-scaling-stroke" d="
  M 651.44 350.13
  Q 651.60 344.30 651.65 338.05
  C 651.68 335.18 654.11 333.02 655.94 331.08
  A 1.25 1.24 66.2 0 0 656.28 330.20
  Q 656.23 328.10 653.99 328.07
  Q 648.76 328.00 643.46 327.91
  C 640.38 327.86 638.75 330.70 641.29 332.96
  Q 643.94 335.31 643.83 338.19
  Q 643.64 342.85 643.51 348.50
  C 643.45 351.32 642.01 353.51 640.71 355.91
  Q 640.03 357.16 640.43 358.37
  A 1.62 1.62 0.0 0 0 642.07 359.47
  Q 647.42 359.16 653.14 359.11
  C 656.22 359.09 656.28 356.34 654.58 354.55
  Q 653.17 353.07 651.83 351.34
  A 1.91 1.86 -63.5 0 1 651.44 350.13"
/>
<path stroke="#007701" vector-effect="non-scaling-stroke" d="
  M 713.7760 330.2552
  A 2.24 2.24 0.0 0 0 711.5243 328.0270
  L 691.2645 328.1331
  A 2.24 2.24 0.0 0 0 689.0363 330.3848
  L 689.0440 331.8648
  A 2.24 2.24 0.0 0 0 691.2957 334.0930
  L 711.5555 333.9869
  A 2.24 2.24 0.0 0 0 713.7837 331.7352
  L 713.7760 330.2552"
/>
<path stroke="#007701" vector-effect="non-scaling-stroke" d="
  M 90.66 340.17
  A 2.20 2.20 0.0 0 0 88.46 342.22
  L 88.31 344.57
  A 2.20 2.20 0.0 0 0 90.56 346.91
  L 106.71 346.52
  A 2.20 2.20 0.0 0 0 108.83 343.99
  L 108.53 342.03
  A 2.20 2.20 0.0 0 0 106.35 340.17
  L 90.66 340.17"
/>
<path stroke="#007701" vector-effect="non-scaling-stroke" d="
  M 388.2230 342.0271
  A 2.01 2.01 0.0 0 0 386.1886 340.0418
  L 370.0698 340.2387
  A 2.01 2.01 0.0 0 0 368.0845 342.2731
  L 368.1170 344.9329
  A 2.01 2.01 0.0 0 0 370.1514 346.9182
  L 386.2702 346.7213
  A 2.01 2.01 0.0 0 0 388.2555 344.6869
  L 388.2230 342.0271"
/>
<path stroke="#007701" vector-effect="non-scaling-stroke" d="
  M 711.6029 342.5851
  A 2.24 2.24 0.0 0 0 709.3707 340.3372
  L 693.7708 340.2828
  A 2.24 2.24 0.0 0 0 691.5230 342.5150
  L 691.5171 344.2149
  A 2.24 2.24 0.0 0 0 693.7493 346.4628
  L 709.3492 346.5172
  A 2.24 2.24 0.0 0 0 711.5970 344.2850
  L 711.6029 342.5851"
/>
<path stroke="#007701" vector-effect="non-scaling-stroke" d="
  M 390.6121 354.7317
  A 2.34 2.34 0.0 0 0 388.2762 352.3876
  L 368.0962 352.3524
  A 2.34 2.34 0.0 0 0 365.7521 354.6883
  L 365.7479 357.1283
  A 2.34 2.34 0.0 0 0 368.0838 359.4724
  L 388.2638 359.5076
  A 2.34 2.34 0.0 0 0 390.6079 357.1717
  L 390.6121 354.7317"
/>
<path stroke="#007701" vector-effect="non-scaling-stroke" d="
  M 111.07 354.22
  A 1.69 1.69 0.0 0 0 109.38 352.53
  L 87.62 352.53
  A 1.69 1.69 0.0 0 0 85.93 354.22
  L 85.93 357.90
  A 1.69 1.69 0.0 0 0 87.62 359.59
  L 109.38 359.59
  A 1.69 1.69 0.0 0 0 111.07 357.90
  L 111.07 354.22"
/>
<path stroke="#007701" vector-effect="non-scaling-stroke" d="
  M 714.0104 356.0996
  A 3.04 3.04 0.0 0 0 711.0024 353.0280
  L 692.3234 352.8324
  A 3.04 3.04 0.0 0 0 689.2517 355.8404
  L 689.2496 356.0404
  A 3.04 3.04 0.0 0 0 692.2576 359.1120
  L 710.9366 359.3076
  A 3.04 3.04 0.0 0 0 714.0083 356.2996
  L 714.0104 356.0996"
/>
<path stroke="#007701" vector-effect="non-scaling-stroke" d="
  M 349.71 373.92
  A 0.78 0.78 0.0 0 0 348.22 373.59
  L 346.75 376.73
  A 0.78 0.78 0.0 0 0 346.68 377.01
  L 345.76 392.22
  A 0.78 0.78 0.0 0 0 346.51 393.05
  L 348.83 393.12
  A 0.78 0.78 0.0 0 0 349.63 392.35
  L 349.71 373.92"
/>
<path stroke="#007701" vector-effect="non-scaling-stroke" d="
  M 420.42 388.41
  C 424.47 388.44 430.11 389.15 430.71 383.55
  C 431.49 376.31 423.38 375.65 417.99 376.54
  C 416.44 376.80 415.31 377.95 415.31 379.55
  Q 415.29 385.61 415.30 391.72
  A 1.16 1.15 11.6 0 0 416.00 392.78
  Q 416.70 393.07 417.26 392.83
  A 3.22 3.09 84.1 0 0 419.07 390.50
  Q 419.20 389.76 419.45 389.08
  A 1.02 1.02 0.0 0 1 420.42 388.41"
/>
<path stroke="#007701" vector-effect="non-scaling-stroke" d="
  M 453.6132 384.6857
  A 9.23 8.43 -2.2 0 0 444.0664 376.6162
  A 9.23 8.43 -2.2 0 0 435.1668 385.3943
  A 9.23 8.43 -2.2 0 0 444.7136 393.4638
  A 9.23 8.43 -2.2 0 0 453.6132 384.6857"
/>
<path stroke="#007701" vector-effect="non-scaling-stroke" d="
  M 486.47 381.28
  Q 486.61 381.01 486.69 380.86
  Q 487.68 378.93 489.84 379.09
  L 496.07 379.58
  Q 497.59 379.70 497.67 378.18
  L 497.68 377.91
  Q 497.73 376.83 496.66 376.80
  L 484.53 376.47
  A 1.72 1.72 0.0 0 0 482.76 378.13
  Q 482.56 384.55 482.48 390.67
  Q 482.45 392.74 484.44 393.15
  Q 491.05 394.53 497.66 392.86
  A 0.96 0.95 -14.8 0 0 498.35 391.68
  L 498.26 391.33
  Q 497.96 390.25 496.84 390.33
  L 488.87 390.96
  Q 486.58 391.14 486.24 388.87
  L 486.14 388.18
  Q 485.75 385.59 488.36 385.71
  L 493.59 385.93
  Q 494.72 385.98 495.16 384.94
  Q 495.24 384.73 495.25 384.51
  Q 495.30 383.36 494.15 383.45
  Q 490.20 383.77 487.60 383.43
  Q 485.51 383.16 486.47 381.28"
/>
<path stroke="#007701" vector-effect="non-scaling-stroke" d="
  M 507.49 389.17
  A 2.00 2.00 0.0 0 1 509.63 387.76
  C 513.61 388.22 513.42 390.44 515.57 392.87
  A 1.65 1.58 76.5 0 0 516.35 393.37
  Q 517.33 393.65 517.98 393.24
  A 1.21 1.21 0.0 0 0 518.34 391.55
  C 516.86 389.27 517.55 387.33 518.63 385.17
  C 519.91 382.62 519.57 379.46 517.03 377.84
  C 514.19 376.03 509.06 376.44 505.91 376.75
  A 2.47 2.47 0.0 0 0 503.69 379.27
  Q 503.82 384.51 503.33 389.73
  C 503.22 390.94 503.78 392.05 504.97 392.48
  A 1.40 1.40 0.0 0 0 506.78 391.56
  L 507.49 389.17"
/>
<path stroke="#007701" vector-effect="non-scaling-stroke" d="
  M 285.01 379.82
  Q 286.29 378.42 293.51 379.72
  A 1.48 1.47 -79.3 0 0 295.22 378.55
  L 295.28 378.24
  Q 295.49 377.15 294.38 377.01
  Q 290.73 376.56 285.84 376.74
  C 283.95 376.81 280.98 376.96 280.86 379.47
  Q 280.60 384.91 280.84 389.52
  C 281.01 392.89 284.38 393.48 287.10 393.48
  Q 290.89 393.49 294.27 393.38
  A 1.39 1.38 -72.5 0 0 295.34 392.82
  Q 295.98 391.92 295.63 391.23
  Q 295.12 390.21 293.98 390.28
  C 291.14 390.47 287.93 391.50 285.48 389.96
  C 283.50 388.73 283.86 386.68 284.94 384.97
  A 1.15 1.15 0.0 0 0 284.93 383.72
  Q 283.47 381.50 285.01 379.82"
/>
<path stroke="#007701" vector-effect="non-scaling-stroke" d="
  M 392.73 389.25
  C 389.87 393.32 383.65 390.55 380.10 388.52
  A 0.44 0.44 0.0 0 0 379.49 388.71
  L 379.31 389.08
  A 0.86 0.86 0.0 0 0 379.55 390.14
  Q 387.28 396.28 394.77 391.93
  Q 396.57 390.89 397.54 389.12
  Q 397.85 388.57 397.62 387.97
  C 396.36 384.65 389.41 383.91 386.51 383.73
  Q 384.61 383.61 383.93 381.78
  Q 383.71 381.18 384.09 380.66
  C 386.64 377.17 392.85 379.81 395.97 381.38
  A 0.48 0.48 0.0 0 0 396.64 381.11
  L 396.75 380.76
  A 1.27 1.27 0.0 0 0 396.23 379.27
  Q 389.07 374.69 382.18 378.36
  C 377.37 380.93 380.63 385.16 384.57 385.47
  C 387.09 385.67 391.70 385.77 392.82 388.45
  Q 392.99 388.88 392.73 389.25"
/>
<path stroke="#007701" vector-effect="non-scaling-stroke" d="
  M 466.55 386.46
  C 469.87 386.16 470.39 388.35 471.73 390.52
  Q 472.81 392.27 474.40 391.42
  A 1.52 1.51 -7.3 0 0 475.16 390.44
  L 478.02 378.62
  Q 478.36 377.24 477.00 376.83
  L 476.55 376.69
  Q 474.72 376.13 474.26 377.98
  L 473.18 382.32
  A 1.35 1.35 0.0 0 1 471.18 383.16
  L 468.73 381.73
  A 0.95 0.94 43.5 0 0 467.73 381.75
  L 465.77 383.04
  A 1.82 1.81 65.2 0 1 463.04 382.03
  Q 462.59 380.51 462.02 379.03
  Q 461.35 377.30 459.61 377.12
  Q 459.37 377.10 459.14 377.20
  Q 457.95 377.71 458.34 378.95
  Q 460.04 384.38 461.76 390.53
  C 462.05 391.55 463.05 392.14 464.04 391.60
  A 1.21 1.19 -7.5 0 0 464.62 390.86
  L 465.63 387.22
  Q 465.83 386.52 466.55 386.46"
/>
<path stroke="#007701" vector-effect="non-scaling-stroke" d="
  M 332.88 385.11
  A 1.22 1.22 0.0 0 1 330.76 385.17
  L 326.14 377.60
  Q 325.49 376.53 324.43 377.19
  L 324.20 377.33
  Q 322.93 378.11 323.63 379.44
  Q 326.82 385.45 329.93 391.04
  Q 331.07 393.10 333.08 391.40
  A 2.22 2.16 -7.3 0 0 333.58 390.77
  L 340.13 378.38
  Q 340.69 377.31 339.49 377.13
  Q 338.94 377.05 338.39 377.22
  Q 336.83 377.71 336.06 379.16
  L 332.88 385.11"
/>
<path stroke="#007701" vector-effect="non-scaling-stroke" d="
  M 375.1840 384.2735
  A 7.40 7.40 0.0 0 0 367.6307 377.0301
  L 364.6113 377.0934
  A 7.40 7.40 0.0 0 0 357.3679 384.6467
  L 357.3960 385.9865
  A 7.40 7.40 0.0 0 0 364.9493 393.2299
  L 367.9687 393.1666
  A 7.40 7.40 0.0 0 0 375.2121 385.6133
  L 375.1840 384.2735"
/>
<path stroke="#007701" vector-effect="non-scaling-stroke" d="
  M 305.86 386.38
  Q 305.93 384.56 307.59 385.30
  Q 311.78 387.18 314.36 391.12
  Q 315.44 392.77 317.32 392.40
  A 0.84 0.83 84.0 0 0 318.00 391.55
  L 317.59 378.58
  A 1.34 1.34 0.0 0 0 316.53 377.31
  L 316.27 377.25
  Q 314.85 376.95 314.81 378.41
  Q 314.75 380.97 314.65 383.93
  Q 314.62 384.83 313.93 385.33
  A 1.18 1.17 -42.6 0 1 312.48 385.27
  L 304.26 378.25
  Q 301.63 376.00 302.09 379.43
  Q 302.88 385.24 302.01 391.21
  Q 301.80 392.62 303.22 392.77
  L 303.78 392.83
  Q 305.58 393.02 305.66 391.22
  L 305.86 386.38"
/>
<path stroke="#007701" vector-effect="non-scaling-stroke" d="
  M 293.06 385.40
  L 293.06 384.12
  A 0.28 0.28 0.0 0 0 292.78 383.84
  L 291.32 383.83
  A 3.94 0.78 0.2 0 0 287.38 384.60
  L 287.38 384.88
  A 3.94 0.78 0.2 0 0 291.32 385.67
  L 292.78 385.68
  A 0.28 0.28 0.0 0 0 293.06 385.40"
/>
<path stroke="#007701" vector-effect="non-scaling-stroke" d="
  M 382.19 157.34
  A 0.33 0.33 0.0 0 0 382.45 157.38
  L 419.97 147.38
  A 0.33 0.33 0.0 0 0 419.99 146.75
  L 363.60 126.87
  A 0.33 0.33 0.0 0 0 363.40 126.87
  L 344.84 131.75
  A 0.33 0.33 0.0 0 0 344.74 132.35
  L 382.19 157.34"
/>
<path stroke="#007701" vector-effect="non-scaling-stroke" d="
  M 291.91 181.48
  A 0.36 0.36 0.0 0 0 292.31 181.64
  L 321.56 173.80
  A 0.36 0.36 0.0 0 0 321.69 173.17
  L 284.45 145.26
  A 0.36 0.36 0.0 0 0 284.14 145.20
  L 272.23 148.42
  A 0.36 0.36 0.0 0 0 272.02 148.96
  L 291.91 181.48"
/>
<path stroke="#007701" vector-effect="non-scaling-stroke" d="
  M 526.94 148.75
  C 523.82 148.14 520.63 147.96 517.48 147.27
  Q 515.07 146.74 512.25 147.53
  Q 505.27 149.48 501.28 150.60
  Q 499.29 151.16 498.66 153.48
  Q 498.55 153.93 498.83 154.29
  Q 500.57 156.52 503.01 155.88
  Q 515.22 152.65 526.96 149.48
  Q 528.50 149.06 526.94 148.75"
/>
<path stroke="#007701" vector-effect="non-scaling-stroke" d="
  M 446.62 199.23
  A 0.31 0.31 0.0 0 0 446.27 198.76
  L 398.40 212.61
  A 0.31 0.31 0.0 0 0 398.20 212.78
  L 364.66 285.29
  A 0.31 0.31 0.0 0 0 365.00 285.72
  L 391.74 280.91
  A 0.31 0.31 0.0 0 0 391.94 280.78
  L 446.62 199.23"
/>
<path stroke="#007701" vector-effect="non-scaling-stroke" d="
  M 319.22 205.06
  A 0.32 0.32 0.0 0 0 318.86 204.60
  L 299.27 209.98
  A 0.32 0.32 0.0 0 0 299.04 210.25
  L 295.27 238.24
  A 0.32 0.32 0.0 0 0 295.63 238.60
  L 301.46 237.73
  A 0.32 0.32 0.0 0 0 301.70 237.57
  L 319.22 205.06"
/>
<path stroke="#007701" vector-effect="non-scaling-stroke" d="
  M 218.8457 338.5787
  A 4.95 4.95 0.0 0 0 213.9217 333.6028
  L 212.9017 333.5975
  A 4.95 4.95 0.0 0 0 207.9258 338.5215
  L 207.8743 348.3613
  A 4.95 4.95 0.0 0 0 212.7983 353.3372
  L 213.8183 353.3425
  A 4.95 4.95 0.0 0 0 218.7942 348.4185
  L 218.8457 338.5787"
/>
<path stroke="#007701" vector-effect="non-scaling-stroke" d="
  M 310.0475 338.4496
  A 4.82 4.82 0.0 0 0 305.2443 333.6129
  L 303.6443 333.6073
  A 4.82 4.82 0.0 0 0 298.8075 338.4104
  L 298.7725 348.4304
  A 4.82 4.82 0.0 0 0 303.5757 353.2671
  L 305.1757 353.2727
  A 4.82 4.82 0.0 0 0 310.0125 348.4696
  L 310.0475 338.4496"
/>
<path stroke="#007701" vector-effect="non-scaling-stroke" d="
  M 269.44 336.21
  L 269.36 341.37
  A 2.06 2.06 0.0 0 0 271.39 343.46
  L 274.00 343.50
  A 5.71 4.40 0.9 0 0 279.78 339.19
  L 279.78 338.71
  A 5.71 4.40 0.9 0 0 274.14 334.22
  L 271.53 334.18
  A 2.06 2.06 0.0 0 0 269.44 336.21"
/>
<path stroke="#007701" vector-effect="non-scaling-stroke" d="
  M 425.41 385.06
  A 2.14 2.14 0.0 0 0 427.21 382.97
  L 427.23 381.69
  A 2.14 2.14 0.0 0 0 425.62 379.59
  L 421.77 378.60
  A 2.14 2.14 0.0 0 0 419.11 380.39
  L 418.72 383.34
  A 2.14 2.14 0.0 0 0 421.18 385.73
  L 425.41 385.06"
/>
<path stroke="#007701" vector-effect="non-scaling-stroke" d="
  M 450.1514 385.3227
  A 5.77 5.32 4.6 0 0 444.8267 379.5571
  A 5.77 5.32 4.6 0 0 438.6486 384.3973
  A 5.77 5.32 4.6 0 0 443.9733 390.1629
  A 5.77 5.32 4.6 0 0 450.1514 385.3227"
/>
<path stroke="#007701" vector-effect="non-scaling-stroke" d="
  M 515.7461 382.3476
  A 2.94 2.94 0.0 0 0 512.9158 379.3019
  L 509.6580 379.1824
  A 2.94 2.94 0.0 0 0 506.6122 382.0127
  L 506.5939 382.5124
  A 2.94 2.94 0.0 0 0 509.4242 385.5581
  L 512.6820 385.6776
  A 2.94 2.94 0.0 0 0 515.7278 382.8473
  L 515.7461 382.3476"
/>
<path stroke="#007701" vector-effect="non-scaling-stroke" d="
  M 372.0480 385.1329
  A 5.84 5.12 1.5 0 0 366.3440 379.8618
  A 5.84 5.12 1.5 0 0 360.3720 384.8271
  A 5.84 5.12 1.5 0 0 366.0760 390.0982
  A 5.84 5.12 1.5 0 0 372.0480 385.1329"
/>
</g>
<path fill="#00ee02" d="
  M 739.33 639.62
  Q 721.21 680.25 694.52 721.88
  Q 676.31 750.29 658.62 773.07
  Q 639.48 797.71 613.17 825.98
  C 605.34 834.40 597.00 842.21 588.87 850.48
  Q 583.88 855.56 578.31 860.68
  Q 556.90 880.39 545.33 890.17
  Q 497.82 930.36 437.48 968.71
  Q 427.67 974.94 421.09 977.53
  Q 395.01 987.82 368.94 972.46
  Q 287.03 924.20 218.04 860.44
  Q 210.30 853.28 203.23 846.03
  Q 173.56 815.62 151.02 787.77
  Q 112.76 740.49 81.28 682.22
  Q 76.62 673.61 72.00 664.03
  C 13.77 543.34 -9.15 407.86 3.74 274.17
  Q 10.77 201.20 29.25 130.06
  Q 32.34 118.15 35.22 112.35
  Q 43.80 95.03 61.77 85.68
  C 82.97 74.64 105.19 63.37 127.76 54.26
  C 154.49 43.47 181.70 33.70 209.31 26.16
  C 256.40 13.30 304.40 5.79 353.04 1.92
  Q 396.10 -1.51 445.42 1.90
  Q 483.12 4.51 517.94 8.94
  Q 551.73 13.24 585.96 22.44
  Q 668.90 44.74 743.24 88.45
  C 757.77 96.99 766.51 111.76 770.73 128.31
  Q 778.66 159.46 785.02 193.34
  Q 800.28 274.76 799.64 355.76
  Q 799.58 364.58 799.02 374.44
  C 798.58 382.39 798.59 390.73 798.01 398.43
  Q 795.83 427.30 791.76 457.36
  Q 790.53 466.42 788.57 477.10
  Q 786.49 488.40 784.24 499.48
  Q 769.53 571.95 739.33 639.62
  Z
  M 733.26 609.07
  Q 763.29 534.36 774.52 452.21
  Q 775.89 442.18 777.12 432.33
  Q 779.88 410.36 781.00 389.52
  Q 783.02 352.02 780.88 312.01
  Q 779.81 291.95 778.30 272.00
  Q 777.31 258.87 775.72 246.38
  Q 768.34 188.34 753.06 130.00
  Q 748.08 110.99 731.20 101.37
  Q 674.60 69.10 612.43 48.44
  Q 603.08 45.33 593.39 42.69
  Q 554.30 32.04 514.18 26.10
  Q 505.09 24.75 494.30 23.75
  Q 457.73 20.35 420.49 18.44
  Q 409.54 17.88 400.50 17.83
  C 376.29 17.69 352.91 19.75 328.83 21.97
  Q 261.09 28.21 197.58 47.80
  Q 131.98 68.03 71.48 99.88
  C 60.79 105.51 51.89 114.27 48.59 125.77
  C 34.80 173.97 26.54 223.82 21.66 273.79
  Q 15.08 341.13 19.81 399.74
  Q 22.02 427.20 23.30 437.07
  Q 29.20 482.54 41.22 529.98
  Q 50.17 565.29 66.16 606.45
  Q 90.60 669.36 124.88 721.24
  C 142.18 747.41 160.46 772.70 178.96 793.74
  Q 198.82 816.33 205.64 823.45
  Q 228.78 847.62 259.02 873.11
  Q 306.47 913.12 360.55 946.66
  Q 375.81 956.13 382.56 959.44
  Q 402.50 969.22 422.11 957.35
  Q 443.84 944.20 462.33 931.08
  Q 470.50 925.29 478.86 919.39
  Q 547.03 871.22 603.66 810.45
  C 658.45 751.65 703.46 683.20 733.26 609.07
  Z"
/>
<path fill="#020518" d="
  M 733.26 609.07
  C 703.46 683.20 658.45 751.65 603.66 810.45
  Q 547.03 871.22 478.86 919.39
  Q 470.50 925.29 462.33 931.08
  Q 443.84 944.20 422.11 957.35
  Q 402.50 969.22 382.56 959.44
  Q 375.81 956.13 360.55 946.66
  Q 306.47 913.12 259.02 873.11
  Q 228.78 847.62 205.64 823.45
  Q 198.82 816.33 178.96 793.74
  C 160.46 772.70 142.18 747.41 124.88 721.24
  Q 90.60 669.36 66.16 606.45
  Q 50.17 565.29 41.22 529.98
  Q 29.20 482.54 23.30 437.07
  Q 22.02 427.20 19.81 399.74
  Q 15.08 341.13 21.66 273.79
  C 26.54 223.82 34.80 173.97 48.59 125.77
  C 51.89 114.27 60.79 105.51 71.48 99.88
  Q 131.98 68.03 197.58 47.80
  Q 261.09 28.21 328.83 21.97
  C 352.91 19.75 376.29 17.69 400.50 17.83
  Q 409.54 17.88 420.49 18.44
  Q 457.73 20.35 494.30 23.75
  Q 505.09 24.75 514.18 26.10
  Q 554.30 32.04 593.39 42.69
  Q 603.08 45.33 612.43 48.44
  Q 674.60 69.10 731.20 101.37
  Q 748.08 110.99 753.06 130.00
  Q 768.34 188.34 775.72 246.38
  Q 777.31 258.87 778.30 272.00
  Q 779.81 291.95 780.88 312.01
  Q 783.02 352.02 781.00 389.52
  Q 779.88 410.36 777.12 432.33
  Q 775.89 442.18 774.52 452.21
  Q 763.29 534.36 733.26 609.07
  Z
  M 382.92 30.10
  Q 336.80 31.44 291.67 38.70
  Q 275.17 41.35 249.28 46.97
  Q 244.73 47.96 240.41 49.15
  C 233.10 51.16 225.51 52.64 218.54 54.73
  C 210.30 57.19 201.80 59.15 193.59 62.00
  C 183.40 65.54 172.84 68.76 163.10 72.42
  Q 149.04 77.71 135.00 83.06
  C 132.97 83.83 130.76 85.51 128.40 86.43
  Q 118.16 90.45 108.12 95.53
  C 104.97 97.12 101.72 98.16 98.57 99.72
  Q 87.48 105.20 76.12 111.09
  C 68.73 114.92 64.06 120.22 61.04 127.88
  Q 59.07 132.89 58.09 136.71
  Q 32.02 238.57 30.09 338.75
  Q 29.35 377.31 33.66 421.08
  C 33.87 423.20 33.62 425.09 36.44 425.09
  Q 401.01 425.13 764.78 425.06
  A 1.45 1.44 2.8 0 0 766.22 423.76
  C 768.51 399.38 770.67 373.41 770.59 349.13
  Q 770.44 304.50 765.44 260.89
  C 763.33 242.46 760.31 223.66 757.25 205.62
  Q 751.79 173.40 742.31 137.51
  C 739.82 128.09 736.70 120.97 729.37 115.21
  Q 723.19 110.36 716.96 106.99
  Q 706.26 101.19 694.64 95.24
  C 687.43 91.55 679.62 88.63 672.50 85.03
  C 667.41 82.46 662.05 80.55 656.79 78.20
  Q 650.81 75.52 644.90 73.26
  Q 603.88 57.63 561.28 47.06
  Q 552.09 44.78 541.67 42.90
  Q 513.12 37.73 490.38 35.57
  C 473.61 33.98 455.70 31.80 438.30 30.90
  Q 408.61 29.35 382.92 30.10
  Z
  M 385.89 592.44
  Q 385.68 592.92 385.13 593.39
  Q 339.83 632.09 294.55 670.81
  Q 294.38 670.96 294.44 671.19
  Q 294.46 671.25 294.50 671.29
  Q 294.73 671.53 295.04 671.41
  Q 297.83 670.38 299.82 669.37
  Q 353.61 641.96 390.24 624.27
  Q 399.55 619.77 408.15 615.42
  Q 430.28 604.23 452.45 592.93
  Q 453.77 592.26 452.54 590.86
  A 2.52 2.40 85.0 0 0 452.12 590.49
  L 414.49 565.99
  A 1.68 1.68 0.0 0 1 414.17 563.45
  C 445.34 529.33 475.58 493.27 505.96 460.09
  A 0.77 0.77 0.0 0 0 505.43 458.80
  Q 504.96 458.78 504.57 459.05
  Q 417.12 518.39 347.70 563.44
  Q 347.11 563.82 346.79 564.44
  Q 346.26 565.45 347.23 566.06
  C 355.24 571.04 363.64 576.05 371.30 581.69
  C 374.53 584.06 378.15 586.00 381.41 588.40
  Q 383.53 589.95 385.64 591.52
  A 0.77 0.77 0.0 0 1 385.89 592.44
  Z"
/>
<path fill="#00ee02" d="
  M 382.92 30.10
  Q 408.61 29.35 438.30 30.90
  C 455.70 31.80 473.61 33.98 490.38 35.57
  Q 513.12 37.73 541.67 42.90
  Q 552.09 44.78 561.28 47.06
  Q 603.88 57.63 644.90 73.26
  Q 650.81 75.52 656.79 78.20
  C 662.05 80.55 667.41 82.46 672.50 85.03
  C 679.62 88.63 687.43 91.55 694.64 95.24
  Q 706.26 101.19 716.96 106.99
  Q 723.19 110.36 729.37 115.21
  C 736.70 120.97 739.82 128.09 742.31 137.51
  Q 751.79 173.40 757.25 205.62
  C 760.31 223.66 763.33 242.46 765.44 260.89
  Q 770.44 304.50 770.59 349.13
  C 770.67 373.41 768.51 399.38 766.22 423.76
  A 1.45 1.44 2.8 0 1 764.78 425.06
  Q 401.01 425.13 36.44 425.09
  C 33.62 425.09 33.87 423.20 33.66 421.08
  Q 29.35 377.31 30.09 338.75
  Q 32.02 238.57 58.09 136.71
  Q 59.07 132.89 61.04 127.88
  C 64.06 120.22 68.73 114.92 76.12 111.09
  Q 87.48 105.20 98.57 99.72
  C 101.72 98.16 104.97 97.12 108.12 95.53
  Q 118.16 90.45 128.40 86.43
  C 130.76 85.51 132.97 83.83 135.00 83.06
  Q 149.04 77.71 163.10 72.42
  C 172.84 68.76 183.40 65.54 193.59 62.00
  C 201.80 59.15 210.30 57.19 218.54 54.73
  C 225.51 52.64 233.10 51.16 240.41 49.15
  Q 244.73 47.96 249.28 46.97
  Q 275.17 41.35 291.67 38.70
  Q 336.80 31.44 382.92 30.10
  Z
  M 381.99 223.40
  A 0.19 0.19 0.0 0 1 382.21 223.67
  Q 366.89 256.69 351.66 289.69
  Q 349.75 293.81 353.29 296.42
  Q 354.93 297.63 356.25 297.39
  Q 375.96 293.81 394.82 290.45
  C 396.63 290.13 398.06 289.47 399.04 288.00
  Q 427.79 245.02 455.36 204.08
  Q 455.75 203.50 456.42 203.31
  Q 497.74 191.82 535.80 181.57
  Q 540.58 180.29 543.39 178.17
  C 552.12 171.59 554.37 159.78 548.93 150.27
  Q 544.10 141.84 532.99 139.86
  Q 518.76 137.33 506.76 135.10
  Q 501.92 134.20 496.93 132.84
  Q 488.57 130.55 476.91 132.10
  Q 474.40 132.43 472.98 134.00
  C 470.58 136.66 471.49 139.93 474.34 141.66
  Q 475.74 142.52 477.30 142.20
  Q 485.95 140.45 494.37 142.46
  A 0.46 0.45 35.8 0 1 494.51 143.29
  C 490.05 146.04 487.95 151.41 489.24 156.48
  C 491.01 163.43 498.01 167.26 504.94 165.44
  Q 516.72 162.35 530.97 158.03
  Q 535.45 156.67 539.59 155.84
  A 1.30 1.28 73.9 0 1 541.04 156.65
  C 543.22 162.43 541.24 169.82 534.73 171.60
  Q 498.69 181.41 464.08 190.89
  Q 463.50 191.05 463.52 190.44
  Q 463.69 186.37 459.99 185.31
  Q 458.55 184.89 455.31 185.84
  Q 422.79 195.30 393.78 203.50
  C 390.29 204.49 389.33 208.06 388.06 211.01
  A 1.37 1.33 2.2 0 1 387.23 211.76
  Q 357.21 221.16 327.08 212.07
  Q 326.68 211.95 326.89 211.58
  Q 330.61 204.92 333.88 198.70
  C 335.73 195.17 331.95 190.85 328.21 191.87
  Q 311.52 196.43 295.41 200.68
  Q 294.94 200.81 294.47 200.65
  L 283.35 196.75
  A 1.10 1.10 0.0 0 1 282.87 195.00
  C 283.71 193.99 284.87 193.89 286.07 193.57
  Q 366.76 171.89 448.28 149.97
  C 454.95 148.17 452.90 138.94 446.00 140.35
  Q 442.15 141.14 438.73 142.36
  Q 438.00 142.62 437.28 142.37
  L 364.46 116.58
  A 1.75 1.75 0.0 0 0 363.41 116.55
  Q 347.92 120.81 331.65 125.14
  C 327.27 126.31 325.84 131.51 329.81 134.18
  Q 349.85 147.65 368.89 160.38
  Q 369.62 160.87 368.77 161.10
  L 334.85 170.20
  Q 334.30 170.35 333.84 170.00
  L 288.04 135.66
  A 4.48 4.46 55.4 0 0 284.15 134.94
  Q 274.62 137.67 264.14 140.30
  C 260.27 141.27 257.70 144.42 260.03 148.28
  Q 271.33 167.00 281.83 183.97
  Q 282.08 184.38 281.62 184.51
  C 277.05 185.86 273.31 189.69 272.96 194.54
  C 272.49 201.13 276.67 205.24 282.60 207.00
  Q 285.49 207.85 288.49 208.98
  Q 289.19 209.25 289.09 209.99
  Q 286.92 225.90 284.58 243.49
  C 284.11 247.02 287.06 249.88 290.52 249.33
  Q 297.36 248.25 304.92 247.30
  C 306.91 247.05 308.46 245.94 309.40 244.21
  Q 315.59 232.81 321.73 221.28
  Q 321.99 220.79 322.52 220.96
  Q 351.92 230.63 381.99 223.40
  Z
  M 467.4097 139.8608
  A 5.52 5.02 -13.4 0 0 460.8766 136.2567
  A 5.52 5.02 -13.4 0 0 456.6703 142.4192
  A 5.52 5.02 -13.4 0 0 463.2034 146.0233
  A 5.52 5.02 -13.4 0 0 467.4097 139.8608
  Z
  M 467.8114 162.4332
  A 4.68 4.68 0.0 0 0 462.0624 159.1540
  L 461.5415 159.2965
  A 4.68 4.68 0.0 0 0 458.2623 165.0455
  L 460.1886 172.0868
  A 4.68 4.68 0.0 0 0 465.9376 175.3660
  L 466.4585 175.2235
  A 4.68 4.68 0.0 0 0 469.7377 169.4745
  L 467.8114 162.4332
  Z
  M 449.6045 167.2738
  A 4.69 4.69 0.0 0 0 443.8035 164.0583
  L 443.2844 164.2071
  A 4.69 4.69 0.0 0 0 440.0688 170.0082
  L 442.0755 177.0062
  A 4.69 4.69 0.0 0 0 447.8765 180.2217
  L 448.3956 180.0729
  A 4.69 4.69 0.0 0 0 451.6112 174.2718
  L 449.6045 167.2738
  Z
  M 431.4846 172.1444
  A 4.69 4.69 0.0 0 0 425.7004 168.8985
  L 425.1806 169.0446
  A 4.69 4.69 0.0 0 0 421.9347 174.8287
  L 423.9154 181.8756
  A 4.69 4.69 0.0 0 0 429.6996 185.1215
  L 430.2194 184.9754
  A 4.69 4.69 0.0 0 0 433.4653 179.1913
  L 431.4846 172.1444
  Z
  M 413.3153 177.0017
  A 4.71 4.71 0.0 0 0 407.4838 173.7826
  L 406.9650 173.9324
  A 4.71 4.71 0.0 0 0 403.7459 179.7638
  L 405.7647 186.7583
  A 4.71 4.71 0.0 0 0 411.5962 189.9774
  L 412.1150 189.8276
  A 4.71 4.71 0.0 0 0 415.3341 183.9962
  L 413.3153 177.0017
  Z
  M 395.1811 181.8943
  A 4.69 4.69 0.0 0 0 389.3913 178.6585
  L 388.8525 178.8110
  A 4.69 4.69 0.0 0 0 385.6167 184.6008
  L 387.5989 191.6057
  A 4.69 4.69 0.0 0 0 393.3887 194.8415
  L 393.9275 194.6890
  A 4.69 4.69 0.0 0 0 397.1633 188.8992
  L 395.1811 181.8943
  Z
  M 377.0012 186.7837
  A 4.70 4.70 0.0 0 0 371.1822 183.5714
  L 370.6633 183.7212
  A 4.70 4.70 0.0 0 0 367.4510 189.5402
  L 369.4588 196.4963
  A 4.70 4.70 0.0 0 0 375.2778 199.7086
  L 375.7967 199.5588
  A 4.70 4.70 0.0 0 0 379.0090 193.7398
  L 377.0012 186.7837
  Z
  M 358.9192 191.6938
  A 4.69 4.69 0.0 0 0 353.1464 188.4278
  L 352.6068 188.5774
  A 4.69 4.69 0.0 0 0 349.3407 194.3502
  L 351.2808 201.3462
  A 4.69 4.69 0.0 0 0 357.0536 204.6122
  L 357.5932 204.4626
  A 4.69 4.69 0.0 0 0 360.8593 198.6898
  L 358.9192 191.6938
  Z
  M 162.54 346.82
  Q 161.96 348.87 161.10 346.92
  Q 157.63 339.09 155.89 331.07
  Q 155.03 327.13 150.99 327.12
  L 149.76 327.12
  Q 145.78 327.12 147.18 330.85
  Q 152.23 344.33 156.90 357.88
  Q 157.39 359.28 158.82 359.68
  Q 164.47 361.23 166.43 355.81
  Q 171.43 342.03 175.24 330.78
  Q 176.44 327.21 172.68 327.23
  L 171.96 327.24
  Q 168.03 327.26 166.97 331.04
  L 162.54 346.82
  Z
  M 226.3993 338.0251
  A 10.85 10.85 0.0 0 0 215.5873 327.1373
  L 211.4673 327.1229
  A 10.85 10.85 0.0 0 0 200.5795 337.9350
  L 200.5407 349.0549
  A 10.85 10.85 0.0 0 0 211.3527 359.9427
  L 215.4727 359.9571
  A 10.85 10.85 0.0 0 0 226.3605 349.1450
  L 226.3993 338.0251
  Z
  M 317.4882 338.1003
  A 10.87 10.87 0.0 0 0 306.6944 327.1546
  L 302.6145 327.1262
  A 10.87 10.87 0.0 0 0 291.6689 337.9200
  L 291.5918 348.9597
  A 10.87 10.87 0.0 0 0 302.3856 359.9054
  L 306.4655 359.9338
  A 10.87 10.87 0.0 0 0 317.4111 349.1400
  L 317.4882 338.1003
  Z
  M 541.45 344.41
  Q 541.61 344.59 541.61 344.83
  Q 541.61 350.57 541.27 355.66
  Q 541.05 358.85 544.17 359.51
  Q 545.24 359.74 546.32 359.70
  Q 548.86 359.59 548.86 357.05
  L 548.83 329.33
  A 1.99 1.99 0.0 0 0 547.23 327.38
  C 542.59 326.47 539.72 329.06 538.27 333.07
  Q 537.06 336.41 534.73 339.18
  A 0.90 0.90 0.0 0 1 533.31 339.12
  Q 531.34 336.31 529.88 333.04
  C 527.78 328.33 524.65 325.63 519.36 327.87
  A 1.42 1.42 0.0 0 0 518.49 329.24
  Q 519.11 343.08 518.55 356.56
  Q 518.42 359.67 521.53 359.72
  L 524.54 359.76
  Q 527.45 359.80 527.03 356.92
  Q 526.18 351.15 526.80 345.96
  Q 527.35 341.33 529.31 345.56
  C 530.27 347.62 530.91 350.12 533.27 351.10
  C 534.83 351.76 536.33 350.52 537.05 349.25
  Q 538.39 346.90 539.92 344.52
  Q 540.61 343.46 541.45 344.41
  Z
  M 583.47 339.17
  C 583.70 334.60 587.34 332.15 591.63 334.43
  Q 594.74 336.08 597.75 337.46
  Q 599.56 338.30 600.88 336.86
  C 601.96 335.68 601.54 333.63 600.83 332.39
  C 596.18 324.27 577.07 324.83 576.31 336.06
  Q 575.93 341.83 576.27 349.83
  C 576.67 359.08 587.22 361.29 594.34 359.25
  Q 599.92 357.65 601.33 352.25
  Q 602.09 349.36 599.87 347.88
  A 2.49 2.48 39.1 0 0 596.72 348.20
  C 594.94 349.98 593.12 351.82 590.84 352.96
  C 587.69 354.53 584.25 352.31 583.82 349.00
  Q 583.22 344.31 583.47 339.17
  Z
  M 134.79 343.22
  Q 134.68 345.32 133.57 343.54
  Q 129.51 337.02 126.46 331.30
  C 124.39 327.43 121.75 326.58 117.66 327.38
  Q 116.51 327.61 116.51 328.78
  L 116.50 356.10
  Q 116.50 359.97 120.35 360.21
  L 120.63 360.23
  Q 124.49 360.48 124.42 356.62
  L 124.18 344.23
  Q 124.12 340.96 125.81 343.77
  Q 129.12 349.27 133.59 356.60
  Q 135.86 360.31 140.78 359.77
  Q 142.19 359.62 142.21 358.21
  L 142.58 330.43
  Q 142.62 327.22 139.42 327.42
  L 136.94 327.57
  Q 134.11 327.74 134.40 330.57
  Q 135.09 337.06 134.79 343.22
  Z
  M 183.29 351.47
  C 181.51 353.06 176.98 354.76 179.03 358.04
  Q 179.93 359.48 181.61 359.47
  Q 187.71 359.47 194.01 359.51
  A 1.66 1.66 0.0 0 0 195.65 358.18
  Q 196.53 353.79 192.56 352.31
  A 1.97 1.96 -80.2 0 1 191.29 350.50
  Q 191.22 344.50 191.26 338.48
  C 191.28 336.10 193.11 334.26 194.67 332.69
  C 196.37 330.96 196.16 327.72 193.23 327.61
  Q 187.83 327.41 181.97 327.32
  Q 179.68 327.29 179.17 329.29
  C 178.55 331.68 181.66 334.44 183.27 335.86
  Q 183.72 336.25 183.72 336.86
  L 183.79 350.36
  Q 183.79 351.03 183.29 351.47
  Z
  M 247.99 349.69
  A 2.03 2.03 0.0 0 1 247.47 352.27
  C 241.92 356.65 237.86 347.47 232.37 348.02
  A 2.05 2.04 84.8 0 0 230.54 350.22
  C 231.23 358.90 239.48 360.74 246.76 360.04
  Q 256.36 359.12 256.17 349.29
  Q 256.07 344.02 251.28 342.12
  Q 246.57 340.26 241.59 338.60
  Q 240.19 338.14 239.37 337.00
  A 1.83 1.83 0.0 0 1 239.78 334.45
  C 241.44 333.26 243.12 333.25 244.83 334.21
  Q 248.37 336.19 252.04 337.30
  Q 255.61 338.39 255.50 334.66
  Q 255.48 334.20 255.38 333.75
  Q 254.53 330.11 251.02 328.80
  C 244.15 326.25 232.04 325.40 230.97 335.37
  C 230.15 343.11 237.09 345.85 243.39 346.74
  C 245.29 347.01 247.03 347.96 247.99 349.69
  Z
  M 342.38 345.37
  Q 344.61 350.73 345.82 356.29
  C 346.84 361.01 352.77 360.86 354.19 356.45
  Q 358.43 343.30 362.01 330.13
  Q 362.79 327.23 359.79 327.24
  L 357.50 327.25
  Q 354.41 327.26 353.82 330.30
  Q 352.55 336.83 350.34 342.95
  A 0.48 0.47 -66.1 0 1 349.68 343.21
  Q 349.39 343.06 349.26 342.76
  Q 347.08 337.80 346.41 332.50
  C 346.00 329.26 343.99 326.59 340.31 327.35
  Q 338.65 327.69 338.21 329.34
  Q 336.43 336.03 334.63 342.48
  Q 333.81 345.38 332.90 342.51
  Q 330.91 336.28 329.29 329.67
  A 2.48 2.47 -7.5 0 0 326.82 327.78
  L 322.97 327.87
  Q 320.41 327.94 321.18 330.38
  Q 325.23 343.13 329.02 356.09
  C 330.02 359.51 336.50 361.26 337.43 357.42
  Q 338.96 351.05 341.26 345.38
  Q 341.81 344.02 342.38 345.37
  Z
  M 407.63 346.42
  C 408.66 350.41 410.61 354.19 413.18 357.44
  A 6.31 6.29 68.2 0 0 418.70 359.82
  Q 419.76 359.72 420.72 359.42
  Q 423.25 358.64 421.79 356.43
  Q 419.76 353.36 417.05 350.49
  A 2.13 2.12 45.3 0 1 417.06 347.57
  C 421.46 342.97 424.50 338.52 420.74 332.09
  C 419.06 329.23 415.38 328.13 412.25 327.83
  Q 405.96 327.23 398.61 327.32
  A 2.23 2.23 0.0 0 0 396.40 329.54
  L 396.35 357.15
  Q 396.34 359.47 398.66 359.47
  L 402.24 359.49
  Q 403.73 359.49 403.73 358.00
  L 403.72 336.50
  A 2.24 2.23 -1.1 0 1 405.88 334.27
  C 408.56 334.18 413.18 333.65 414.54 336.64
  C 416.26 340.39 412.92 341.91 409.84 342.78
  Q 406.91 343.60 407.63 346.42
  Z
  M 451.18 345.32
  Q 451.37 351.32 451.04 356.93
  Q 450.88 359.61 453.56 359.49
  L 456.35 359.37
  Q 458.59 359.27 458.57 357.03
  L 458.42 328.63
  A 1.29 1.29 0.0 0 0 457.35 327.37
  C 453.03 326.61 450.04 327.83 448.48 331.91
  Q 446.95 335.90 444.70 339.02
  Q 444.07 339.89 442.96 339.10
  A 1.57 1.50 -88.8 0 1 442.52 338.62
  Q 440.67 335.62 439.12 332.23
  C 437.39 328.46 434.39 326.26 430.13 327.66
  Q 428.82 328.09 428.80 329.47
  L 428.47 357.35
  Q 428.44 359.77 430.85 359.54
  L 434.49 359.20
  Q 437.12 358.95 436.64 356.36
  Q 435.50 350.15 436.28 344.40
  Q 436.34 343.98 436.68 343.73
  A 0.61 0.60 -35.4 0 1 437.53 343.87
  Q 439.17 346.15 440.22 348.49
  C 441.56 351.49 444.79 352.13 446.71 349.17
  Q 448.07 347.07 449.46 344.86
  Q 451.08 342.29 451.18 345.32
  Z
  M 476.46 349.55
  Q 476.52 344.05 476.49 338.30
  C 476.48 335.06 478.93 334.45 480.75 332.53
  C 482.63 330.54 480.81 327.58 478.29 327.57
  Q 473.12 327.56 467.27 327.21
  C 464.95 327.07 463.40 329.20 464.42 331.35
  Q 465.35 333.30 467.33 334.35
  Q 469.18 335.33 469.11 337.27
  Q 468.92 343.46 468.72 349.88
  C 468.68 351.32 467.87 352.39 466.58 352.98
  C 464.33 354.03 463.69 356.65 464.80 358.77
  A 1.28 1.27 -13.3 0 0 465.89 359.44
  Q 471.56 359.53 478.20 359.46
  C 480.44 359.44 481.94 357.16 481.34 355.08
  Q 481.18 354.54 480.73 354.20
  C 479.18 353.03 476.44 351.89 476.46 349.55
  Z
  M 500.29 339.16
  L 505.81 357.10
  Q 506.74 360.10 509.86 359.79
  L 512.32 359.55
  Q 515.20 359.26 514.24 356.53
  Q 510.27 345.21 505.93 333.76
  Q 505.00 331.32 503.59 329.43
  C 500.24 324.95 495.53 328.06 493.99 332.13
  Q 489.93 342.91 485.28 356.36
  Q 484.07 359.87 487.79 359.85
  L 488.45 359.84
  Q 492.55 359.82 493.53 355.84
  Q 495.63 347.36 498.06 341.37
  Q 498.56 340.13 499.31 339.01
  Q 499.95 338.07 500.29 339.16
  Z
  M 558.83 351.35
  C 557.24 352.94 554.32 354.80 554.42 357.28
  Q 554.51 359.57 556.72 359.57
  Q 562.50 359.58 568.38 359.65
  Q 569.53 359.66 570.52 359.23
  Q 571.00 359.02 571.09 358.51
  C 571.53 356.07 569.27 353.36 567.58 351.85
  A 2.82 2.81 21.2 0 1 566.64 349.73
  L 566.74 336.59
  Q 566.75 335.85 567.27 335.32
  L 570.71 331.87
  A 2.15 2.14 48.6 0 0 570.88 329.05
  Q 570.09 328.04 568.74 327.96
  Q 564.31 327.69 559.32 327.28
  C 556.56 327.04 554.34 328.07 554.78 331.39
  A 2.77 2.76 13.2 0 0 555.99 333.34
  L 558.55 335.05
  A 2.16 2.15 16.9 0 1 559.51 336.84
  L 559.47 349.80
  A 2.20 2.18 67.7 0 1 558.83 351.35
  Z
  M 624.69 340.13
  Q 621.53 340.43 618.09 340.00
  C 613.77 339.46 615.02 333.39 615.45 330.71
  Q 615.92 327.80 612.98 327.58
  L 610.57 327.39
  Q 607.57 327.16 607.57 330.18
  L 607.57 356.29
  Q 607.57 359.51 610.79 359.50
  L 612.31 359.50
  Q 615.62 359.49 615.57 356.19
  L 615.45 349.18
  A 2.50 2.50 0.0 0 1 618.08 346.65
  L 624.26 346.96
  A 2.19 2.19 0.0 0 1 626.33 349.26
  L 625.97 356.34
  Q 625.80 359.63 629.09 359.72
  L 630.66 359.76
  Q 633.65 359.84 633.65 356.84
  L 633.62 330.75
  Q 633.61 327.52 630.39 327.51
  Q 629.49 327.50 628.65 327.69
  Q 625.24 328.42 625.93 331.84
  C 626.39 334.16 626.57 337.27 625.55 339.52
  A 1.04 1.03 -80.3 0 1 624.69 340.13
  Z
  M 111.2224 330.3043
  A 2.76 2.76 0.0 0 0 108.4720 327.5347
  L 88.5921 327.4653
  A 2.76 2.76 0.0 0 0 85.8225 330.2157
  L 85.8176 331.6157
  A 2.76 2.76 0.0 0 0 88.5680 334.3853
  L 108.4479 334.4547
  A 2.76 2.76 0.0 0 0 111.2175 331.7043
  L 111.2224 330.3043
  Z
  M 271.38 349.81
  C 275.35 350.39 280.75 349.99 283.65 346.91
  C 288.44 341.81 287.96 330.21 280.00 328.59
  Q 272.84 327.13 263.88 327.66
  A 2.04 2.04 0.0 0 0 261.96 329.71
  L 261.99 356.63
  Q 261.99 359.56 264.89 359.96
  Q 265.78 360.08 266.69 359.94
  Q 269.49 359.51 269.61 356.67
  L 269.84 351.08
  A 1.34 1.34 0.0 0 1 271.38 349.81
  Z
  M 390.6523 329.6915
  A 2.18 2.18 0.0 0 0 388.4761 327.5077
  L 368.1761 327.4723
  A 2.18 2.18 0.0 0 0 365.9923 329.6485
  L 365.9877 332.2485
  A 2.18 2.18 0.0 0 0 368.1639 334.4323
  L 388.4639 334.4677
  A 2.18 2.18 0.0 0 0 390.6477 332.2915
  L 390.6523 329.6915
  Z
  M 670.27 350.87
  L 669.77 330.34
  Q 669.69 327.23 666.59 327.54
  L 665.93 327.60
  Q 662.71 327.92 662.72 331.16
  L 662.79 357.56
  A 1.93 1.93 0.0 0 0 664.77 359.49
  Q 673.14 359.28 682.13 359.10
  Q 685.15 359.04 686.14 356.01
  Q 686.27 355.62 686.18 355.23
  Q 685.65 352.88 683.24 352.84
  L 672.11 352.69
  Q 670.32 352.66 670.27 350.87
  Z
  M 651.44 350.13
  Q 651.60 344.30 651.65 338.05
  C 651.68 335.18 654.11 333.02 655.94 331.08
  A 1.25 1.24 66.2 0 0 656.28 330.20
  Q 656.23 328.10 653.99 328.07
  Q 648.76 328.00 643.46 327.91
  C 640.38 327.86 638.75 330.70 641.29 332.96
  Q 643.94 335.31 643.83 338.19
  Q 643.64 342.85 643.51 348.50
  C 643.45 351.32 642.01 353.51 640.71 355.91
  Q 640.03 357.16 640.43 358.37
  A 1.62 1.62 0.0 0 0 642.07 359.47
  Q 647.42 359.16 653.14 359.11
  C 656.22 359.09 656.28 356.34 654.58 354.55
  Q 653.17 353.07 651.83 351.34
  A 1.91 1.86 -63.5 0 1 651.44 350.13
  Z
  M 713.7760 330.2552
  A 2.24 2.24 0.0 0 0 711.5243 328.0270
  L 691.2645 328.1331
  A 2.24 2.24 0.0 0 0 689.0363 330.3848
  L 689.0440 331.8648
  A 2.24 2.24 0.0 0 0 691.2957 334.0930
  L 711.5555 333.9869
  A 2.24 2.24 0.0 0 0 713.7837 331.7352
  L 713.7760 330.2552
  Z
  M 90.66 340.17
  A 2.20 2.20 0.0 0 0 88.46 342.22
  L 88.31 344.57
  A 2.20 2.20 0.0 0 0 90.56 346.91
  L 106.71 346.52
  A 2.20 2.20 0.0 0 0 108.83 343.99
  L 108.53 342.03
  A 2.20 2.20 0.0 0 0 106.35 340.17
  L 90.66 340.17
  Z
  M 388.2230 342.0271
  A 2.01 2.01 0.0 0 0 386.1886 340.0418
  L 370.0698 340.2387
  A 2.01 2.01 0.0 0 0 368.0845 342.2731
  L 368.1170 344.9329
  A 2.01 2.01 0.0 0 0 370.1514 346.9182
  L 386.2702 346.7213
  A 2.01 2.01 0.0 0 0 388.2555 344.6869
  L 388.2230 342.0271
  Z
  M 711.6029 342.5851
  A 2.24 2.24 0.0 0 0 709.3707 340.3372
  L 693.7708 340.2828
  A 2.24 2.24 0.0 0 0 691.5230 342.5150
  L 691.5171 344.2149
  A 2.24 2.24 0.0 0 0 693.7493 346.4628
  L 709.3492 346.5172
  A 2.24 2.24 0.0 0 0 711.5970 344.2850
  L 711.6029 342.5851
  Z
  M 390.6121 354.7317
  A 2.34 2.34 0.0 0 0 388.2762 352.3876
  L 368.0962 352.3524
  A 2.34 2.34 0.0 0 0 365.7521 354.6883
  L 365.7479 357.1283
  A 2.34 2.34 0.0 0 0 368.0838 359.4724
  L 388.2638 359.5076
  A 2.34 2.34 0.0 0 0 390.6079 357.1717
  L 390.6121 354.7317
  Z
  M 111.07 354.22
  A 1.69 1.69 0.0 0 0 109.38 352.53
  L 87.62 352.53
  A 1.69 1.69 0.0 0 0 85.93 354.22
  L 85.93 357.90
  A 1.69 1.69 0.0 0 0 87.62 359.59
  L 109.38 359.59
  A 1.69 1.69 0.0 0 0 111.07 357.90
  L 111.07 354.22
  Z
  M 714.0104 356.0996
  A 3.04 3.04 0.0 0 0 711.0024 353.0280
  L 692.3234 352.8324
  A 3.04 3.04 0.0 0 0 689.2517 355.8404
  L 689.2496 356.0404
  A 3.04 3.04 0.0 0 0 692.2576 359.1120
  L 710.9366 359.3076
  A 3.04 3.04 0.0 0 0 714.0083 356.2996
  L 714.0104 356.0996
  Z
  M 349.71 373.92
  A 0.78 0.78 0.0 0 0 348.22 373.59
  L 346.75 376.73
  A 0.78 0.78 0.0 0 0 346.68 377.01
  L 345.76 392.22
  A 0.78 0.78 0.0 0 0 346.51 393.05
  L 348.83 393.12
  A 0.78 0.78 0.0 0 0 349.63 392.35
  L 349.71 373.92
  Z
  M 420.42 388.41
  C 424.47 388.44 430.11 389.15 430.71 383.55
  C 431.49 376.31 423.38 375.65 417.99 376.54
  C 416.44 376.80 415.31 377.95 415.31 379.55
  Q 415.29 385.61 415.30 391.72
  A 1.16 1.15 11.6 0 0 416.00 392.78
  Q 416.70 393.07 417.26 392.83
  A 3.22 3.09 84.1 0 0 419.07 390.50
  Q 419.20 389.76 419.45 389.08
  A 1.02 1.02 0.0 0 1 420.42 388.41
  Z
  M 453.6132 384.6857
  A 9.23 8.43 -2.2 0 0 444.0664 376.6162
  A 9.23 8.43 -2.2 0 0 435.1668 385.3943
  A 9.23 8.43 -2.2 0 0 444.7136 393.4638
  A 9.23 8.43 -2.2 0 0 453.6132 384.6857
  Z
  M 486.47 381.28
  Q 486.61 381.01 486.69 380.86
  Q 487.68 378.93 489.84 379.09
  L 496.07 379.58
  Q 497.59 379.70 497.67 378.18
  L 497.68 377.91
  Q 497.73 376.83 496.66 376.80
  L 484.53 376.47
  A 1.72 1.72 0.0 0 0 482.76 378.13
  Q 482.56 384.55 482.48 390.67
  Q 482.45 392.74 484.44 393.15
  Q 491.05 394.53 497.66 392.86
  A 0.96 0.95 -14.8 0 0 498.35 391.68
  L 498.26 391.33
  Q 497.96 390.25 496.84 390.33
  L 488.87 390.96
  Q 486.58 391.14 486.24 388.87
  L 486.14 388.18
  Q 485.75 385.59 488.36 385.71
  L 493.59 385.93
  Q 494.72 385.98 495.16 384.94
  Q 495.24 384.73 495.25 384.51
  Q 495.30 383.36 494.15 383.45
  Q 490.20 383.77 487.60 383.43
  Q 485.51 383.16 486.47 381.28
  Z
  M 507.49 389.17
  A 2.00 2.00 0.0 0 1 509.63 387.76
  C 513.61 388.22 513.42 390.44 515.57 392.87
  A 1.65 1.58 76.5 0 0 516.35 393.37
  Q 517.33 393.65 517.98 393.24
  A 1.21 1.21 0.0 0 0 518.34 391.55
  C 516.86 389.27 517.55 387.33 518.63 385.17
  C 519.91 382.62 519.57 379.46 517.03 377.84
  C 514.19 376.03 509.06 376.44 505.91 376.75
  A 2.47 2.47 0.0 0 0 503.69 379.27
  Q 503.82 384.51 503.33 389.73
  C 503.22 390.94 503.78 392.05 504.97 392.48
  A 1.40 1.40 0.0 0 0 506.78 391.56
  L 507.49 389.17
  Z
  M 285.01 379.82
  Q 286.29 378.42 293.51 379.72
  A 1.48 1.47 -79.3 0 0 295.22 378.55
  L 295.28 378.24
  Q 295.49 377.15 294.38 377.01
  Q 290.73 376.56 285.84 376.74
  C 283.95 376.81 280.98 376.96 280.86 379.47
  Q 280.60 384.91 280.84 389.52
  C 281.01 392.89 284.38 393.48 287.10 393.48
  Q 290.89 393.49 294.27 393.38
  A 1.39 1.38 -72.5 0 0 295.34 392.82
  Q 295.98 391.92 295.63 391.23
  Q 295.12 390.21 293.98 390.28
  C 291.14 390.47 287.93 391.50 285.48 389.96
  C 283.50 388.73 283.86 386.68 284.94 384.97
  A 1.15 1.15 0.0 0 0 284.93 383.72
  Q 283.47 381.50 285.01 379.82
  Z
  M 392.73 389.25
  C 389.87 393.32 383.65 390.55 380.10 388.52
  A 0.44 0.44 0.0 0 0 379.49 388.71
  L 379.31 389.08
  A 0.86 0.86 0.0 0 0 379.55 390.14
  Q 387.28 396.28 394.77 391.93
  Q 396.57 390.89 397.54 389.12
  Q 397.85 388.57 397.62 387.97
  C 396.36 384.65 389.41 383.91 386.51 383.73
  Q 384.61 383.61 383.93 381.78
  Q 383.71 381.18 384.09 380.66
  C 386.64 377.17 392.85 379.81 395.97 381.38
  A 0.48 0.48 0.0 0 0 396.64 381.11
  L 396.75 380.76
  A 1.27 1.27 0.0 0 0 396.23 379.27
  Q 389.07 374.69 382.18 378.36
  C 377.37 380.93 380.63 385.16 384.57 385.47
  C 387.09 385.67 391.70 385.77 392.82 388.45
  Q 392.99 388.88 392.73 389.25
  Z
  M 466.55 386.46
  C 469.87 386.16 470.39 388.35 471.73 390.52
  Q 472.81 392.27 474.40 391.42
  A 1.52 1.51 -7.3 0 0 475.16 390.44
  L 478.02 378.62
  Q 478.36 377.24 477.00 376.83
  L 476.55 376.69
  Q 474.72 376.13 474.26 377.98
  L 473.18 382.32
  A 1.35 1.35 0.0 0 1 471.18 383.16
  L 468.73 381.73
  A 0.95 0.94 43.5 0 0 467.73 381.75
  L 465.77 383.04
  A 1.82 1.81 65.2 0 1 463.04 382.03
  Q 462.59 380.51 462.02 379.03
  Q 461.35 377.30 459.61 377.12
  Q 459.37 377.10 459.14 377.20
  Q 457.95 377.71 458.34 378.95
  Q 460.04 384.38 461.76 390.53
  C 462.05 391.55 463.05 392.14 464.04 391.60
  A 1.21 1.19 -7.5 0 0 464.62 390.86
  L 465.63 387.22
  Q 465.83 386.52 466.55 386.46
  Z
  M 332.88 385.11
  A 1.22 1.22 0.0 0 1 330.76 385.17
  L 326.14 377.60
  Q 325.49 376.53 324.43 377.19
  L 324.20 377.33
  Q 322.93 378.11 323.63 379.44
  Q 326.82 385.45 329.93 391.04
  Q 331.07 393.10 333.08 391.40
  A 2.22 2.16 -7.3 0 0 333.58 390.77
  L 340.13 378.38
  Q 340.69 377.31 339.49 377.13
  Q 338.94 377.05 338.39 377.22
  Q 336.83 377.71 336.06 379.16
  L 332.88 385.11
  Z
  M 375.1840 384.2735
  A 7.40 7.40 0.0 0 0 367.6307 377.0301
  L 364.6113 377.0934
  A 7.40 7.40 0.0 0 0 357.3679 384.6467
  L 357.3960 385.9865
  A 7.40 7.40 0.0 0 0 364.9493 393.2299
  L 367.9687 393.1666
  A 7.40 7.40 0.0 0 0 375.2121 385.6133
  L 375.1840 384.2735
  Z
  M 305.86 386.38
  Q 305.93 384.56 307.59 385.30
  Q 311.78 387.18 314.36 391.12
  Q 315.44 392.77 317.32 392.40
  A 0.84 0.83 84.0 0 0 318.00 391.55
  L 317.59 378.58
  A 1.34 1.34 0.0 0 0 316.53 377.31
  L 316.27 377.25
  Q 314.85 376.95 314.81 378.41
  Q 314.75 380.97 314.65 383.93
  Q 314.62 384.83 313.93 385.33
  A 1.18 1.17 -42.6 0 1 312.48 385.27
  L 304.26 378.25
  Q 301.63 376.00 302.09 379.43
  Q 302.88 385.24 302.01 391.21
  Q 301.80 392.62 303.22 392.77
  L 303.78 392.83
  Q 305.58 393.02 305.66 391.22
  L 305.86 386.38
  Z
  M 293.06 385.40
  L 293.06 384.12
  A 0.28 0.28 0.0 0 0 292.78 383.84
  L 291.32 383.83
  A 3.94 0.78 0.2 0 0 287.38 384.60
  L 287.38 384.88
  A 3.94 0.78 0.2 0 0 291.32 385.67
  L 292.78 385.68
  A 0.28 0.28 0.0 0 0 293.06 385.40
  Z"
/>
<path fill="#000000" d="
  M 381.99 223.40
  Q 351.92 230.63 322.52 220.96
  Q 321.99 220.79 321.73 221.28
  Q 315.59 232.81 309.40 244.21
  C 308.46 245.94 306.91 247.05 304.92 247.30
  Q 297.36 248.25 290.52 249.33
  C 287.06 249.88 284.11 247.02 284.58 243.49
  Q 286.92 225.90 289.09 209.99
  Q 289.19 209.25 288.49 208.98
  Q 285.49 207.85 282.60 207.00
  C 276.67 205.24 272.49 201.13 272.96 194.54
  C 273.31 189.69 277.05 185.86 281.62 184.51
  Q 282.08 184.38 281.83 183.97
  Q 271.33 167.00 260.03 148.28
  C 257.70 144.42 260.27 141.27 264.14 140.30
  Q 274.62 137.67 284.15 134.94
  A 4.48 4.46 55.4 0 1 288.04 135.66
  L 333.84 170.00
  Q 334.30 170.35 334.85 170.20
  L 368.77 161.10
  Q 369.62 160.87 368.89 160.38
  Q 349.85 147.65 329.81 134.18
  C 325.84 131.51 327.27 126.31 331.65 125.14
  Q 347.92 120.81 363.41 116.55
  A 1.75 1.75 0.0 0 1 364.46 116.58
  L 437.28 142.37
  Q 438.00 142.62 438.73 142.36
  Q 442.15 141.14 446.00 140.35
  C 452.90 138.94 454.95 148.17 448.28 149.97
  Q 366.76 171.89 286.07 193.57
  C 284.87 193.89 283.71 193.99 282.87 195.00
  A 1.10 1.10 0.0 0 0 283.35 196.75
  L 294.47 200.65
  Q 294.94 200.81 295.41 200.68
  Q 311.52 196.43 328.21 191.87
  C 331.95 190.85 335.73 195.17 333.88 198.70
  Q 330.61 204.92 326.89 211.58
  Q 326.68 211.95 327.08 212.07
  Q 357.21 221.16 387.23 211.76
  A 1.37 1.33 2.2 0 0 388.06 211.01
  C 389.33 208.06 390.29 204.49 393.78 203.50
  Q 422.79 195.30 455.31 185.84
  Q 458.55 184.89 459.99 185.31
  Q 463.69 186.37 463.52 190.44
  Q 463.50 191.05 464.08 190.89
  Q 498.69 181.41 534.73 171.60
  C 541.24 169.82 543.22 162.43 541.04 156.65
  A 1.30 1.28 73.9 0 0 539.59 155.84
  Q 535.45 156.67 530.97 158.03
  Q 516.72 162.35 504.94 165.44
  C 498.01 167.26 491.01 163.43 489.24 156.48
  C 487.95 151.41 490.05 146.04 494.51 143.29
  A 0.46 0.45 35.8 0 0 494.37 142.46
  Q 485.95 140.45 477.30 142.20
  Q 475.74 142.52 474.34 141.66
  C 471.49 139.93 470.58 136.66 472.98 134.00
  Q 474.40 132.43 476.91 132.10
  Q 488.57 130.55 496.93 132.84
  Q 501.92 134.20 506.76 135.10
  Q 518.76 137.33 532.99 139.86
  Q 544.10 141.84 548.93 150.27
  C 554.37 159.78 552.12 171.59 543.39 178.17
  Q 540.58 180.29 535.80 181.57
  Q 497.74 191.82 456.42 203.31
  Q 455.75 203.50 455.36 204.08
  Q 427.79 245.02 399.04 288.00
  C 398.06 289.47 396.63 290.13 394.82 290.45
  Q 375.96 293.81 356.25 297.39
  Q 354.93 297.63 353.29 296.42
  Q 349.75 293.81 351.66 289.69
  Q 366.89 256.69 382.21 223.67
  A 0.19 0.19 0.0 0 0 381.99 223.40
  Z
  M 382.19 157.34
  A 0.33 0.33 0.0 0 0 382.45 157.38
  L 419.97 147.38
  A 0.33 0.33 0.0 0 0 419.99 146.75
  L 363.60 126.87
  A 0.33 0.33 0.0 0 0 363.40 126.87
  L 344.84 131.75
  A 0.33 0.33 0.0 0 0 344.74 132.35
  L 382.19 157.34
  Z
  M 291.91 181.48
  A 0.36 0.36 0.0 0 0 292.31 181.64
  L 321.56 173.80
  A 0.36 0.36 0.0 0 0 321.69 173.17
  L 284.45 145.26
  A 0.36 0.36 0.0 0 0 284.14 145.20
  L 272.23 148.42
  A 0.36 0.36 0.0 0 0 272.02 148.96
  L 291.91 181.48
  Z
  M 526.94 148.75
  C 523.82 148.14 520.63 147.96 517.48 147.27
  Q 515.07 146.74 512.25 147.53
  Q 505.27 149.48 501.28 150.60
  Q 499.29 151.16 498.66 153.48
  Q 498.55 153.93 498.83 154.29
  Q 500.57 156.52 503.01 155.88
  Q 515.22 152.65 526.96 149.48
  Q 528.50 149.06 526.94 148.75
  Z
  M 446.62 199.23
  A 0.31 0.31 0.0 0 0 446.27 198.76
  L 398.40 212.61
  A 0.31 0.31 0.0 0 0 398.20 212.78
  L 364.66 285.29
  A 0.31 0.31 0.0 0 0 365.00 285.72
  L 391.74 280.91
  A 0.31 0.31 0.0 0 0 391.94 280.78
  L 446.62 199.23
  Z
  M 319.22 205.06
  A 0.32 0.32 0.0 0 0 318.86 204.60
  L 299.27 209.98
  A 0.32 0.32 0.0 0 0 299.04 210.25
  L 295.27 238.24
  A 0.32 0.32 0.0 0 0 295.63 238.60
  L 301.46 237.73
  A 0.32 0.32 0.0 0 0 301.70 237.57
  L 319.22 205.06
  Z"
/>
<path fill="#00ee02" d="
  M 382.19 157.34
  L 344.74 132.35
  A 0.33 0.33 0.0 0 1 344.84 131.75
  L 363.40 126.87
  A 0.33 0.33 0.0 0 1 363.60 126.87
  L 419.99 146.75
  A 0.33 0.33 0.0 0 1 419.97 147.38
  L 382.45 157.38
  A 0.33 0.33 0.0 0 1 382.19 157.34
  Z"
/>
<ellipse fill="#000000" cx="0.00" cy="0.00" transform="translate(462.04,141.14) rotate(-13.4)" rx="5.52" ry="5.02"/>
<path fill="#00ee02" d="
  M 291.91 181.48
  L 272.02 148.96
  A 0.36 0.36 0.0 0 1 272.23 148.42
  L 284.14 145.20
  A 0.36 0.36 0.0 0 1 284.45 145.26
  L 321.69 173.17
  A 0.36 0.36 0.0 0 1 321.56 173.80
  L 292.31 181.64
  A 0.36 0.36 0.0 0 1 291.91 181.48
  Z"
/>
<path fill="#00ee02" d="
  M 517.48 147.27
  C 520.63 147.96 523.82 148.14 526.94 148.75
  Q 528.50 149.06 526.96 149.48
  Q 515.22 152.65 503.01 155.88
  Q 500.57 156.52 498.83 154.29
  Q 498.55 153.93 498.66 153.48
  Q 499.29 151.16 501.28 150.60
  Q 505.27 149.48 512.25 147.53
  Q 515.07 146.74 517.48 147.27
  Z"
/>
<rect fill="#000000" x="-4.95" y="-8.33" transform="translate(464.00,167.26) rotate(-15.3)" width="9.90" height="16.66" rx="4.68"/>
<rect fill="#000000" x="-4.96" y="-8.33" transform="translate(445.84,172.14) rotate(-16.0)" width="9.92" height="16.66" rx="4.69"/>
<rect fill="#000000" x="-4.96" y="-8.35" transform="translate(427.70,177.01) rotate(-15.7)" width="9.92" height="16.70" rx="4.69"/>
<rect fill="#000000" x="-4.98" y="-8.35" transform="translate(409.54,181.88) rotate(-16.1)" width="9.96" height="16.70" rx="4.71"/>
<rect fill="#000000" x="-4.97" y="-8.33" transform="translate(391.39,186.75) rotate(-15.8)" width="9.94" height="16.66" rx="4.69"/>
<rect fill="#000000" x="-4.97" y="-8.32" transform="translate(373.23,191.64) rotate(-16.1)" width="9.94" height="16.64" rx="4.70"/>
<rect fill="#000000" x="-4.97" y="-8.32" transform="translate(355.10,196.52) rotate(-15.5)" width="9.94" height="16.64" rx="4.69"/>
<path fill="#00ee02" d="
  M 446.62 199.23
  L 391.94 280.78
  A 0.31 0.31 0.0 0 1 391.74 280.91
  L 365.00 285.72
  A 0.31 0.31 0.0 0 1 364.66 285.29
  L 398.20 212.78
  A 0.31 0.31 0.0 0 1 398.40 212.61
  L 446.27 198.76
  A 0.31 0.31 0.0 0 1 446.62 199.23
  Z"
/>
<path fill="#00ee02" d="
  M 319.22 205.06
  L 301.70 237.57
  A 0.32 0.32 0.0 0 1 301.46 237.73
  L 295.63 238.60
  A 0.32 0.32 0.0 0 1 295.27 238.24
  L 299.04 210.25
  A 0.32 0.32 0.0 0 1 299.27 209.98
  L 318.86 204.60
  A 0.32 0.32 0.0 0 1 319.22 205.06
  Z"
/>
<path fill="#000000" d="
  M 162.54 346.82
  L 166.97 331.04
  Q 168.03 327.26 171.96 327.24
  L 172.68 327.23
  Q 176.44 327.21 175.24 330.78
  Q 171.43 342.03 166.43 355.81
  Q 164.47 361.23 158.82 359.68
  Q 157.39 359.28 156.90 357.88
  Q 152.23 344.33 147.18 330.85
  Q 145.78 327.12 149.76 327.12
  L 150.99 327.12
  Q 155.03 327.13 155.89 331.07
  Q 157.63 339.09 161.10 346.92
  Q 161.96 348.87 162.54 346.82
  Z"
/>
<path fill="#000000" d="
  M 226.3605 349.1450
  A 10.85 10.85 0.0 0 1 215.4727 359.9571
  L 211.3527 359.9427
  A 10.85 10.85 0.0 0 1 200.5407 349.0549
  L 200.5795 337.9350
  A 10.85 10.85 0.0 0 1 211.4673 327.1229
  L 215.5873 327.1373
  A 10.85 10.85 0.0 0 1 226.3993 338.0251
  L 226.3605 349.1450
  Z
  M 218.8457 338.5787
  A 4.95 4.95 0.0 0 0 213.9217 333.6028
  L 212.9017 333.5975
  A 4.95 4.95 0.0 0 0 207.9258 338.5215
  L 207.8743 348.3613
  A 4.95 4.95 0.0 0 0 212.7983 353.3372
  L 213.8183 353.3425
  A 4.95 4.95 0.0 0 0 218.7942 348.4185
  L 218.8457 338.5787
  Z"
/>
<path fill="#000000" d="
  M 317.4111 349.1400
  A 10.87 10.87 0.0 0 1 306.4655 359.9338
  L 302.3856 359.9054
  A 10.87 10.87 0.0 0 1 291.5918 348.9597
  L 291.6689 337.9200
  A 10.87 10.87 0.0 0 1 302.6145 327.1262
  L 306.6944 327.1546
  A 10.87 10.87 0.0 0 1 317.4882 338.1003
  L 317.4111 349.1400
  Z
  M 310.0475 338.4496
  A 4.82 4.82 0.0 0 0 305.2443 333.6129
  L 303.6443 333.6073
  A 4.82 4.82 0.0 0 0 298.8075 338.4104
  L 298.7725 348.4304
  A 4.82 4.82 0.0 0 0 303.5757 353.2671
  L 305.1757 353.2727
  A 4.82 4.82 0.0 0 0 310.0125 348.4696
  L 310.0475 338.4496
  Z"
/>
<path fill="#000000" d="
  M 541.45 344.41
  Q 540.61 343.46 539.92 344.52
  Q 538.39 346.90 537.05 349.25
  C 536.33 350.52 534.83 351.76 533.27 351.10
  C 530.91 350.12 530.27 347.62 529.31 345.56
  Q 527.35 341.33 526.80 345.96
  Q 526.18 351.15 527.03 356.92
  Q 527.45 359.80 524.54 359.76
  L 521.53 359.72
  Q 518.42 359.67 518.55 356.56
  Q 519.11 343.08 518.49 329.24
  A 1.42 1.42 0.0 0 1 519.36 327.87
  C 524.65 325.63 527.78 328.33 529.88 333.04
  Q 531.34 336.31 533.31 339.12
  A 0.90 0.90 0.0 0 0 534.73 339.18
  Q 537.06 336.41 538.27 333.07
  C 539.72 329.06 542.59 326.47 547.23 327.38
  A 1.99 1.99 0.0 0 1 548.83 329.33
  L 548.86 357.05
  Q 548.86 359.59 546.32 359.70
  Q 545.24 359.74 544.17 359.51
  Q 541.05 358.85 541.27 355.66
  Q 541.61 350.57 541.61 344.83
  Q 541.61 344.59 541.45 344.41
  Z"
/>
<path fill="#000000" d="
  M 583.47 339.17
  Q 583.22 344.31 583.82 349.00
  C 584.25 352.31 587.69 354.53 590.84 352.96
  C 593.12 351.82 594.94 349.98 596.72 348.20
  A 2.49 2.48 39.1 0 1 599.87 347.88
  Q 602.09 349.36 601.33 352.25
  Q 599.92 357.65 594.34 359.25
  C 587.22 361.29 576.67 359.08 576.27 349.83
  Q 575.93 341.83 576.31 336.06
  C 577.07 324.83 596.18 324.27 600.83 332.39
  C 601.54 333.63 601.96 335.68 600.88 336.86
  Q 599.56 338.30 597.75 337.46
  Q 594.74 336.08 591.63 334.43
  C 587.34 332.15 583.70 334.60 583.47 339.17
  Z"
/>
<path fill="#000000" d="
  M 134.79 343.22
  Q 135.09 337.06 134.40 330.57
  Q 134.11 327.74 136.94 327.57
  L 139.42 327.42
  Q 142.62 327.22 142.58 330.43
  L 142.21 358.21
  Q 142.19 359.62 140.78 359.77
  Q 135.86 360.31 133.59 356.60
  Q 129.12 349.27 125.81 343.77
  Q 124.12 340.96 124.18 344.23
  L 124.42 356.62
  Q 124.49 360.48 120.63 360.23
  L 120.35 360.21
  Q 116.50 359.97 116.50 356.10
  L 116.51 328.78
  Q 116.51 327.61 117.66 327.38
  C 121.75 326.58 124.39 327.43 126.46 331.30
  Q 129.51 337.02 133.57 343.54
  Q 134.68 345.32 134.79 343.22
  Z"
/>
<path fill="#000000" d="
  M 183.79 350.36
  L 183.72 336.86
  Q 183.72 336.25 183.27 335.86
  C 181.66 334.44 178.55 331.68 179.17 329.29
  Q 179.68 327.29 181.97 327.32
  Q 187.83 327.41 193.23 327.61
  C 196.16 327.72 196.37 330.96 194.67 332.69
  C 193.11 334.26 191.28 336.10 191.26 338.48
  Q 191.22 344.50 191.29 350.50
  A 1.97 1.96 -80.2 0 0 192.56 352.31
  Q 196.53 353.79 195.65 358.18
  A 1.66 1.66 0.0 0 1 194.01 359.51
  Q 187.71 359.47 181.61 359.47
  Q 179.93 359.48 179.03 358.04
  C 176.98 354.76 181.51 353.06 183.29 351.47
  Q 183.79 351.03 183.79 350.36
  Z"
/>
<path fill="#000000" d="
  M 247.99 349.69
  C 247.03 347.96 245.29 347.01 243.39 346.74
  C 237.09 345.85 230.15 343.11 230.97 335.37
  C 232.04 325.40 244.15 326.25 251.02 328.80
  Q 254.53 330.11 255.38 333.75
  Q 255.48 334.20 255.50 334.66
  Q 255.61 338.39 252.04 337.30
  Q 248.37 336.19 244.83 334.21
  C 243.12 333.25 241.44 333.26 239.78 334.45
  A 1.83 1.83 0.0 0 0 239.37 337.00
  Q 240.19 338.14 241.59 338.60
  Q 246.57 340.26 251.28 342.12
  Q 256.07 344.02 256.17 349.29
  Q 256.36 359.12 246.76 360.04
  C 239.48 360.74 231.23 358.90 230.54 350.22
  A 2.05 2.04 84.8 0 1 232.37 348.02
  C 237.86 347.47 241.92 356.65 247.47 352.27
  A 2.03 2.03 0.0 0 0 247.99 349.69
  Z"
/>
<path fill="#000000" d="
  M 342.38 345.37
  Q 341.81 344.02 341.26 345.38
  Q 338.96 351.05 337.43 357.42
  C 336.50 361.26 330.02 359.51 329.02 356.09
  Q 325.23 343.13 321.18 330.38
  Q 320.41 327.94 322.97 327.87
  L 326.82 327.78
  A 2.48 2.47 -7.5 0 1 329.29 329.67
  Q 330.91 336.28 332.90 342.51
  Q 333.81 345.38 334.63 342.48
  Q 336.43 336.03 338.21 329.34
  Q 338.65 327.69 340.31 327.35
  C 343.99 326.59 346.00 329.26 346.41 332.50
  Q 347.08 337.80 349.26 342.76
  Q 349.39 343.06 349.68 343.21
  A 0.48 0.47 -66.1 0 0 350.34 342.95
  Q 352.55 336.83 353.82 330.30
  Q 354.41 327.26 357.50 327.25
  L 359.79 327.24
  Q 362.79 327.23 362.01 330.13
  Q 358.43 343.30 354.19 356.45
  C 352.77 360.86 346.84 361.01 345.82 356.29
  Q 344.61 350.73 342.38 345.37
  Z"
/>
<path fill="#000000" d="
  M 413.18 357.44
  C 410.61 354.19 408.66 350.41 407.63 346.42
  Q 406.91 343.60 409.84 342.78
  C 412.92 341.91 416.26 340.39 414.54 336.64
  C 413.18 333.65 408.56 334.18 405.88 334.27
  A 2.24 2.23 -1.1 0 0 403.72 336.50
  L 403.73 358.00
  Q 403.73 359.49 402.24 359.49
  L 398.66 359.47
  Q 396.34 359.47 396.35 357.15
  L 396.40 329.54
  A 2.23 2.23 0.0 0 1 398.61 327.32
  Q 405.96 327.23 412.25 327.83
  C 415.38 328.13 419.06 329.23 420.74 332.09
  C 424.50 338.52 421.46 342.97 417.06 347.57
  A 2.13 2.12 45.3 0 0 417.05 350.49
  Q 419.76 353.36 421.79 356.43
  Q 423.25 358.64 420.72 359.42
  Q 419.76 359.72 418.70 359.82
  A 6.31 6.29 68.2 0 1 413.18 357.44
  Z"
/>
<path fill="#000000" d="
  M 451.18 345.32
  Q 451.08 342.29 449.46 344.86
  Q 448.07 347.07 446.71 349.17
  C 444.79 352.13 441.56 351.49 440.22 348.49
  Q 439.17 346.15 437.53 343.87
  A 0.61 0.60 -35.4 0 0 436.68 343.73
  Q 436.34 343.98 436.28 344.40
  Q 435.50 350.15 436.64 356.36
  Q 437.12 358.95 434.49 359.20
  L 430.85 359.54
  Q 428.44 359.77 428.47 357.35
  L 428.80 329.47
  Q 428.82 328.09 430.13 327.66
  C 434.39 326.26 437.39 328.46 439.12 332.23
  Q 440.67 335.62 442.52 338.62
  A 1.57 1.50 -88.8 0 0 442.96 339.10
  Q 444.07 339.89 444.70 339.02
  Q 446.95 335.90 448.48 331.91
  C 450.04 327.83 453.03 326.61 457.35 327.37
  A 1.29 1.29 0.0 0 1 458.42 328.63
  L 458.57 357.03
  Q 458.59 359.27 456.35 359.37
  L 453.56 359.49
  Q 450.88 359.61 451.04 356.93
  Q 451.37 351.32 451.18 345.32
  Z"
/>
<path fill="#000000" d="
  M 476.46 349.55
  C 476.44 351.89 479.18 353.03 480.73 354.20
  Q 481.18 354.54 481.34 355.08
  C 481.94 357.16 480.44 359.44 478.20 359.46
  Q 471.56 359.53 465.89 359.44
  A 1.28 1.27 -13.3 0 1 464.80 358.77
  C 463.69 356.65 464.33 354.03 466.58 352.98
  C 467.87 352.39 468.68 351.32 468.72 349.88
  Q 468.92 343.46 469.11 337.27
  Q 469.18 335.33 467.33 334.35
  Q 465.35 333.30 464.42 331.35
  C 463.40 329.20 464.95 327.07 467.27 327.21
  Q 473.12 327.56 478.29 327.57
  C 480.81 327.58 482.63 330.54 480.75 332.53
  C 478.93 334.45 476.48 335.06 476.49 338.30
  Q 476.52 344.05 476.46 349.55
  Z"
/>
<path fill="#000000" d="
  M 500.29 339.16
  Q 499.95 338.07 499.31 339.01
  Q 498.56 340.13 498.06 341.37
  Q 495.63 347.36 493.53 355.84
  Q 492.55 359.82 488.45 359.84
  L 487.79 359.85
  Q 484.07 359.87 485.28 356.36
  Q 489.93 342.91 493.99 332.13
  C 495.53 328.06 500.24 324.95 503.59 329.43
  Q 505.00 331.32 505.93 333.76
  Q 510.27 345.21 514.24 356.53
  Q 515.20 359.26 512.32 359.55
  L 509.86 359.79
  Q 506.74 360.10 505.81 357.10
  L 500.29 339.16
  Z"
/>
<path fill="#000000" d="
  M 558.83 351.35
  A 2.20 2.18 67.7 0 0 559.47 349.80
  L 559.51 336.84
  A 2.16 2.15 16.9 0 0 558.55 335.05
  L 555.99 333.34
  A 2.77 2.76 13.2 0 1 554.78 331.39
  C 554.34 328.07 556.56 327.04 559.32 327.28
  Q 564.31 327.69 568.74 327.96
  Q 570.09 328.04 570.88 329.05
  A 2.15 2.14 48.6 0 1 570.71 331.87
  L 567.27 335.32
  Q 566.75 335.85 566.74 336.59
  L 566.64 349.73
  A 2.82 2.81 21.2 0 0 567.58 351.85
  C 569.27 353.36 571.53 356.07 571.09 358.51
  Q 571.00 359.02 570.52 359.23
  Q 569.53 359.66 568.38 359.65
  Q 562.50 359.58 556.72 359.57
  Q 554.51 359.57 554.42 357.28
  C 554.32 354.80 557.24 352.94 558.83 351.35
  Z"
/>
<path fill="#000000" d="
  M 625.55 339.52
  C 626.57 337.27 626.39 334.16 625.93 331.84
  Q 625.24 328.42 628.65 327.69
  Q 629.49 327.50 630.39 327.51
  Q 633.61 327.52 633.62 330.75
  L 633.65 356.84
  Q 633.65 359.84 630.66 359.76
  L 629.09 359.72
  Q 625.80 359.63 625.97 356.34
  L 626.33 349.26
  A 2.19 2.19 0.0 0 0 624.26 346.96
  L 618.08 346.65
  A 2.50 2.50 0.0 0 0 615.45 349.18
  L 615.57 356.19
  Q 615.62 359.49 612.31 359.50
  L 610.79 359.50
  Q 607.57 359.51 607.57 356.29
  L 607.57 330.18
  Q 607.57 327.16 610.57 327.39
  L 612.98 327.58
  Q 615.92 327.80 615.45 330.71
  C 615.02 333.39 613.77 339.46 618.09 340.00
  Q 621.53 340.43 624.69 340.13
  A 1.04 1.03 -80.3 0 0 625.55 339.52
  Z"
/>
<rect fill="#000000" x="-12.70" y="-3.46" transform="translate(98.52,330.96) rotate(0.2)" width="25.40" height="6.92" rx="2.76"/>
<path fill="#000000" d="
  M 271.38 349.81
  A 1.34 1.34 0.0 0 0 269.84 351.08
  L 269.61 356.67
  Q 269.49 359.51 266.69 359.94
  Q 265.78 360.08 264.89 359.96
  Q 261.99 359.56 261.99 356.63
  L 261.96 329.71
  A 2.04 2.04 0.0 0 1 263.88 327.66
  Q 272.84 327.13 280.00 328.59
  C 287.96 330.21 288.44 341.81 283.65 346.91
  C 280.75 349.99 275.35 350.39 271.38 349.81
  Z
  M 269.44 336.21
  L 269.36 341.37
  A 2.06 2.06 0.0 0 0 271.39 343.46
  L 274.00 343.50
  A 5.71 4.40 0.9 0 0 279.78 339.19
  L 279.78 338.71
  A 5.71 4.40 0.9 0 0 274.14 334.22
  L 271.53 334.18
  A 2.06 2.06 0.0 0 0 269.44 336.21
  Z"
/>
<rect fill="#000000" x="-12.33" y="-3.48" transform="translate(378.32,330.97) rotate(0.1)" width="24.66" height="6.96" rx="2.18"/>
<path fill="#000000" d="
  M 670.27 350.87
  Q 670.32 352.66 672.11 352.69
  L 683.24 352.84
  Q 685.65 352.88 686.18 355.23
  Q 686.27 355.62 686.14 356.01
  Q 685.15 359.04 682.13 359.10
  Q 673.14 359.28 664.77 359.49
  A 1.93 1.93 0.0 0 1 662.79 357.56
  L 662.72 331.16
  Q 662.71 327.92 665.93 327.60
  L 666.59 327.54
  Q 669.69 327.23 669.77 330.34
  L 670.27 350.87
  Z"
/>
<path fill="#000000" d="
  M 651.83 351.34
  Q 653.17 353.07 654.58 354.55
  C 656.28 356.34 656.22 359.09 653.14 359.11
  Q 647.42 359.16 642.07 359.47
  A 1.62 1.62 0.0 0 1 640.43 358.37
  Q 640.03 357.16 640.71 355.91
  C 642.01 353.51 643.45 351.32 643.51 348.50
  Q 643.64 342.85 643.83 338.19
  Q 643.94 335.31 641.29 332.96
  C 638.75 330.70 640.38 327.86 643.46 327.91
  Q 648.76 328.00 653.99 328.07
  Q 656.23 328.10 656.28 330.20
  A 1.25 1.24 66.2 0 1 655.94 331.08
  C 654.11 333.02 651.68 335.18 651.65 338.05
  Q 651.60 344.30 651.44 350.13
  A 1.91 1.86 -63.5 0 0 651.83 351.34
  Z"
/>
<rect fill="#000000" x="-12.37" y="-2.98" transform="translate(701.41,331.06) rotate(-0.3)" width="24.74" height="5.96" rx="2.24"/>
<rect fill="#00ee02" x="-5.46" y="-9.87" transform="translate(213.36,343.47) rotate(0.3)" width="10.92" height="19.74" rx="4.95"/>
<rect fill="#00ee02" x="-5.62" y="-9.83" transform="translate(304.41,343.44) rotate(0.2)" width="11.24" height="19.66" rx="4.82"/>
<path fill="#00ee02" d="
  M 269.44 336.21
  A 2.06 2.06 0.0 0 1 271.53 334.18
  L 274.14 334.22
  A 5.71 4.40 0.9 0 1 279.78 338.71
  L 279.78 339.19
  A 5.71 4.40 0.9 0 1 274.00 343.50
  L 271.39 343.46
  A 2.06 2.06 0.0 0 1 269.36 341.37
  L 269.44 336.21
  Z"
/>
<path fill="#000000" d="
  M 90.66 340.17
  L 106.35 340.17
  A 2.20 2.20 0.0 0 1 108.53 342.03
  L 108.83 343.99
  A 2.20 2.20 0.0 0 1 106.71 346.52
  L 90.56 346.91
  A 2.20 2.20 0.0 0 1 88.31 344.57
  L 88.46 342.22
  A 2.20 2.20 0.0 0 1 90.66 340.17
  Z"
/>
<rect fill="#000000" x="-10.07" y="-3.34" transform="translate(378.17,343.48) rotate(-0.7)" width="20.14" height="6.68" rx="2.01"/>
<rect fill="#000000" x="-10.04" y="-3.09" transform="translate(701.56,343.40) rotate(0.2)" width="20.08" height="6.18" rx="2.24"/>
<rect fill="#000000" x="-12.43" y="-3.56" transform="translate(378.18,355.93) rotate(0.1)" width="24.86" height="7.12" rx="2.34"/>
<rect fill="#000000" x="85.93" y="352.53" width="25.14" height="7.06" rx="1.69"/>
<rect fill="#000000" x="-12.38" y="-3.14" transform="translate(701.63,356.07) rotate(0.6)" width="24.76" height="6.28" rx="3.04"/>
<path fill="#000000" d="
  M 349.71 373.92
  L 349.63 392.35
  A 0.78 0.78 0.0 0 1 348.83 393.12
  L 346.51 393.05
  A 0.78 0.78 0.0 0 1 345.76 392.22
  L 346.68 377.01
  A 0.78 0.78 0.0 0 1 346.75 376.73
  L 348.22 373.59
  A 0.78 0.78 0.0 0 1 349.71 373.92
  Z"
/>
<path fill="#000000" d="
  M 419.45 389.08
  Q 419.20 389.76 419.07 390.50
  A 3.22 3.09 84.1 0 1 417.26 392.83
  Q 416.70 393.07 416.00 392.78
  A 1.16 1.15 11.6 0 1 415.30 391.72
  Q 415.29 385.61 415.31 379.55
  C 415.31 377.95 416.44 376.80 417.99 376.54
  C 423.38 375.65 431.49 376.31 430.71 383.55
  C 430.11 389.15 424.47 388.44 420.42 388.41
  A 1.02 1.02 0.0 0 0 419.45 389.08
  Z
  M 425.41 385.06
  A 2.14 2.14 0.0 0 0 427.21 382.97
  L 427.23 381.69
  A 2.14 2.14 0.0 0 0 425.62 379.59
  L 421.77 378.60
  A 2.14 2.14 0.0 0 0 419.11 380.39
  L 418.72 383.34
  A 2.14 2.14 0.0 0 0 421.18 385.73
  L 425.41 385.06
  Z"
/>
<path fill="#000000" d="
  M 453.6132 384.6857
  A 9.23 8.43 -2.2 0 1 444.7136 393.4638
  A 9.23 8.43 -2.2 0 1 435.1668 385.3943
  A 9.23 8.43 -2.2 0 1 444.0664 376.6162
  A 9.23 8.43 -2.2 0 1 453.6132 384.6857
  Z
  M 450.1514 385.3227
  A 5.77 5.32 4.6 0 0 444.8267 379.5571
  A 5.77 5.32 4.6 0 0 438.6486 384.3973
  A 5.77 5.32 4.6 0 0 443.9733 390.1629
  A 5.77 5.32 4.6 0 0 450.1514 385.3227
  Z"
/>
<path fill="#000000" d="
  M 487.60 383.43
  Q 490.20 383.77 494.15 383.45
  Q 495.30 383.36 495.25 384.51
  Q 495.24 384.73 495.16 384.94
  Q 494.72 385.98 493.59 385.93
  L 488.36 385.71
  Q 485.75 385.59 486.14 388.18
  L 486.24 388.87
  Q 486.58 391.14 488.87 390.96
  L 496.84 390.33
  Q 497.96 390.25 498.26 391.33
  L 498.35 391.68
  A 0.96 0.95 -14.8 0 1 497.66 392.86
  Q 491.05 394.53 484.44 393.15
  Q 482.45 392.74 482.48 390.67
  Q 482.56 384.55 482.76 378.13
  A 1.72 1.72 0.0 0 1 484.53 376.47
  L 496.66 376.80
  Q 497.73 376.83 497.68 377.91
  L 497.67 378.18
  Q 497.59 379.70 496.07 379.58
  L 489.84 379.09
  Q 487.68 378.93 486.69 380.86
  Q 486.61 381.01 486.47 381.28
  Q 485.51 383.16 487.60 383.43
  Z"
/>
<path fill="#000000" d="
  M 507.49 389.17
  L 506.78 391.56
  A 1.40 1.40 0.0 0 1 504.97 392.48
  C 503.78 392.05 503.22 390.94 503.33 389.73
  Q 503.82 384.51 503.69 379.27
  A 2.47 2.47 0.0 0 1 505.91 376.75
  C 509.06 376.44 514.19 376.03 517.03 377.84
  C 519.57 379.46 519.91 382.62 518.63 385.17
  C 517.55 387.33 516.86 389.27 518.34 391.55
  A 1.21 1.21 0.0 0 1 517.98 393.24
  Q 517.33 393.65 516.35 393.37
  A 1.65 1.58 76.5 0 1 515.57 392.87
  C 513.42 390.44 513.61 388.22 509.63 387.76
  A 2.00 2.00 0.0 0 0 507.49 389.17
  Z
  M 515.7461 382.3476
  A 2.94 2.94 0.0 0 0 512.9158 379.3019
  L 509.6580 379.1824
  A 2.94 2.94 0.0 0 0 506.6122 382.0127
  L 506.5939 382.5124
  A 2.94 2.94 0.0 0 0 509.4242 385.5581
  L 512.6820 385.6776
  A 2.94 2.94 0.0 0 0 515.7278 382.8473
  L 515.7461 382.3476
  Z"
/>
<path fill="#000000" d="
  M 285.01 379.82
  Q 283.47 381.50 284.93 383.72
  A 1.15 1.15 0.0 0 1 284.94 384.97
  C 283.86 386.68 283.50 388.73 285.48 389.96
  C 287.93 391.50 291.14 390.47 293.98 390.28
  Q 295.12 390.21 295.63 391.23
  Q 295.98 391.92 295.34 392.82
  A 1.39 1.38 -72.5 0 1 294.27 393.38
  Q 290.89 393.49 287.10 393.48
  C 284.38 393.48 281.01 392.89 280.84 389.52
  Q 280.60 384.91 280.86 379.47
  C 280.98 376.96 283.95 376.81 285.84 376.74
  Q 290.73 376.56 294.38 377.01
  Q 295.49 377.15 295.28 378.24
  L 295.22 378.55
  A 1.48 1.47 -79.3 0 1 293.51 379.72
  Q 286.29 378.42 285.01 379.82
  Z"
/>
<path fill="#000000" d="
  M 392.82 388.45
  C 391.70 385.77 387.09 385.67 384.57 385.47
  C 380.63 385.16 377.37 380.93 382.18 378.36
  Q 389.07 374.69 396.23 379.27
  A 1.27 1.27 0.0 0 1 396.75 380.76
  L 396.64 381.11
  A 0.48 0.48 0.0 0 1 395.97 381.38
  C 392.85 379.81 386.64 377.17 384.09 380.66
  Q 383.71 381.18 383.93 381.78
  Q 384.61 383.61 386.51 383.73
  C 389.41 383.91 396.36 384.65 397.62 387.97
  Q 397.85 388.57 397.54 389.12
  Q 396.57 390.89 394.77 391.93
  Q 387.28 396.28 379.55 390.14
  A 0.86 0.86 0.0 0 1 379.31 389.08
  L 379.49 388.71
  A 0.44 0.44 0.0 0 1 380.10 388.52
  C 383.65 390.55 389.87 393.32 392.73 389.25
  Q 392.99 388.88 392.82 388.45
  Z"
/>
<path fill="#000000" d="
  M 465.63 387.22
  L 464.62 390.86
  A 1.21 1.19 -7.5 0 1 464.04 391.60
  C 463.05 392.14 462.05 391.55 461.76 390.53
  Q 460.04 384.38 458.34 378.95
  Q 457.95 377.71 459.14 377.20
  Q 459.37 377.10 459.61 377.12
  Q 461.35 377.30 462.02 379.03
  Q 462.59 380.51 463.04 382.03
  A 1.82 1.81 65.2 0 0 465.77 383.04
  L 467.73 381.75
  A 0.95 0.94 43.5 0 1 468.73 381.73
  L 471.18 383.16
  A 1.35 1.35 0.0 0 0 473.18 382.32
  L 474.26 377.98
  Q 474.72 376.13 476.55 376.69
  L 477.00 376.83
  Q 478.36 377.24 478.02 378.62
  L 475.16 390.44
  A 1.52 1.51 -7.3 0 1 474.40 391.42
  Q 472.81 392.27 471.73 390.52
  C 470.39 388.35 469.87 386.16 466.55 386.46
  Q 465.83 386.52 465.63 387.22
  Z"
/>
<path fill="#000000" d="
  M 332.88 385.11
  L 336.06 379.16
  Q 336.83 377.71 338.39 377.22
  Q 338.94 377.05 339.49 377.13
  Q 340.69 377.31 340.13 378.38
  L 333.58 390.77
  A 2.22 2.16 -7.3 0 1 333.08 391.40
  Q 331.07 393.10 329.93 391.04
  Q 326.82 385.45 323.63 379.44
  Q 322.93 378.11 324.20 377.33
  L 324.43 377.19
  Q 325.49 376.53 326.14 377.60
  L 330.76 385.17
  A 1.22 1.22 0.0 0 0 332.88 385.11
  Z"
/>
<path fill="#000000" d="
  M 375.2121 385.6133
  A 7.40 7.40 0.0 0 1 367.9687 393.1666
  L 364.9493 393.2299
  A 7.40 7.40 0.0 0 1 357.3960 385.9865
  L 357.3679 384.6467
  A 7.40 7.40 0.0 0 1 364.6113 377.0934
  L 367.6307 377.0301
  A 7.40 7.40 0.0 0 1 375.1840 384.2735
  L 375.2121 385.6133
  Z
  M 372.0480 385.1329
  A 5.84 5.12 1.5 0 0 366.3440 379.8618
  A 5.84 5.12 1.5 0 0 360.3720 384.8271
  A 5.84 5.12 1.5 0 0 366.0760 390.0982
  A 5.84 5.12 1.5 0 0 372.0480 385.1329
  Z"
/>
<path fill="#000000" d="
  M 305.86 386.38
  L 305.66 391.22
  Q 305.58 393.02 303.78 392.83
  L 303.22 392.77
  Q 301.80 392.62 302.01 391.21
  Q 302.88 385.24 302.09 379.43
  Q 301.63 376.00 304.26 378.25
  L 312.48 385.27
  A 1.18 1.17 -42.6 0 0 313.93 385.33
  Q 314.62 384.83 314.65 383.93
  Q 314.75 380.97 314.81 378.41
  Q 314.85 376.95 316.27 377.25
  L 316.53 377.31
  A 1.34 1.34 0.0 0 1 317.59 378.58
  L 318.00 391.55
  A 0.84 0.83 84.0 0 1 317.32 392.40
  Q 315.44 392.77 314.36 391.12
  Q 311.78 387.18 307.59 385.30
  Q 305.93 384.56 305.86 386.38
  Z"
/>
<path fill="#00ee02" d="
  M 425.41 385.06
  L 421.18 385.73
  A 2.14 2.14 0.0 0 1 418.72 383.34
  L 419.11 380.39
  A 2.14 2.14 0.0 0 1 421.77 378.60
  L 425.62 379.59
  A 2.14 2.14 0.0 0 1 427.23 381.69
  L 427.21 382.97
  A 2.14 2.14 0.0 0 1 425.41 385.06
  Z"
/>
<rect fill="#00ee02" x="-4.57" y="-3.19" transform="translate(511.17,382.43) rotate(2.1)" width="9.14" height="6.38" rx="2.94"/>
<ellipse fill="#00ee02" cx="0.00" cy="0.00" transform="translate(444.40,384.86) rotate(4.6)" rx="5.77" ry="5.32"/>
<ellipse fill="#00ee02" cx="0.00" cy="0.00" transform="translate(366.21,384.98) rotate(1.5)" rx="5.84" ry="5.12"/>
<path fill="#000000" d="
  M 293.06 385.40
  A 0.28 0.28 0.0 0 1 292.78 385.68
  L 291.32 385.67
  A 3.94 0.78 0.2 0 1 287.38 384.88
  L 287.38 384.60
  A 3.94 0.78 0.2 0 1 291.32 383.83
  L 292.78 383.84
  A 0.28 0.28 0.0 0 1 293.06 384.12
  L 293.06 385.40
  Z"
/>
<path fill="#00ee02" d="
  M 385.89 592.44
  A 0.77 0.77 0.0 0 0 385.64 591.52
  Q 383.53 589.95 381.41 588.40
  C 378.15 586.00 374.53 584.06 371.30 581.69
  C 363.64 576.05 355.24 571.04 347.23 566.06
  Q 346.26 565.45 346.79 564.44
  Q 347.11 563.82 347.70 563.44
  Q 417.12 518.39 504.57 459.05
  Q 504.96 458.78 505.43 458.80
  A 0.77 0.77 0.0 0 1 505.96 460.09
  C 475.58 493.27 445.34 529.33 414.17 563.45
  A 1.68 1.68 0.0 0 0 414.49 565.99
  L 452.12 590.49
  A 2.52 2.40 85.0 0 1 452.54 590.86
  Q 453.77 592.26 452.45 592.93
  Q 430.28 604.23 408.15 615.42
  Q 399.55 619.77 390.24 624.27
  Q 353.61 641.96 299.82 669.37
  Q 297.83 670.38 295.04 671.41
  Q 294.73 671.53 294.50 671.29
  Q 294.46 671.25 294.44 671.19
  Q 294.38 670.96 294.55 670.81
  Q 339.83 632.09 385.13 593.39
  Q 385.68 592.92 385.89 592.44
  Z"
/>
</svg>
