<svg width="146" height="147" viewBox="0 0 146 147" fill="none" xmlns="http://www.w3.org/2000/svg">
<path d="M3.11575 72.69C3.11206 85.0526 6.34242 97.124 12.4846 107.764L2.52808 144.117L39.7305 134.362C49.9797 139.948 61.5203 142.897 73.265 142.9H73.296C111.972 142.9 143.455 111.428 143.471 72.7454C143.478 54.0004 136.185 36.3746 122.935 23.1139C109.687 9.85383 92.0669 2.54744 73.2931 2.53931C34.6129 2.53931 3.13201 34.0091 3.11575 72.69Z" fill="url(#paint0_linear_37_663)"/>
<path d="M0.610591 72.667C0.606156 85.4746 3.95258 97.9777 10.3135 108.998L0 146.654L38.5367 136.55C49.1548 142.339 61.1094 145.392 73.2746 145.396H73.3057C113.369 145.396 145.983 112.792 146 72.7254C146.007 53.307 138.451 35.0476 124.728 21.3115C111.002 7.57695 92.7514 0.00813136 73.3057 0C33.2351 0 0.626854 32.5986 0.610591 72.667ZM23.5595 107.1L22.121 104.816C16.072 95.1982 12.8793 84.0841 12.8838 72.6714C12.8971 39.3683 40.0004 12.2739 73.3286 12.2739C89.4678 12.2806 104.637 18.572 116.045 29.9877C127.453 41.4041 133.731 56.5802 133.726 72.7209C133.711 106.025 106.607 133.123 73.3057 133.123H73.282C62.4385 133.117 51.8041 130.205 42.5292 124.702L40.3219 123.393L17.4536 129.389L23.5595 107.1Z" fill="url(#paint1_linear_37_663)"/>
<path d="M55.1368 42.2879C53.7759 39.263 52.3441 39.2024 51.0497 39.1491C49.9904 39.1041 48.7788 39.107 47.5687 39.107C46.3572 39.107 44.3894 39.5624 42.7254 41.3794C41.06 43.1971 36.3674 47.591 36.3674 56.5273C36.3674 65.4644 42.877 74.0999 43.784 75.313C44.6925 76.5238 56.3499 95.4492 74.8117 102.73C90.1556 108.78 93.2781 107.577 96.6082 107.274C99.9384 106.971 107.355 102.881 108.868 98.6396C110.382 94.3988 110.382 90.7633 109.928 90.0041C109.474 89.2472 108.263 88.7926 106.446 87.8848C104.629 86.9763 95.6997 82.5817 94.035 81.9755C92.3696 81.3701 91.1587 81.0678 89.9472 82.8862C88.7363 84.7025 85.2576 88.7926 84.1976 90.0041C83.1383 91.2179 82.0782 91.3695 80.262 90.461C78.445 89.5495 72.5948 87.6335 65.6551 81.4462C60.2551 76.6317 56.6101 70.6862 55.55 68.8678C54.4907 67.0515 55.4369 66.0676 56.3477 65.1621C57.1637 64.3482 58.1646 63.0413 59.0731 61.9813C59.9794 60.9205 60.2818 60.1635 60.8872 58.952C61.4933 57.7396 61.1902 56.6789 60.7364 55.7704C60.2818 54.8619 56.752 45.8797 55.1368 42.2879Z" fill="white"/>
<defs>
<linearGradient id="paint0_linear_37_663" x1="7049.68" y1="14160.3" x2="7049.68" y2="2.54606" gradientUnits="userSpaceOnUse">
<stop stop-color="#1FAF38"/>
<stop offset="1" stop-color="#60D669"/>
</linearGradient>
<linearGradient id="paint1_linear_37_663" x1="7300.01" y1="14665.4" x2="7300.01" y2="-0.0192308" gradientUnits="userSpaceOnUse">
<stop stop-color="#F9F9F9"/>
<stop offset="1" stop-color="white"/>
</linearGradient>
</defs>
</svg>
